<svg width="28" height="32" viewBox="0 0 28 32" fill="none" xmlns="http://www.w3.org/2000/svg">
<path fill-rule="evenodd" clip-rule="evenodd" d="M19.6931 6.59752C17.8304 4.51349 14.9863 4.06875 13.8123 4.1174L13.8064 4.11764L13.8064 4.11761C10.0409 4.23629 7.91727 6.21186 6.7437 8.63078C5.54682 11.0978 5.33173 14.0552 5.51202 16.0219C5.51408 16.0443 5.51511 16.0668 5.51511 16.0893C5.51511 17.3203 5.21418 18.9468 4.8587 20.4369C4.49962 21.9421 4.06921 23.371 3.78029 24.2329L2.58325 23.7671C2.85999 22.9414 3.27806 21.5541 3.62605 20.0954C3.97404 18.6367 4.23694 17.1671 4.2423 16.1217C4.05111 13.9747 4.27924 10.7503 5.61581 7.99539C6.98267 5.17806 9.50129 2.88225 13.7664 2.74684C15.1395 2.69084 18.4014 3.17539 20.6098 5.64613C20.8536 5.9189 20.8461 6.353 20.5929 6.61572C20.3398 6.87844 19.9369 6.87029 19.6931 6.59752Z" fill="#0C0C0C"/>
<path fill-rule="evenodd" clip-rule="evenodd" d="M0.826857 23.619C1.22374 23.383 1.66981 23.3142 1.96443 23.3142H4.45455C4.806 23.3142 5.09091 23.6212 5.09091 23.9999C5.09091 24.3786 4.806 24.6857 4.45455 24.6857H1.96443C1.81636 24.6857 1.59839 24.7266 1.44192 24.8197C1.36996 24.8625 1.33053 24.9047 1.30959 24.9382C1.29253 24.9655 1.27273 25.0097 1.27273 25.0971V26.7428C1.27273 27.1215 0.987818 27.4285 0.636364 27.4285C0.28491 27.4285 0 27.1215 0 26.7428V25.0971C0 24.349 0.400787 23.8725 0.826857 23.619Z" fill="#0C0C0C"/>
<path fill-rule="evenodd" clip-rule="evenodd" d="M8.19638 24.4571C8.19638 24.0784 8.48129 23.7714 8.83275 23.7714H25.7459C26.0841 23.7714 26.5978 23.8468 27.0518 24.1026C27.5307 24.3724 28 24.888 28 25.723V26.8483C28 27.2243 27.8628 27.7194 27.492 28.1223C27.1073 28.5404 26.5278 28.8 25.7459 28.8H5.30305C4.9516 28.8 4.66669 28.493 4.66669 28.1143C4.66669 27.7356 4.9516 27.4286 5.30305 27.4286H25.7459C26.2582 27.4286 26.4876 27.2661 26.5882 27.1567C26.7027 27.0323 26.7273 26.8943 26.7273 26.8483V25.723C26.7273 25.5453 26.6574 25.4279 26.4621 25.3179C26.2421 25.194 25.9469 25.1428 25.7459 25.1428H8.83275C8.48129 25.1428 8.19638 24.8358 8.19638 24.4571Z" fill="#0C0C0C"/>
<path fill-rule="evenodd" clip-rule="evenodd" d="M22.4831 9.18252C22.8141 9.05526 23.1782 9.24125 23.2963 9.59794C23.5569 10.385 23.9809 12.7912 23.8915 16.6843C23.8922 18.0324 24.0543 19.6472 24.3249 21.058C24.4604 21.7641 24.6205 22.406 24.7958 22.93C24.9762 23.4691 25.154 23.826 25.3009 24.0103L24.3354 24.9039C24.0358 24.528 23.7949 23.9823 23.5985 23.3951C23.397 22.7928 23.2222 22.0846 23.0786 21.3356C22.7915 19.8391 22.6188 18.1273 22.6188 16.6759C22.6188 16.6702 22.6189 16.6645 22.619 16.6588C22.7074 12.838 22.2834 10.6199 22.0976 10.0588C21.9795 9.7021 22.1521 9.30978 22.4831 9.18252Z" fill="#0C0C0C"/>
<path fill-rule="evenodd" clip-rule="evenodd" d="M14.591 1.57377C14.4422 1.39481 14.2307 1.35215 14.0745 1.37741C14.0261 1.38523 13.9771 1.38703 13.9284 1.38276C13.7195 1.36445 13.6065 1.41799 13.5349 1.47487C13.4518 1.54083 13.3669 1.65889 13.2961 1.85261C13.1488 2.25568 13.1289 2.80604 13.1705 3.19909L11.9059 3.35424C11.8513 2.83763 11.8603 2.03865 12.1119 1.35013C12.2406 0.998062 12.4476 0.634759 12.7797 0.370959C13.1064 0.111449 13.507 -0.0139559 13.961 0.0108026C14.4252 -0.0418368 15.0629 0.0860278 15.5389 0.658671C16.0432 1.26524 16.2384 2.2168 16.0508 3.53246L14.7928 3.32409C14.9512 2.21398 14.7379 1.75052 14.591 1.57377Z" fill="#0C0C0C"/>
<path fill-rule="evenodd" clip-rule="evenodd" d="M0.190186 29.9111L25.6447 2.93933L26.5371 3.9172L1.08255 30.889L0.190186 29.9111Z" fill="#0C0C0C"/>
<path fill-rule="evenodd" clip-rule="evenodd" d="M13.134 31.997C14.2348 32.0549 16.301 31.2899 16.9531 28.2696L15.7135 27.9589C15.2124 30.2799 13.7313 30.6603 13.188 30.6267C13.1759 30.6259 13.1637 30.6255 13.1515 30.6255C12.3281 30.6255 11.7465 30.2339 11.3325 29.72C10.9046 29.1889 10.6714 28.5409 10.5931 28.1289L9.34625 28.404C9.46083 29.007 9.77717 29.8814 10.3714 30.619C10.9765 31.3702 11.8838 31.9912 13.134 31.997Z" fill="#0C0C0C"/>
</svg>
