<svg width="28" height="32" viewBox="0 0 28 32" fill="none" xmlns="http://www.w3.org/2000/svg">
<path fill-rule="evenodd" clip-rule="evenodd" d="M26.71 13.2965C26.8376 8.54819 24.3047 4.84867 23.0588 3.62847L23.9437 2.66663C25.3769 4.07027 28.1352 8.11107 27.9948 13.3333L26.71 13.2965Z" fill="#0C0C0C"/>
<path fill-rule="evenodd" clip-rule="evenodd" d="M24.2432 8.85188C23.6043 7.29828 22.7809 6.06592 22.2353 5.4231L23.0614 4.44446C23.6962 5.19244 24.5973 6.55046 25.2954 8.24787C25.9934 9.94507 26.5098 12.0343 26.3093 14.2222L25.1462 14.0735C25.3153 12.2281 24.8822 10.4057 24.2432 8.85188Z" fill="#0C0C0C"/>
<path fill-rule="evenodd" clip-rule="evenodd" d="M1.29001 13.2965C1.16242 8.54819 3.6953 4.84867 4.94118 3.62847L4.05627 2.66663C2.62309 4.07027 -0.135162 8.11107 0.00515652 13.3333L1.29001 13.2965Z" fill="#0C0C0C"/>
<path fill-rule="evenodd" clip-rule="evenodd" d="M3.75683 8.85188C4.39575 7.29828 5.21911 6.06592 5.76471 5.4231L4.93862 4.44446C4.30377 5.19244 3.40265 6.55046 2.70459 8.24787C2.00661 9.94507 1.49024 12.0343 1.6907 14.2222L2.85377 14.0735C2.68469 12.2281 3.11782 10.4057 3.75683 8.85188Z" fill="#0C0C0C"/>
<path fill-rule="evenodd" clip-rule="evenodd" d="M13.5344 31.9956C14.1594 31.9919 15.0405 31.7816 15.7963 31.2539C16.5845 30.7035 17.2269 29.8115 17.2941 28.5052L15.9875 28.4445C15.9411 29.3468 15.5187 29.9042 15.022 30.251C14.4998 30.6157 13.8852 30.7515 13.5173 30.7515C13.5061 30.7515 13.495 30.7518 13.4839 30.7523C12.6018 30.7952 12.0717 30.437 11.7279 29.9708C11.3601 29.472 11.2085 28.8418 11.1892 28.4459L9.88235 28.5038C9.91029 29.0742 10.1137 29.9486 10.6569 30.6852C11.2219 31.4514 12.1539 32.0577 13.5344 31.9956Z" fill="#0C0C0C"/>
<path fill-rule="evenodd" clip-rule="evenodd" d="M25.5294 25.3333H2.47059C2.24318 25.3333 2.05883 25.5323 2.05883 25.7778V26.6667C2.05883 26.9121 2.24318 27.1111 2.47059 27.1111H25.5294C25.7568 27.1111 25.9412 26.9121 25.9412 26.6667V25.7778C25.9412 25.5323 25.7568 25.3333 25.5294 25.3333ZM2.47059 24C1.56095 24 0.823532 24.7959 0.823532 25.7778V26.6667C0.823532 27.6485 1.56095 28.4444 2.47059 28.4444H25.5294C26.4391 28.4444 27.1765 27.6485 27.1765 26.6667V25.7778C27.1765 24.7959 26.4391 24 25.5294 24H2.47059Z" fill="#0C0C0C"/>
<path fill-rule="evenodd" clip-rule="evenodd" d="M19.7435 6.33732C17.8945 4.47831 15.5036 3.9554 13.8722 4.05387C13.864 4.05436 13.8559 4.05467 13.8477 4.0548C9.95565 4.11433 7.77147 6.27981 6.57326 8.97406C5.35233 11.7194 5.15521 15.0338 5.36028 17.2472C5.36247 17.2709 5.36357 17.2947 5.36357 17.3186C5.36357 20.3888 4.6739 21.9807 4.11632 23.2677C3.92699 23.7046 3.7529 24.1065 3.6262 24.5191L2.47058 24.0697C2.65175 23.4797 2.86522 22.9875 3.0779 22.4972C3.60962 21.2713 4.13637 20.0569 4.14087 17.3536C3.92536 14.9691 4.13062 11.3921 5.47989 8.35821C6.85748 5.2606 9.42642 2.75086 13.819 2.67913C15.6896 2.56952 18.4171 3.15856 20.5581 5.31122C22.728 7.49305 24.1972 11.1807 23.6799 17.0357C23.6814 18.9736 23.809 20.2375 24.0917 21.2455C24.3717 22.2437 24.817 23.038 25.5294 24.0171L24.5834 24.8888C23.8192 23.8386 23.2705 22.8889 22.9258 21.6596C22.5854 20.446 22.4573 19.0078 22.4573 17.0015C22.4573 16.9784 22.4583 16.9554 22.4603 16.9325C22.9565 11.3927 21.5638 8.16757 19.7435 6.33732Z" fill="#0C0C0C"/>
<path fill-rule="evenodd" clip-rule="evenodd" d="M12.8795 1.57396C12.7571 1.83847 12.7449 2.20807 12.7859 2.51193L11.561 2.66667C11.5071 2.26755 11.4949 1.64127 11.752 1.08564C11.8856 0.79692 12.0977 0.516042 12.4216 0.310364C12.7463 0.104142 13.1418 0 13.5967 0C13.9548 0 14.5386 0.0592711 15.0059 0.495712C15.4827 0.941104 15.6992 1.64559 15.6365 2.62619L14.4035 2.55241C14.4547 1.75214 14.2605 1.46074 14.1478 1.35546C14.0255 1.24124 13.8408 1.19506 13.5967 1.19506C13.34 1.19506 13.1899 1.25202 13.0995 1.30941C13.0082 1.36735 12.9357 1.45261 12.8795 1.57396Z" fill="#0C0C0C"/>
</svg>
