<svg width="28" height="32" viewBox="0 0 28 32" fill="none" xmlns="http://www.w3.org/2000/svg">
<path fill-rule="evenodd" clip-rule="evenodd" d="M13.5053 31.9956C14.1694 31.9919 15.1056 31.7816 15.9085 31.2539C16.746 30.7035 17.4286 29.8115 17.5 28.5052L16.1117 28.4445C16.0624 29.3468 15.6136 29.9042 15.0859 30.251C14.531 30.6157 13.878 30.7515 13.4871 30.7515C13.4753 30.7515 13.4635 30.7518 13.4516 30.7523C12.5144 30.7952 11.9512 30.437 11.5859 29.9708C11.1951 29.472 11.0341 28.8418 11.0135 28.4459L9.625 28.5038C9.65468 29.0742 9.87077 29.9486 10.4479 30.6852C11.0482 31.4514 12.0385 32.0577 13.5053 31.9956Z" fill="#0C0C0C"/>
<path fill-rule="evenodd" clip-rule="evenodd" d="M26.25 25.3333H1.75C1.50838 25.3333 1.3125 25.5323 1.3125 25.7778V26.6667C1.3125 26.9121 1.50838 27.1111 1.75 27.1111H26.25C26.4916 27.1111 26.6875 26.9121 26.6875 26.6667V25.7778C26.6875 25.5323 26.4916 25.3333 26.25 25.3333ZM1.75 24C0.783502 24 0 24.7959 0 25.7778V26.6667C0 27.6485 0.783502 28.4444 1.75 28.4444H26.25C27.2165 28.4444 28 27.6485 28 26.6667V25.7778C28 24.7959 27.2165 24 26.25 24H1.75Z" fill="#0C0C0C"/>
<path fill-rule="evenodd" clip-rule="evenodd" d="M20.1024 6.33732C18.138 4.47831 15.5976 3.9554 13.8642 4.05387C13.8555 4.05436 13.8469 4.05467 13.8382 4.0548C9.70288 4.11433 7.38219 6.27981 6.1091 8.97406C4.81186 11.7194 4.60242 15.0338 4.8203 17.2472C4.82263 17.2709 4.8238 17.2947 4.8238 17.3186C4.8238 20.3888 4.09103 21.9807 3.49859 23.2677C3.29744 23.7046 3.11246 24.1065 2.97784 24.5191L1.75 24.0697C1.94249 23.4797 2.16931 22.9875 2.39528 22.4972C2.96023 21.2713 3.5199 20.0569 3.52469 17.3536C3.29571 14.9691 3.51379 11.3921 4.94739 8.35821C6.41108 5.2606 9.14058 2.75086 13.8077 2.67913C15.7952 2.56952 18.6932 3.15856 20.968 5.31122C23.2736 7.49305 24.8345 11.1807 24.285 17.0357C24.2865 18.9736 24.4221 20.2375 24.7225 21.2455C25.02 22.2437 25.4931 23.038 26.25 24.0171L25.2449 24.8888C24.4329 23.8386 23.85 22.8889 23.4836 21.6596C23.122 20.446 22.9859 19.0078 22.9859 17.0015C22.9859 16.9784 22.9869 16.9554 22.9891 16.9325C23.5163 11.3927 22.0365 8.16757 20.1024 6.33732Z" fill="#0C0C0C"/>
<path fill-rule="evenodd" clip-rule="evenodd" d="M12.8095 1.57396C12.6794 1.83847 12.6664 2.20807 12.71 2.51193L11.4085 2.66667C11.3513 2.26755 11.3383 1.64127 11.6115 1.08564C11.7535 0.79692 11.9788 0.516042 12.3229 0.310364C12.668 0.104142 13.0882 0 13.5715 0C13.952 0 14.5722 0.0592711 15.0687 0.495712C15.5754 0.941104 15.8054 1.64559 15.7388 2.62619L14.4287 2.55241C14.4831 1.75214 14.2768 1.46074 14.1571 1.35546C14.0271 1.24124 13.8308 1.19506 13.5715 1.19506C13.2987 1.19506 13.1392 1.25202 13.0432 1.30941C12.9463 1.36735 12.8691 1.45261 12.8095 1.57396Z" fill="#0C0C0C"/>
</svg>
