<svg width="37" height="29" viewBox="0 0 37 29" fill="none" xmlns="http://www.w3.org/2000/svg">
<path d="M24.1983 17.7968C23.8946 17.7831 24.2792 15.8659 24.5095 14.909L26.6815 13.5418C25.9256 17.1566 24.2909 17.7436 24.1983 17.7968Z" fill="#A49CA7"/>
<path d="M3.35974 20.9004L9.46164 19.1136L10.5131 20.9416L6.31313 25.2835C5.7741 25.999 5.5139 25.7094 5.45118 25.4752C5.00993 24.1072 5.86072 22.8068 6.34127 22.3277L6.25365 22.1753C5.27963 22.7356 3.76911 22.0502 3.13561 21.6375C2.59547 21.2994 3.05997 21.0052 3.35974 20.9004Z" fill="#A49CA7"/>
<path d="M15.2552 20.8271C15.4871 20.3279 15.9569 19.3046 15.9811 19.2051C17.5666 18.4923 20.7533 17.0564 20.8162 17.0157C20.8981 17.549 20.3578 19.4417 20.0774 20.3214C19.9563 20.8186 19.4709 20.8189 19.2433 20.7569C18.3782 20.3958 16.5019 20.962 15.6719 21.2902C15.0918 21.4984 15.1524 21.0682 15.2552 20.8271Z" fill="#A49CA7"/>
<path d="M17.6042 10.7216L18.8235 11.3718L22.7672 8.99065C22.1052 7.83971 20.1501 7.38 19.2553 7.29401C18.8371 7.19671 18.7043 7.38573 18.6622 7.52255L17.3608 10.2985C17.2935 10.5174 17.495 10.6718 17.6042 10.7216Z" fill="#A49CA7"/>
<path d="M27.8646 6.724C17.023 10.6763 11.0227 17.1256 9.08135 19.6699L8.59507 20.3084L8.15805 20.9147C7.30891 22.2378 9.09726 21.5244 10.153 21.3137C15.4724 20.0382 23.7755 15.619 23.965 15.51C32.2086 10.7681 33.6313 7.92924 33.8444 6.37727C34.0687 4.7434 30.043 5.90715 27.8646 6.724Z" fill="#C2BDC5"/>
<path d="M23.965 15.51C32.2086 10.7681 33.6304 7.92764 33.8428 6.37454C33.9375 5.68202 33.2698 5.49142 32.3031 5.56384C28.3627 12.5689 15.055 18.0362 8.89364 19.8942L8.15638 20.9118C7.30762 22.2356 9.09611 21.5224 10.152 21.312C15.4723 20.0379 23.7755 15.619 23.965 15.51Z" fill="#B3ADB6"/>
<path d="M28.4168 12.6974L27.5325 13.3022C25.1634 10.5561 25.9574 8.12018 26.587 7.21327C26.7997 7.14942 27.6001 6.80608 28.0724 6.65143C25.8536 9.14172 27.3566 11.712 28.4168 12.6974Z" fill="#A49CA7"/>
<ellipse cx="0.646359" cy="0.615583" rx="0.646359" ry="0.615583" transform="matrix(0.86977 -0.493457 0.492756 0.870167 29.881 7.44409)" fill="black"/>
</svg>
