<svg width="149" height="162" viewBox="0 0 149 162" fill="none" xmlns="http://www.w3.org/2000/svg">
<path d="M104.36 87.3874C102.985 87.7875 101.344 78.598 100.695 73.9532L107.964 64.5154C110.923 81.8882 104.679 87.0074 104.36 87.3874Z" fill="#A49CA7"/>
<path d="M17.1057 132.992L41.1202 115.697L48.993 122.303L37.905 148.175C36.7587 152.206 35.0952 151.302 34.4067 150.346C30.0521 144.876 31.5624 137.747 32.8619 134.866L32.2059 134.315C28.8535 138.31 20.937 137.53 17.3977 136.641C14.4044 135.945 15.9558 133.918 17.1057 132.992Z" fill="#A49CA7"/>
<path d="M69.8836 114.581C70.042 111.988 70.3422 106.681 70.276 106.198C76.0812 100.589 87.7437 89.3003 87.952 89.022C89.2489 91.2911 90.1552 100.607 90.4462 104.982C90.7771 107.398 88.6187 108.137 87.4982 108.204C83.0192 107.899 75.6642 113.292 72.5466 116.026C70.3303 117.843 69.8478 115.82 69.8836 114.581Z" fill="#A49CA7"/>
<path d="M62.6611 65.6553L69.221 66.7201L82.5976 50.0382C77.6407 45.8789 68.1415 46.7874 64.0115 47.7615C61.9812 47.9606 61.7211 49.0108 61.7733 49.6888L60.8388 64.1261C60.9222 65.211 62.0885 65.5976 62.6611 65.6553Z" fill="#A49CA7"/>
<path d="M101.305 32.1167C59.9974 66.3349 44.5871 104.402 40.4014 118.772L39.3551 122.377L38.4716 125.762C37.0084 132.991 43.7149 127.071 48.0419 124.521C69.4702 110.71 98.6716 78.255 99.3238 77.4777C127.696 43.6646 129.061 28.7606 127.294 21.4711C125.435 13.7971 109.565 25.1393 101.305 32.1167Z" fill="#C2BDC5"/>
<path d="M99.3238 77.4777C127.696 43.6646 129.054 28.7549 127.283 21.4614C126.493 18.2092 123.19 18.3686 119.017 20.1632C113.74 57.5932 64.113 102.36 39.9589 120.064L38.4592 125.752C36.9988 132.983 43.7063 127.064 48.0346 124.514C69.469 110.709 98.6716 78.255 99.3238 77.4777Z" fill="#B3ADB6"/>
<path d="M114.206 58.0876L111.33 62.1459C95.9922 53.422 95.2641 41.2822 96.4787 36.2548C97.3132 35.6448 100.272 32.8873 102.103 31.4753C96.5887 46.0249 107.768 55.2765 114.206 58.0876Z" fill="#A49CA7"/>
<circle cx="3" cy="3" r="3" transform="matrix(0.647555 -0.762019 0.761897 0.647698 111.532 32.2836)" fill="black"/>
</svg>
