<svg width="46" height="31" viewBox="0 0 46 31" fill="none" xmlns="http://www.w3.org/2000/svg">
<path d="M4.62247 20.6899L3.39841 18.839L11.5665 18.5153L9.92651 20.5278L12.9505 20.7686L6.27865 26.082L5.6386 24.4725L6.95852 21.6552L4.62247 20.6899Z" fill="#A49CA7"/>
<path d="M14.8783 23.2786L16.6223 20.3003L23.0383 19.2526C24.8623 18.9303 22.7797 22.2843 21.5104 24.0016C19.7248 22.4566 16.345 22.8759 14.8783 23.2786Z" fill="#A49CA7"/>
<path d="M27.7104 21.1833L28.4463 18.1247L31.4143 16.9973C30.7424 20.2168 28.665 21.1294 27.7104 21.1833Z" fill="#A49CA7"/>
<path d="M11.5261 18.5306C16.4861 14.6395 29.1227 7.30733 39.9901 9.10795C37.3102 12.5962 27.8655 19.3643 11.5261 18.5306Z" fill="#C2BDC5"/>
<path d="M39.4061 8.86664C32.251 16.4015 17.3075 18.3416 11.5261 18.5306L10.3102 20.382C29.0239 20.3138 38.8329 13.5617 41.3181 9.99304L40.9981 9.18826L39.4061 8.86664Z" fill="#B3ADB6"/>
<ellipse cx="0.768833" cy="0.734054" rx="0.768833" ry="0.734054" transform="matrix(0.934829 -0.355099 0.369512 0.929226 36.201 10.3035)" fill="#202020"/>
<path d="M19.678 10.8024L21.486 12.8946L26.414 10.5595C25.774 8.94995 23.3846 7.85048 22.2699 7.50194L19.678 10.8024Z" fill="#B3ADB6"/>
<path fill-rule="evenodd" clip-rule="evenodd" d="M22.3822 6.99523C22.2025 6.96746 22.0228 7.03757 21.912 7.17864L21.8989 7.19534L19.32 10.4791C19.1744 10.6645 19.1818 10.9273 19.3378 11.1078L20.592 12.5591C16.9483 14.2655 14.0736 16.1217 12.0221 17.7222L3.35636 18.3429C3.21602 18.3529 3.08705 18.4208 3.00085 18.5301C2.91465 18.6393 2.87914 18.7799 2.90296 18.9175C3.05607 19.8022 4.02782 21.236 6.42152 21.8194C6.12381 22.2123 5.83388 22.6928 5.63313 23.2254C5.28759 24.1422 5.19116 25.2644 5.8499 26.3368C5.92496 26.459 6.04895 26.5442 6.1905 26.5707C6.33206 26.5972 6.47763 26.5626 6.5904 26.4756L13.5771 21.0854C14.2998 21.046 15.0066 20.9958 15.6977 20.9358L14.483 23.0102C14.3812 23.184 14.3964 23.4026 14.5214 23.5636C14.6464 23.7245 14.8564 23.7958 15.053 23.744C15.6705 23.5814 16.7474 23.4145 17.9209 23.4598C19.0989 23.5053 20.3197 23.7624 21.2732 24.3978C21.4782 24.5345 21.7513 24.5054 21.9188 24.3291C22.2911 23.937 22.835 23.2425 23.2933 22.4008C23.7334 21.5924 24.116 20.6093 24.1614 19.6038C25.4832 19.2958 26.7123 18.9587 27.8487 18.6074L27.2616 21.0476C27.2275 21.1894 27.2582 21.3395 27.3458 21.4582C27.4333 21.5769 27.5686 21.652 27.7159 21.6638C28.244 21.7058 28.9632 21.4353 29.6924 20.7653C30.4348 20.0832 31.2294 18.9534 31.9239 17.165L31.9084 17.159C33.5645 16.4837 34.8972 15.8293 35.906 15.2934C36.5593 14.9463 37.0759 14.6493 37.4536 14.4304L37.5638 14.3665C37.703 14.2857 37.8173 14.2194 37.9106 14.1668C37.9686 14.1342 38.0145 14.1091 38.0502 14.0907C38.0861 14.0721 38.1015 14.0656 38.1031 14.065L38.1032 14.0649C38.1478 14.048 38.1897 14.0248 38.2275 13.996C40.1895 12.5046 41.189 11.4038 41.6068 10.597C41.8167 10.1918 41.9084 9.80554 41.8382 9.45776C41.7629 9.0854 41.5169 8.83388 41.2275 8.71431C39.962 8.19137 38.3174 8.05215 36.8206 8.07286C35.3116 8.09374 33.8896 8.27867 33.0322 8.44501L33.0322 8.44496L33.0253 8.4464C30.8023 8.91003 28.718 9.47714 26.7769 10.1133C25.4416 7.97002 23.3423 7.14364 22.3822 6.99523ZM12.4563 18.6893L12.4132 18.6924C11.735 19.2319 11.1595 19.7359 10.6892 20.1865C19.0829 20.0795 25.5186 18.4736 29.9958 16.8277C30.6884 16.573 31.3343 16.3174 31.9335 16.0661C31.4741 15.1438 31.168 13.7906 31.3977 12.4098C31.568 11.3869 32.0314 10.3582 32.9231 9.48759C23.1962 11.573 16.2419 15.6573 12.4539 18.6601L12.4563 18.6893ZM35.1681 9.15713C33.3496 10.0199 32.5991 11.3234 32.3896 12.5823C32.193 13.764 32.4714 14.9257 32.8515 15.6689C33.8686 15.2152 34.7256 14.7861 35.4227 14.4157C36.06 14.0772 36.5645 13.7873 36.9382 13.5706L37.0446 13.5089C37.1846 13.4276 37.3065 13.3569 37.4061 13.3008C37.4906 13.2532 37.5786 13.2048 37.6569 13.1685C39.5589 11.7171 40.4 10.7362 40.7112 10.1353C40.8671 9.83417 40.861 9.68414 40.8525 9.64208C40.8508 9.6335 40.8506 9.63109 40.8506 9.63072C40.8505 9.63035 40.8506 9.63217 40.8492 9.63161C39.7787 9.18922 38.3019 9.04738 36.8461 9.06753C36.263 9.0756 35.6932 9.10941 35.1681 9.15713ZM4.12009 19.2864L10.6988 18.8152C10.0402 19.3939 9.5137 19.9169 9.12268 20.3588C8.99335 20.505 8.96335 20.7135 9.04598 20.8919C9.12862 21.0702 9.30859 21.1854 9.50602 21.1862C10.3002 21.1896 11.078 21.1797 11.8394 21.1577L6.46783 25.3019C6.29118 24.7298 6.36479 24.1413 6.57545 23.5824C6.85454 22.8419 7.35846 22.206 7.73044 21.8569C7.87038 21.7256 7.92056 21.5255 7.85938 21.3427C7.79821 21.1598 7.63659 21.027 7.44411 21.0013C5.44135 20.7336 4.50576 19.894 4.12009 19.2864ZM23.1331 19.8334C21.2435 20.2368 19.1775 20.5775 16.9352 20.8162L15.9107 22.5658C16.5093 22.4849 17.2119 22.4374 17.9487 22.4658C19.089 22.5099 20.3548 22.7375 21.4473 23.343C21.7389 22.9909 22.0947 22.4951 22.4071 21.9212C22.7631 21.2675 23.0462 20.5426 23.1331 19.8334ZM28.4397 20.4566L28.9716 18.2461C29.4513 18.0857 29.9125 17.9234 30.3552 17.7606C30.4431 17.7283 30.5303 17.696 30.6167 17.6637C30.0672 18.8382 29.4965 19.5802 29.0039 20.0328C28.7957 20.2241 28.6057 20.3604 28.4397 20.4566ZM25.8023 10.4425C24.7819 8.93148 23.3247 8.24954 22.5175 8.03763L20.3666 10.7764L21.5351 12.1286C22.8636 11.5378 24.2868 10.9699 25.8023 10.4425Z" fill="#202020"/>
</svg>
