<svg width="80" height="80" viewBox="0 0 80 80" fill="none" xmlns="http://www.w3.org/2000/svg">
<path d="M80 40C80 62.0914 62.0914 80 40 80C17.9086 80 0 62.0914 0 40C0 17.9086 17.9086 0 40 0C62.0914 0 80 17.9086 80 40Z" fill="#CD8032"/>
<path d="M49.0566 45.1554C48.5631 45.1331 49.188 42.0187 49.5621 40.4642L53.0905 38.2433C51.8625 44.1153 49.207 45.0689 49.0566 45.1554Z" fill="#A49CA7"/>
<path d="M15.2047 50.1971L25.1171 47.2945L26.8253 50.264L20.0024 57.3174C19.1268 58.4797 18.7041 58.0093 18.6022 57.6288C17.8854 55.4064 19.2675 53.2941 20.0482 52.5157L19.9058 52.2682C18.3235 53.1784 15.8697 52.065 14.8406 51.3945C13.9632 50.8454 14.7178 50.3674 15.2047 50.1971Z" fill="#A49CA7"/>
<path d="M34.5287 50.078C34.9054 49.267 35.6686 47.6047 35.7079 47.4431C38.2835 46.2851 43.4603 43.9525 43.5624 43.8864C43.6955 44.7527 42.8178 47.8274 42.3623 49.2564C42.1656 50.0642 41.377 50.0647 41.0073 49.9639C39.602 49.3774 36.554 50.297 35.2057 50.8302C34.2632 51.1685 34.3617 50.4697 34.5287 50.078Z" fill="#A49CA7"/>
<path d="M38.3445 33.6619L40.3253 34.7181L46.7318 30.8499C45.6563 28.9803 42.4803 28.2335 41.0268 28.0938C40.3473 27.9357 40.1316 28.2428 40.0633 28.465L37.9491 32.9745C37.8398 33.3301 38.1671 33.5809 38.3445 33.6619Z" fill="#A49CA7"/>
<path d="M55.0124 27.1678C37.4005 33.5882 27.6531 44.0651 24.4994 48.1981L23.7094 49.2354L22.9995 50.2204C21.6201 52.3697 24.5252 51.2108 26.2403 50.8685C34.8815 48.7965 48.3697 41.6175 48.6776 41.4405C62.0691 33.7373 64.3803 29.1257 64.7264 26.6046C65.0908 23.9504 58.5511 25.8408 55.0124 27.1678Z" fill="#C2BDC5"/>
<path d="M48.6776 41.4404C62.0691 33.7373 64.3788 29.123 64.7239 26.6001C64.8777 25.4751 63.7931 25.1655 62.2226 25.2831C55.8215 36.6628 34.2034 45.5443 24.1944 48.5625L22.9968 50.2156C21.618 52.366 24.5234 51.2075 26.2387 50.8657C34.8813 48.796 48.3697 41.6175 48.6776 41.4404Z" fill="#B3ADB6"/>
<path d="M55.9095 36.8715L54.4729 37.8539C50.6244 33.393 51.9142 29.4359 52.937 27.9626C53.2826 27.8589 54.5827 27.3011 55.35 27.0499C51.7456 31.0953 54.1872 35.2708 55.9095 36.8715Z" fill="#A49CA7"/>
<ellipse cx="1.05" cy="1" rx="1.05" ry="1" transform="matrix(0.86977 -0.493457 0.492756 0.870167 58.288 28.3375)" fill="black"/>
</svg>
