<svg width="25" height="25" viewBox="0 0 25 25" fill="none" xmlns="http://www.w3.org/2000/svg">
<path d="M14.9039 13.4615C13.1731 14.6154 10.3366 13.9423 9.13463 13.4615C10.5769 15.625 10.0962 18.2692 9.13463 19.2308H14.9039C13.4616 17.0673 14.1827 14.4231 14.9039 13.4615Z" fill="#FFCC00"/>
<path fill-rule="evenodd" clip-rule="evenodd" d="M8.76124 13.1586C8.89393 12.9951 9.1176 12.9369 9.31313 13.0152C9.87519 13.24 10.8373 13.5154 11.8584 13.5952C12.8896 13.6759 13.9026 13.5512 14.6371 13.0615C14.832 12.9316 15.0921 12.961 15.2531 13.1311C15.414 13.3013 15.4289 13.5626 15.2884 13.75C14.992 14.1452 14.6556 14.956 14.5715 15.9365C14.4885 16.9053 14.656 17.9924 15.3038 18.9641C15.4022 19.1116 15.4114 19.3013 15.3277 19.4576C15.244 19.614 15.0811 19.7115 14.9038 19.7115H9.13458C8.94012 19.7115 8.76482 19.5944 8.6904 19.4148C8.61599 19.2351 8.65712 19.0283 8.79462 18.8908C9.16534 18.5201 9.50016 17.7472 9.55603 16.7694C9.61093 15.8088 9.39097 14.7128 8.73455 13.7282C8.61774 13.553 8.62856 13.3222 8.76124 13.1586ZM10.1015 14.2728C10.4467 15.1368 10.5619 16.0214 10.516 16.8243C10.4755 17.5326 10.3076 18.203 10.0414 18.75H14.0877C13.6422 17.7725 13.5362 16.7559 13.6135 15.8544C13.6581 15.3345 13.7645 14.8426 13.9081 14.4081C13.2083 14.585 12.4678 14.6074 11.7834 14.5538C11.1853 14.507 10.6077 14.4006 10.1015 14.2728Z" fill="#202020"/>
<path fill-rule="evenodd" clip-rule="evenodd" d="M23.0922 4.32693H19.7115V3.36539H23.5577C23.8077 3.36539 24.016 3.55705 24.0368 3.80623C24.124 4.85244 23.8931 6.37313 23.1661 7.60075C22.4213 8.85837 21.1334 9.82975 19.1777 9.61245L19.2838 8.65679C20.7897 8.8241 21.7453 8.11278 22.3387 7.11079C22.8543 6.24019 23.0785 5.16758 23.0922 4.32693Z" fill="#202020"/>
<path fill-rule="evenodd" clip-rule="evenodd" d="M0.962669 4.32693H4.3516V3.36539H0.505448C0.255405 3.36539 0.0471041 3.55705 0.0263392 3.80623C-0.0578684 4.81672 0.037841 6.33067 0.637913 7.56586C0.941357 8.19046 1.38388 8.76384 2.01687 9.1511C2.65496 9.54147 3.44779 9.71877 4.40469 9.61245L4.29851 8.65679C3.52464 8.74277 2.95129 8.59555 2.51867 8.33088C2.08094 8.06308 1.74822 7.65089 1.50279 7.14569C1.08055 6.27656 0.947014 5.19282 0.962669 4.32693Z" fill="#202020"/>
<path d="M19.7116 10C19.7116 12.9738 16.2676 15.3846 12.0193 15.3846C7.77091 15.3846 4.32695 12.9738 4.32695 10C4.32695 7.02616 7.77091 4.61539 12.0193 4.61539C16.2676 4.61539 19.7116 7.02616 19.7116 10Z" fill="#FFCC00"/>
<path fill-rule="evenodd" clip-rule="evenodd" d="M16.9544 13.0873C18.1843 12.2264 18.8324 11.1213 18.8324 10C18.8324 8.87869 18.1843 7.77364 16.9544 6.91271C15.7273 6.05372 13.9852 5.49451 12.0193 5.49451C10.0533 5.49451 8.31125 6.05372 7.08412 6.91271C5.85421 7.77364 5.20607 8.87869 5.20607 10C5.20607 11.1213 5.85421 12.2264 7.08412 13.0873C8.31125 13.9463 10.0533 14.5055 12.0193 14.5055C13.9852 14.5055 15.7273 13.9463 16.9544 13.0873ZM12.0193 15.3846C16.2676 15.3846 19.7116 12.9738 19.7116 10C19.7116 7.02616 16.2676 4.61539 12.0193 4.61539C7.77091 4.61539 4.32695 7.02616 4.32695 10C4.32695 12.9738 7.77091 15.3846 12.0193 15.3846Z" fill="#202020"/>
<path d="M4.32693 0H19.7115V10.2564H4.32693V0Z" fill="#FFCC00"/>
<path fill-rule="evenodd" clip-rule="evenodd" d="M19.7115 10.2564V0H4.32693V10.2564H5.20606V0.891862H18.8324V10.2564H19.7115Z" fill="#202020"/>
<path d="M12.0193 2.40384L13.4616 5.76922H16.8269L13.9423 8.17307L14.9039 11.0577L12.0193 9.61538L9.13464 11.5385L9.61541 7.6923L7.21156 5.76922H10.5769L12.0193 2.40384Z" fill="#C87E1A"/>
<path fill-rule="evenodd" clip-rule="evenodd" d="M12.0192 2.05127C12.4052 2.05127 12.7474 2.29736 12.8666 2.66083L13.6668 5.09908H16.2563C16.6424 5.09908 16.9845 5.34516 17.1038 5.70864C17.223 6.07211 17.0924 6.47029 16.7801 6.69493L14.6851 8.20185L15.4853 10.6401C15.6046 11.0036 15.4739 11.4017 15.1616 11.6264C14.8493 11.851 14.4265 11.851 14.1142 11.6264L12.0192 10.1195L9.92428 11.6264C9.61199 11.851 9.18911 11.851 8.87681 11.6264C8.56452 11.4017 8.43384 11.0036 8.55313 10.6401L9.35332 8.20185L7.25838 6.69493C6.94608 6.47029 6.81541 6.07211 6.93469 5.70864C7.05398 5.34516 7.3961 5.09908 7.78212 5.09908H10.3716L11.1718 2.66083C11.2911 2.29736 11.6332 2.05127 12.0192 2.05127ZM11.019 5.98124H7.78212L10.4008 7.86489L9.40055 10.9127L12.0192 9.02905L14.6379 10.9127L13.6377 7.86489L16.2563 5.98124H13.0195L12.0192 2.93343L11.019 5.98124Z" fill="#202020"/>
<path d="M8.1731 19.2308H15.8654V21.1539H8.1731V19.2308Z" fill="#C87E1A"/>
<path fill-rule="evenodd" clip-rule="evenodd" d="M7.21155 19.2308C7.21155 18.6997 7.64204 18.2692 8.17309 18.2692H15.8654C16.3964 18.2692 16.8269 18.6997 16.8269 19.2308V21.1538C16.8269 21.6849 16.3964 22.1154 15.8654 22.1154H8.17309C7.64204 22.1154 7.21155 21.6849 7.21155 21.1538V19.2308ZM8.17309 19.2308V21.1538H15.8654V19.2308H8.17309Z" fill="#202020"/>
<path d="M6.25002 22.1154H17.7885V24.0385H6.25002V22.1154Z" fill="#FFCC00"/>
<path fill-rule="evenodd" clip-rule="evenodd" d="M5.28847 22.1154C5.28847 21.5843 5.71896 21.1538 6.25001 21.1538H17.7885C18.3195 21.1538 18.75 21.5843 18.75 22.1154V24.0385C18.75 24.5695 18.3195 25 17.7885 25H6.25001C5.71896 25 5.28847 24.5695 5.28847 24.0385V22.1154ZM6.25001 22.1154V24.0385H17.7885V22.1154H6.25001Z" fill="#202020"/>
</svg>
