<svg width="51" height="66" viewBox="0 0 51 66" fill="none" xmlns="http://www.w3.org/2000/svg">
<rect x="2.10767" width="3.16159" height="61.9144" rx="1.58079" fill="white"/>
<rect x="44.5256" width="3.16159" height="61.9144" rx="1.58079" fill="white"/>
<rect y="3.07013" width="50.0585" height="2.04676" rx="1.02338" fill="white"/>
<path d="M16.7456 2.14699C17.0783 1.62158 17.6786 1.98862 17.6786 2.51554C17.8119 3.70114 17.8119 4.3598 17.6786 4.88673L15.013 4.49153C14.6131 4.28974 13.596 4.49153 14.123 2.12035C14.5182 1.72514 14.9134 1.98861 15.013 2.12035C15.2902 1.62777 15.7611 1.90143 15.9459 2.12035C16.2232 1.62777 16.5608 1.92807 16.7456 2.14699Z" fill="#3E3E3E"/>
<path d="M18.3384 11.4734C19.3639 14.8728 18.8654 12.7907 19.6558 16.4792L16.8619 17.9157L16.099 15.1619C15.7477 14.2717 15.0978 11.5236 14.7816 7.6531L14.8818 5.94534C13.6172 5.10225 13.5645 3.70588 13.828 3.31068C15.0926 2.04604 15.6722 2.34464 15.804 2.65201C16.0147 2.96817 15.4527 3.22286 15.1453 3.31068L15.9357 4.10107H17.7771C17.9089 5.55014 17.3408 6.16482 16.9896 6.47217C17.0405 7.01679 17.3848 8.31177 18.3384 11.4734Z" fill="white"/>
<path d="M16.8234 4.09631C17.1659 4.36754 17.537 4.20932 17.6797 4.09631V3.70111L15.1768 3.30591C15.1768 3.70111 15.7915 4.19014 15.9672 4.09631C16.1955 4.36754 16.6331 4.20932 16.8234 4.09631Z" fill="#3E3E3E"/>
<path d="M25.5841 11.856C23.1878 11.856 22.8011 14.4553 22.9074 15.755C22.3465 16.2501 22.8436 16.7864 23.1623 16.9927C23.3662 17.2403 23.3747 18.4162 23.3535 18.9732H27.4961V17.8592C27.4961 17.6116 27.7085 17.2609 27.8148 17.1165C28.7835 17.067 28.5583 15.9819 28.3246 15.4455C28.3246 12.7224 26.4976 11.9178 25.5841 11.856Z" fill="white"/>
<path d="M20.2305 34.0741H30.1091C30.1091 34.6682 30.4915 35.7245 30.6827 36.1783C31.0013 36.7353 31.3412 39.1284 31.3837 40.4487C31.2308 40.7952 31.7024 43.9351 31.9573 45.4617C32.009 45.7711 32.021 45.9774 31.9573 46.0806C31.2945 46.6747 27.6023 46.5757 25.839 46.4519C25.89 45.7587 25.6053 44.4714 25.4566 43.9144C25.3036 43.9144 25.0105 45.7711 24.883 46.6994C22.0788 48.0362 19.4658 47.0914 18.5098 46.4519C18.9686 45.7092 18.9134 44.5746 18.8284 44.1001C18.9304 43.5555 18.7859 41.4389 18.701 40.4487C18.5098 39.706 19.9119 35.6213 19.9119 35.4357C19.6569 34.4949 20.0181 34.136 20.2305 34.0741Z" fill="white"/>
<path d="M23.9269 56.7255C22.4483 55.6362 21.5263 52.352 21.2502 50.846C20.889 50.4128 20.2304 49.3731 20.4854 48.6799C20.5279 48.3292 20.5236 47.504 20.4216 47.2565C21.2502 47.3802 23.0347 47.504 24.2456 47.0089L24.1181 49.7939C24.458 50.4334 25.1761 51.7372 25.329 51.8362C25.7964 51.238 26.7566 50.0415 26.8586 50.0415C26.9861 50.0415 26.7311 46.5757 26.8586 46.5138H28.9618L31.1287 46.39C30.8738 47.0089 30.6188 48.1848 30.6188 49.0512C30.6698 49.2988 30.2577 49.8145 30.0452 50.0415C30.759 51.2297 28.0908 54.8275 26.6674 56.4779C26.7694 56.5274 27.2622 58.2314 27.4959 59.0772C27.9038 59.1763 28.2607 60.2325 28.3882 60.7483C28.949 60.7483 29.2167 61.3671 29.2804 61.6766C30.4531 62.4193 30.6613 63.2238 30.6188 63.5333C30.2109 63.6323 28.8343 64.5235 28.197 64.9567C25.6987 66.343 24.1818 65.9469 23.7357 65.5756C23.4808 65.4271 24.2243 64.4822 24.628 64.0284C22.8944 62.9886 22.2486 62.1923 22.1424 61.9241C22.2954 61.6766 21.9087 61.1608 21.6963 60.9339C21.0335 60.3398 21.845 59.5724 22.3336 59.2629C22.5375 59.0649 23.4808 57.4888 23.9269 56.7255Z" fill="white"/>
<path d="M28.549 18.9621C28.2224 19.633 27.6901 19.0933 27.4989 18.9695H23.3552C23.1236 19.5087 22.6896 19.3695 22.4893 19.26C22.3576 18.4257 21.209 17.257 19.9864 15.835L16.7932 17.721C17.257 20.6821 17.784 21.6042 18.4056 24.0989C18.6574 25.8974 18.8378 27.7956 19.9864 30.2986C19.8917 31.3524 20.1394 32.8352 20.1819 34.0729H30.1082L30.0815 33.4601L30.2986 30.0351C30.8522 28.6507 31.5352 25.7115 31.7476 24.3706C32.2746 23.3167 32.6666 22.2691 32.9332 21.7359C34.1188 19.3647 34.2912 18.8519 34.2506 17.721L31.0519 16.2348C29.3764 17.5205 28.7913 18.4643 28.549 18.9621Z" fill="white"/>
<path d="M34.3943 2.13436C34.0616 1.60894 33.4613 1.97598 33.4613 2.50291C33.328 3.6885 33.328 4.34716 33.4613 4.87409L36.1269 4.4789C36.5268 4.2771 37.5438 4.4789 37.0169 2.10772C36.6217 1.71251 36.2265 1.97597 36.1269 2.10771C35.8497 1.61514 35.3788 1.88879 35.1939 2.10772C34.9167 1.61514 34.5791 1.91543 34.3943 2.13436Z" fill="#3E3E3E"/>
<path d="M32.8015 11.4608C31.776 14.8603 32.2745 12.7781 31.4841 16.4666L34.2505 17.721L35.0409 15.1493C35.3922 14.2591 36.0421 11.511 36.3582 7.64053L36.2581 5.93276C37.5227 5.08967 37.5754 3.6933 37.3119 3.2981C36.0473 2.03347 35.4677 2.33206 35.3359 2.63944C35.1252 2.9556 35.6872 3.21028 35.9946 3.2981L35.2042 4.0885H33.3627C33.231 5.53756 33.799 6.15225 34.1503 6.4596C34.0993 7.00422 33.7551 8.29919 32.8015 11.4608Z" fill="white"/>
<path d="M34.3165 4.08373C33.974 4.35496 33.6029 4.19674 33.4602 4.08373V3.68853L35.9631 3.29333C35.9631 3.68853 35.3484 4.17756 35.1727 4.08373C34.9444 4.35496 34.5067 4.19674 34.3165 4.08373Z" fill="#3E3E3E"/>
</svg>
