<svg width="190" height="251" viewBox="0 0 190 251" fill="none" xmlns="http://www.w3.org/2000/svg">
<rect x="7.99999" width="12" height="235" rx="2" fill="#D9D9D9"/>
<rect x="169" width="12" height="235" rx="2" fill="#D9D9D9"/>
<rect y="11.653" width="190" height="7.7686" rx="3" fill="#CACACA"/>
<path d="M63.5587 8.14889C64.8213 6.15464 67.0998 7.54776 67.0998 9.54775C67.6056 14.0477 67.6057 16.5477 67.0998 18.5477L56.9822 17.0477C55.4646 16.2818 51.6042 17.0477 53.6042 8.04777C55.1042 6.54773 56.6042 7.54773 56.9822 8.04776C58.0344 6.17816 59.8219 7.21683 60.5234 8.04777C61.5756 6.17817 62.8572 7.31795 63.5587 8.14889Z" fill="#DAC1B4"/>
<path d="M69.6042 43.5477C73.4963 56.4506 71.6042 48.5477 74.6042 62.5477L64 68L61.1042 57.5477C59.7709 54.1689 57.3042 43.7384 56.1042 29.0477L56.4844 22.5658C51.6844 19.3658 51.4844 14.0658 52.4844 12.5658C57.2844 7.76579 59.4844 8.89912 59.9844 10.0658C60.7844 11.2658 58.6511 12.2325 57.4844 12.5658L60.4844 15.5658H67.4738C67.9738 21.0658 65.8178 23.3989 64.4844 24.5654C64.678 26.6326 65.9844 31.5477 69.6042 43.5477Z" fill="#E4CBBE"/>
<path d="M63.8542 15.5477C65.1542 16.5772 66.5625 15.9767 67.1042 15.5477V14.0477L57.6042 12.5477C57.6042 14.0477 59.9375 15.9039 60.6042 15.5477C61.4709 16.5772 63.132 15.9767 63.8542 15.5477Z" fill="#DAC1B4"/>
<path d="M97.1062 45C88.0108 45 86.5432 54.8659 86.9464 59.7989C84.8177 61.6781 86.7045 63.714 87.914 64.497C88.6881 65.4366 88.7203 69.8997 88.6397 72.0139H104.363V67.7856C104.363 66.846 105.17 65.5149 105.573 64.9668C109.25 64.7789 108.395 60.6602 107.508 58.6244C107.508 48.2886 100.573 45.2349 97.1062 45Z" fill="#E4CBBE"/>
<path d="M76.7866 129.33H114.281C114.281 131.585 115.733 135.594 116.458 137.317C117.668 139.431 118.958 148.514 119.119 153.525C118.539 154.841 120.329 166.758 121.296 172.553C121.492 173.727 121.538 174.51 121.296 174.902C118.78 177.157 104.766 176.781 98.0738 176.311C98.2673 173.68 97.1868 168.794 96.6224 166.68C96.0418 166.68 94.9291 173.727 94.4453 177.251C83.8017 182.325 73.8838 178.738 70.2552 176.311C71.9969 173.492 71.7873 169.186 71.4648 167.385C71.8518 165.318 71.3035 157.284 70.9809 153.525C70.2552 150.707 75.5771 135.203 75.5771 134.498C74.6095 130.928 75.9802 129.565 76.7866 129.33Z" fill="#639A60"/>
<path d="M90.8168 215.305C85.2047 211.171 81.7052 198.705 80.657 192.989C79.2862 191.345 76.7866 187.399 77.7542 184.768C77.9154 183.437 77.8993 180.304 77.5123 179.365C80.657 179.835 87.4302 180.304 92.0263 178.425L91.5425 188.996C92.8326 191.423 95.558 196.372 96.1386 196.748C97.9125 194.477 101.557 189.935 101.944 189.935C102.428 189.935 101.46 176.781 101.944 176.546H109.927L118.152 176.076C117.184 178.425 116.216 182.888 116.216 186.177C116.41 187.117 114.846 189.074 114.039 189.935C116.749 194.446 106.621 208.101 101.219 214.365C101.606 214.553 103.476 221.021 104.363 224.231C105.911 224.607 107.266 228.616 107.75 230.574C109.879 230.574 110.895 232.923 111.136 234.097C115.587 236.916 116.378 239.97 116.216 241.144C114.668 241.52 109.443 244.903 107.024 246.547C97.5416 251.809 91.7844 250.306 90.0911 248.896C89.1235 248.332 91.9457 244.746 93.4777 243.024C86.898 239.077 84.4467 236.055 84.0436 235.037C84.6241 234.097 83.1566 232.14 82.3503 231.278C79.8345 229.023 82.9147 226.111 84.7693 224.936C85.5434 224.184 89.1235 218.202 90.8168 215.305Z" fill="#E4CBBE"/>
<path d="M108.359 71.9717C107.12 74.518 105.099 72.4698 104.374 72H88.646C87.7668 74.0464 86.1198 73.518 85.3594 73.1025C84.8594 69.9359 80.5 65.5 75.8594 60.1025L63.7396 67.2612C65.5 78.5 67.5 82 69.8594 91.4687C70.8153 98.2952 71.5 105.5 75.8594 115C75.5 119 76.4401 124.628 76.6014 129.326H114.277L114.176 127L115 114C117.101 108.746 119.694 97.5896 120.5 92.5C122.5 88.5 123.988 84.5238 125 82.5C129.5 73.5 130.154 71.5536 130 67.2612L117.859 61.6203C111.5 66.5 109.279 70.0822 108.359 71.9717Z" fill="#C76B42"/>
<path d="M130.546 8.10116C129.283 6.10691 127.004 7.50003 127.004 9.50002C126.499 14 126.499 16.5 127.004 18.5L137.122 17C138.64 16.2341 142.5 17 140.5 8.00004C139 6.5 137.5 7.5 137.122 8.00003C136.07 6.13043 134.282 7.1691 133.581 8.00004C132.529 6.13044 131.247 7.27022 130.546 8.10116Z" fill="#DAC1B4"/>
<path d="M124.5 43.5C120.608 56.4029 122.5 48.5 119.5 62.5L130 67.2612L133 57.5C134.333 54.1211 136.8 43.6907 138 29L137.62 22.5181C142.42 19.3181 142.62 14.0181 141.62 12.5181C136.82 7.71806 134.62 8.85139 134.12 10.0181C133.32 11.2181 135.453 12.1847 136.62 12.5181L133.62 15.5181H126.63C126.13 21.0181 128.286 23.3512 129.62 24.5177C129.426 26.5848 128.12 31.5 124.5 43.5Z" fill="#E4CBBE"/>
<path d="M130.25 15.5C128.95 16.5295 127.542 15.9289 127 15.5V14L136.5 12.5C136.5 14 134.167 15.8561 133.5 15.5C132.633 16.5295 130.972 15.9289 130.25 15.5Z" fill="#DAC1B4"/>
</svg>
