<svg width="46" height="38" viewBox="0 0 46 38" fill="none" xmlns="http://www.w3.org/2000/svg">
<path d="M20.9895 8.96573L21.5051 12.5167L29.9542 9.41527L25.2462 6.95509L22.1434 7.22836L20.9895 8.96573Z" fill="#9EA6BF"/>
<path d="M10.7922 16.1329L11.1505 20.4882L17.3429 15.6513C15.7282 15.1945 12.4568 14.2969 12.2884 14.3603C11.7706 14.9008 10.7466 16.0119 10.7922 16.1329Z" fill="#9EA6BF"/>
<path d="M5.77232 20.2345L10.3509 22.2578C8.38785 25.9957 11.222 27.5953 12.8844 27.9279L10.6606 33.2109C3.22592 29.178 4.30396 22.8796 5.77232 20.2345Z" fill="#9EA6BF"/>
<path d="M41.1051 12.0678C30.9241 16.4682 10.4192 25.323 9.84718 25.5385C8.4425 21.1161 17.3574 15.2764 21.9904 12.9093C33.8011 6.28963 39.6546 9.59007 41.1051 12.0678Z" fill="#8690AF"/>
<path d="M26.1017 29.9968C23.6336 32.206 21.7327 28.9209 21.0908 27.0021L28.2982 24.8763C28.2647 26.5051 26.8199 28.9686 26.1017 29.9968Z" fill="#9EA6BF"/>
<path d="M41.2885 12.5546L10.0781 25.8444C10.1062 29.9212 22.528 26.7745 28.7355 24.6916C40.1815 20.448 41.8733 14.8321 41.2885 12.5546Z" fill="#B6BCCF"/>
<path fill-rule="evenodd" clip-rule="evenodd" d="M32.033 9.76728C28.7929 10.1954 25.6168 11.578 23.5323 12.6587C17.3782 15.8495 13.9258 18.752 12.1026 21.0516C11.1916 22.2006 10.6968 23.1871 10.4676 23.9721C10.2366 24.7631 10.2834 25.3167 10.4028 25.6337C10.6832 26.3779 11.4986 26.8953 12.959 27.108C14.3872 27.316 16.2468 27.1998 18.2865 26.8753C22.3506 26.2286 26.9894 24.7788 30.0267 23.6356C35.5487 21.1361 38.4347 18.6594 39.8205 16.6302C41.1737 14.6489 41.0669 13.1579 40.7129 12.4315C38.4343 9.86948 35.2555 9.34146 32.033 9.76728ZM31.8596 8.7179C35.2503 8.26987 38.8579 8.7987 41.4725 11.7856L41.5154 11.8346L41.5463 11.8925C42.1834 13.0873 42.1614 15.0489 40.6381 17.2792C39.1134 19.5117 36.0531 22.0806 30.4438 24.6177L30.4304 24.6237L30.4166 24.6289C27.3471 25.7852 22.6372 27.2603 18.484 27.9211C16.4119 28.2508 14.443 28.384 12.874 28.1554C11.3371 27.9316 9.98643 27.3265 9.47974 25.9814C9.24708 25.3638 9.2405 24.5488 9.51405 23.6121C9.78939 22.6693 10.3572 21.5688 11.326 20.3469C13.2625 17.9044 16.839 14.9284 23.0578 11.704C25.179 10.6042 28.465 9.16647 31.8596 8.7179Z" fill="#202020"/>
<path fill-rule="evenodd" clip-rule="evenodd" d="M41.3196 12.6373L10.0705 26.0243L9.62799 24.9567L40.8772 11.5697L41.3196 12.6373Z" fill="#202020"/>
<path fill-rule="evenodd" clip-rule="evenodd" d="M29.8451 10.0263C25.7402 6.98914 23.0026 7.38593 22.274 7.79882L22.2354 7.82069L22.1934 7.83472C21.9335 7.92156 21.7564 8.11497 21.6406 8.43485C21.5191 8.7704 21.4752 9.22592 21.502 9.7622C21.5555 10.8325 21.8812 12.0578 22.1698 12.8589L21.2265 13.1956C20.9143 12.3289 20.5509 10.9818 20.4895 9.75496C20.4589 9.14264 20.5011 8.51837 20.6922 7.99042C20.8842 7.45987 21.2335 7.01488 21.797 6.81103C22.9976 6.16487 26.1374 6.00098 30.3867 9.14498L29.8451 10.0263Z" fill="#202020"/>
<path fill-rule="evenodd" clip-rule="evenodd" d="M17.1422 15.866C13.702 13.9398 12.1396 14.8471 11.8671 15.1926L11.8559 15.2067L11.8438 15.22C11.7069 15.3699 11.5942 15.6343 11.5359 16.0358C11.4789 16.4292 11.4819 16.9007 11.5283 17.4044C11.6212 18.4115 11.8801 19.4712 12.0901 20.1342L11.1309 20.436C10.9046 19.7217 10.6263 18.5871 10.5249 17.4879C10.4743 16.9385 10.466 16.3788 10.5389 15.8761C10.6097 15.3876 10.7653 14.8971 11.0884 14.5355C11.8341 13.6121 14.0413 12.9689 17.622 14.9738L17.1422 15.866Z" fill="#202020"/>
<path fill-rule="evenodd" clip-rule="evenodd" d="M22.0171 29.4656C21.3086 28.5476 20.7481 27.4537 20.4441 26.7205L21.3289 26.3426C21.602 27.0013 22.1112 27.9912 22.7361 28.801C23.3844 29.641 24.0362 30.1329 24.604 30.1217L24.6213 30.1214L24.6387 30.1224C24.8577 30.1354 25.4184 29.9745 26.0547 29.1225C26.6811 28.2837 27.3489 26.8099 27.7766 24.3328L28.741 24.6333C28.294 27.2225 27.5794 28.8654 26.8332 29.8646C26.104 30.8409 25.3103 31.2407 24.6961 31.2129C23.6381 31.2243 22.6988 30.3489 22.0171 29.4656Z" fill="#202020"/>
<path fill-rule="evenodd" clip-rule="evenodd" d="M5.3749 19.9184C5.49979 19.7188 5.7437 19.6435 5.96162 19.7372L10.7737 21.8061L10.4344 22.7674L6.00817 20.8644C5.36376 22.0671 4.86654 23.9197 5.27176 25.9337C5.69435 28.034 7.11752 30.4021 10.5823 32.4372L12.5957 27.6918L13.5027 28.1507L11.2812 33.3867C11.2274 33.5135 11.1259 33.6095 11 33.6528C10.8742 33.6961 10.7347 33.6829 10.6136 33.6162C6.59855 31.406 4.8214 28.6789 4.30365 26.1056C3.79164 23.5609 4.53186 21.2654 5.3749 19.9184Z" fill="#202020"/>
<path d="M21.2327 18.9698L20.4172 20.9756L22.2299 23.1535C23.0497 22.6957 24.6979 21.7589 24.7323 21.6745L26.3525 18.2928L24.7086 17.6604L21.2327 18.9698Z" fill="#9EA6BF"/>
<path fill-rule="evenodd" clip-rule="evenodd" d="M20.97 20.9736C21.112 21.7579 21.4518 22.1775 21.7716 22.3751C22.1105 22.5844 22.4713 22.5777 22.715 22.4482L22.9477 22.8996L22.715 22.4482C24.7621 21.3603 25.5313 19.5788 25.735 18.5169C23.8477 18.4197 22.6797 18.8298 21.9817 19.3416C21.2492 19.8787 21.001 20.5493 20.97 20.9736ZM21.4037 18.5095C22.3976 17.7807 23.9602 17.3276 26.3075 17.5487C26.5706 17.5735 26.7738 17.8111 26.7657 18.0843C26.7306 19.2765 25.9468 21.8808 23.1804 23.3509C22.6306 23.6431 21.9142 23.6207 21.2962 23.2389C20.6666 22.8499 20.1785 22.1177 20.0028 21.0572C19.997 21.0225 19.9948 20.9875 19.996 20.9526C20.0217 20.2157 20.4119 19.2367 21.4037 18.5095Z" fill="black"/>
<path d="M34.2657 12.3505C34.4734 12.9018 34.2228 13.5065 33.7059 13.7012C33.1891 13.8959 32.6018 13.6068 32.3941 13.0555C32.1864 12.5042 32.4371 11.8995 32.9539 11.7048C33.4707 11.5101 34.0581 11.7992 34.2657 12.3505Z" fill="#202020"/>
</svg>
