<svg width="80" height="80" viewBox="0 0 80 80" fill="none" xmlns="http://www.w3.org/2000/svg">
<path d="M80 40C80 62.0914 62.0914 80 40 80C17.9086 80 0 62.0914 0 40C0 17.9086 17.9086 0 40 0C62.0914 0 80 17.9086 80 40Z" fill="#FED700"/>
<path d="M39.5583 23.7683C37.2616 24.3825 38.3698 29.0859 39.211 31.3608L49.6289 25.8891C44.246 22.5994 40.6723 23.1045 39.5583 23.7683Z" fill="#9EA6BF"/>
<path d="M27.3899 34.2484C24.6662 35.7284 26.2953 40.0314 27.4504 41.9979L34.4803 34.9878C30.6908 33.1544 28.1744 33.7309 27.3899 34.2484Z" fill="#9EA6BF"/>
<path d="M47.1813 51.973C44.3947 53.6162 41.4927 49.8222 40.39 47.7198L50.6821 43.4873C50.5178 47.0765 48.2798 50.64 47.1813 51.973Z" fill="#9EA6BF"/>
<path d="M17.9556 42.4681L24.7789 44.5094L28.2752 51.2403L25.5747 58.8635C19.9904 57.5566 17.1423 51.6762 16.4163 48.8994C15.6393 45.3224 17.1187 43.1214 17.9556 42.4681Z" fill="#9EA6BF"/>
<path d="M35.3417 33.3068C24.3111 41.5863 22.4583 47.3116 22.9753 49.6178C25.5092 53.4964 35.5876 50.6098 40.31 48.6817C61.8821 41.2995 64.7716 31.0566 64.9444 30.3036C65.1654 25.472 60.5065 25.0052 57.0397 24.6852C48.7068 24.1933 39.1023 30.2279 35.3417 33.3068Z" fill="#8690AF"/>
<path d="M40.31 48.6818C61.8821 41.2996 64.506 31.6006 64.9444 30.3037C65.1359 29.7372 64.9023 28.3817 64.5385 27.8671L22.9754 49.6179C25.5093 53.4965 35.5876 50.61 40.31 48.6818Z" fill="#B6BCCF"/>
<path d="M49.7654 34.9805C45.3957 34.5051 41.8492 37.3547 41.955 39.6325C42.4364 41.9109 44.5914 42.0168 45.6087 41.785C48.054 41.0337 49.6774 37.0207 49.7654 34.9805Z" fill="#9EA6BF"/>
<circle cx="55.7121" cy="28.5665" r="1.38294" transform="rotate(-23.9454 55.7121 28.5665)" fill="black"/>
</svg>
