<svg width="38" height="30" viewBox="0 0 38 30" fill="none" xmlns="http://www.w3.org/2000/svg">
<path d="M18.3514 5.63131C16.9375 6.00943 17.6197 8.90473 18.1375 10.3051L24.5506 6.93682C21.237 4.91178 19.0371 5.22271 18.3514 5.63131Z" fill="#9EA6BF"/>
<path d="M10.8607 12.0826C9.18404 12.9937 10.1869 15.6426 10.8979 16.8531L15.2254 12.5378C12.8927 11.4092 11.3437 11.7641 10.8607 12.0826Z" fill="#9EA6BF"/>
<path d="M23.0439 22.9937C21.3286 24.0052 19.5421 21.6696 18.8633 20.3754L25.1989 17.77C25.0978 19.9794 23.7201 22.173 23.0439 22.9937Z" fill="#9EA6BF"/>
<path d="M5.05313 17.1425L9.25344 18.3992L11.4057 22.5426L9.74331 27.2352C6.30574 26.4308 4.55251 22.8109 4.10558 21.1015C3.62727 18.8996 4.53798 17.5447 5.05313 17.1425Z" fill="#9EA6BF"/>
<path d="M15.7557 11.503C8.96548 16.5998 7.82493 20.1242 8.14318 21.5438C9.703 23.9314 15.907 22.1545 18.8141 20.9676C32.0935 16.4232 33.8722 10.1179 33.9786 9.65436C34.1146 6.68012 31.2467 6.39278 29.1126 6.19579C23.983 5.89297 18.0707 9.60778 15.7557 11.503Z" fill="#8690AF"/>
<path d="M18.8141 20.9676C32.0935 16.4232 33.7087 10.4527 33.9786 9.6544C34.0965 9.30566 33.9526 8.47124 33.7287 8.15443L8.14319 21.5438C9.70301 23.9315 15.907 22.1545 18.8141 20.9676Z" fill="#B6BCCF"/>
<path d="M24.6347 12.5334C21.9447 12.2407 19.7616 13.9949 19.8267 15.3971C20.1231 16.7996 21.4496 16.8648 22.0759 16.7221C23.5811 16.2596 24.5805 13.7893 24.6347 12.5334Z" fill="#9EA6BF"/>
<circle cx="28.2953" cy="8.58499" r="0.851313" transform="rotate(-23.9454 28.2953 8.58499)" fill="black"/>
</svg>
