<svg width="167" height="168" viewBox="0 0 167 168" fill="none" xmlns="http://www.w3.org/2000/svg">
<path d="M64.1015 43.6544C58.5653 47.7336 66.5158 59.2285 71.183 64.466L93.4584 38.7317C75.4901 35.5572 66.4003 40.6908 64.1015 43.6544Z" fill="#9EA6BF"/>
<path d="M42.4007 84.7234C36.6291 91.5849 45.5595 101.452 50.7461 105.527L62.2742 79.2277C50.1341 78.2921 43.9668 82.5017 42.4007 84.7234Z" fill="#9EA6BF"/>
<path d="M114.41 111.554C108.641 118.921 96.8206 111.769 91.6313 107.272L114.876 85.0077C118.224 94.8459 115.96 106.805 114.41 111.554Z" fill="#9EA6BF"/>
<path d="M25.6755 116.819L46.2046 115.111L62.7263 129.544L63.5038 152.923C47.0869 155.3 33.2085 142.473 28.3215 135.762C22.4523 126.951 24.112 119.462 25.6755 116.819Z" fill="#9EA6BF"/>
<path d="M62.8189 73.7917C41.8585 107.734 42.9147 125.107 46.7419 130.771C57.6606 138.54 81.7512 120.125 92.4317 109.947C142.725 67.2902 139.691 36.6575 139.361 34.4476C134.854 21.2039 121.816 24.8663 112.143 27.6652C89.1851 35.1393 69.6945 61.5304 62.8189 73.7917Z" fill="#8690AF"/>
<path d="M92.4317 109.947C142.725 67.2902 139.55 38.4027 139.361 34.4476C139.278 32.7199 137.218 29.3165 135.695 28.3148L46.7419 130.771C57.6606 138.54 81.7512 120.125 92.4317 109.947Z" fill="#B6BCCF"/>
<path d="M103.426 63.0689C91.1571 66.4026 84.6161 77.8208 87.3063 83.8426C91.0083 89.4695 96.9229 87.4792 99.4175 85.7807C105.209 81.1757 105.343 68.6556 103.426 63.0689Z" fill="#9EA6BF"/>
<circle cx="112.666" cy="39.5181" r="4" transform="rotate(-45.3568 112.666 39.5181)" fill="black"/>
</svg>
