<svg width="24" height="22" viewBox="0 0 24 22" fill="none" xmlns="http://www.w3.org/2000/svg">
<path d="M22.8163 7.49997C22.983 10.6666 23.2163 15 22.8163 6.99999C22.4163 -1.00001 15.3163 0.666653 11.8163 2.49999L9.31628 0.999972C8.51628 0.199972 6.31628 0.999972 5.31628 1.49997C3.71628 1.49997 1.64962 4.83331 0.816284 6.49997C0.816284 7.29997 2.14962 9.83331 2.81628 11L12.3163 20.5L20.8163 12L22.8163 7.49997Z" fill="#FF8181"/>
<path fill-rule="evenodd" clip-rule="evenodd" d="M4.60719 2.46574C3.07971 3.5784 2.16206 5.66812 1.81708 7.32472L1.64714 8.14078L0 7.804L0.169942 6.98794C0.553753 5.1449 1.60385 2.5851 3.61103 1.12302C4.63912 0.374138 5.90992 -0.0779613 7.41824 0.011143C8.7759 0.0913463 10.2704 0.606283 11.9098 1.6454C13.1795 0.817377 15.0809 0.0466633 17.0667 0.0738039C18.2167 0.089523 19.4079 0.374058 20.5054 1.08423C21.6033 1.79473 22.558 2.89919 23.2858 4.47681L23.3099 4.52892L23.3265 4.58381C23.3444 4.64316 23.3633 4.70434 23.3827 4.76733C23.626 5.55692 23.9573 6.63241 23.7521 7.9882C23.5298 9.45666 22.705 11.1449 20.7863 13.2188L20.774 13.2322L11.9255 22L1.65429 11.8225L2.84353 10.6441L11.9255 19.6432L19.5588 12.0795C21.3307 10.1607 21.9331 8.76991 22.0888 7.74099C22.236 6.76884 22.0083 6.02261 21.7637 5.2209C21.7534 5.18702 21.743 5.15305 21.7327 5.11895C21.1193 3.80966 20.3663 2.98465 19.5858 2.47954C18.7947 1.96761 17.9256 1.7522 17.0435 1.74014C15.2457 1.71557 13.4502 2.54012 12.4406 3.3154L11.9535 3.68946L11.4468 3.34188C9.78312 2.20062 8.41701 1.7396 7.31815 1.67469C6.2347 1.61068 5.34644 1.92725 4.60719 2.46574Z" fill="#F2F2F2"/>
<path d="M13.6074 8.9895H14.6074V9.9894H13.6074V8.9895Z" fill="#F2F2F2"/>
<path d="M16.6074 8.9895H17.6074V9.9894H16.6074V8.9895Z" fill="#F2F2F2"/>
<path fill-rule="evenodd" clip-rule="evenodd" d="M8.64475 6.30954L10.5172 8.98951H11.9347V9.98941H9.98848L8.83361 8.33649L6.59044 13.2948L4.73536 9.82276H3.02094V8.82286H5.34292L6.51515 11.0169L8.64475 6.30954Z" fill="#F2F2F2"/>
</svg>
