<svg width="18" height="19" viewBox="0 0 18 19" fill="none" xmlns="http://www.w3.org/2000/svg">
<path d="M9 18.559C6.5 18.559 4.375 17.6894 2.625 15.9503C0.875 14.2112 0 12.0994 0 9.61491C0 7.13043 0.875 5.01863 2.625 3.2795C4.375 1.54037 6.5 0.670807 9 0.670807C9.23333 0.670807 9.4625 0.679088 9.6875 0.695652C9.9125 0.712215 10.1333 0.737059 10.35 0.770186C9.66667 1.25052 9.12083 1.87578 8.7125 2.64596C8.30417 3.41615 8.1 4.24845 8.1 5.14286C8.1 6.63354 8.625 7.90062 9.675 8.9441C10.725 9.98758 12 10.5093 13.5 10.5093C14.4167 10.5093 15.2583 10.3064 16.025 9.90062C16.7917 9.49482 17.4167 8.95238 17.9 8.27329C17.9333 8.48861 17.9583 8.70807 17.975 8.93168C17.9917 9.15528 18 9.38302 18 9.61491C18 12.0994 17.125 14.2112 15.375 15.9503C13.625 17.6894 11.5 18.559 9 18.559ZM9 16.5714C10.4667 16.5714 11.7833 16.1698 12.95 15.3665C14.1167 14.5631 14.9667 13.5155 15.5 12.2236C15.1667 12.3064 14.8333 12.3727 14.5 12.4224C14.1667 12.472 13.8333 12.4969 13.5 12.4969C11.45 12.4969 9.70417 11.7805 8.2625 10.3478C6.82083 8.91511 6.1 7.18012 6.1 5.14286C6.1 4.81159 6.125 4.48033 6.175 4.14907C6.225 3.8178 6.29167 3.48654 6.375 3.15528C5.075 3.6853 4.02083 4.53002 3.2125 5.68944C2.40417 6.84886 2 8.15735 2 9.61491C2 11.5362 2.68333 13.176 4.05 14.5342C5.41667 15.8923 7.06667 16.5714 9 16.5714Z" fill="black"/>
</svg>
