<svg width="22" height="24" viewBox="0 0 22 24" fill="none" xmlns="http://www.w3.org/2000/svg">
<path d="M2 20.5V0.0996857L16 0.5C17.5 0.5 18.5 0.599686 18.5 1.09969V9.59969L17.5 20.5H2Z" fill="#9DC6FB"/>
<path fill-rule="evenodd" clip-rule="evenodd" d="M1.43195 0H16.7991C17.1851 0.00459668 17.752 0.121154 18.2371 0.470766C18.7481 0.839001 19.1361 1.44541 19.1361 2.33428V21.2679H1.43195V0ZM2.47337 1.03746V20.2305H18.0947V2.33428C18.0947 1.78807 17.8751 1.49033 17.6268 1.31136C17.3537 1.11461 17.0111 1.04068 16.7895 1.03746H2.47337Z" fill="#F2F2F2"/>
<path d="M19.9171 8.69747C18.8757 7.03753 17.7475 8.00583 17.3136 8.69747V15.4409C17.3136 20.6282 18.0947 22.5303 18.6154 22.9625C19.4485 22.5475 19.8304 17.7752 19.9171 15.4409V8.69747Z" fill="black"/>
<path d="M17.5 15.5V10L20 9.5L19.5 15.5H17.5Z" fill="#DD4F4F"/>
<path fill-rule="evenodd" clip-rule="evenodd" d="M19.6669 9.63319C19.7233 9.35227 19.9977 9.17008 20.2797 9.22627C20.895 9.34886 22 10.0003 22 11.5505V15.1816C22 15.4681 21.7669 15.7003 21.4793 15.7003C21.1917 15.7003 20.9586 15.4681 20.9586 15.1816V11.5505C20.9586 10.6108 20.328 10.2939 20.0754 10.2436C19.7934 10.1874 19.6105 9.91412 19.6669 9.63319ZM17.0533 15.441C17.0533 15.1545 17.2864 14.9222 17.574 14.9222H19.3965C19.6841 14.9222 19.9172 15.1545 19.9172 15.441C19.9172 15.7274 19.6841 15.9597 19.3965 15.9597H17.574C17.2864 15.9597 17.0533 15.7274 17.0533 15.441Z" fill="#F2F2F2"/>
<path d="M20 15.5H17.5C16.7 17.5 17.8333 21 18.5 22.5C19.3 22.9 19.8333 18 20 15.5Z" fill="#D9D9D9"/>
<path fill-rule="evenodd" clip-rule="evenodd" d="M17.8343 8.85605V15.4409C17.8343 18.0122 18.0282 19.7443 18.2778 20.8733C18.3824 21.3467 18.4953 21.7069 18.604 21.9748C18.6216 21.9199 18.6394 21.8613 18.6571 21.799C18.8016 21.2913 18.9262 20.6108 19.0302 19.8513C19.2371 18.3411 19.3532 16.5881 19.3965 15.4313V8.85229C19.2004 8.56968 19.0268 8.4289 18.8951 8.36183C18.757 8.29154 18.6367 8.28702 18.5188 8.3176C18.277 8.38036 18.0205 8.60268 17.8343 8.85605ZM19.369 7.438C19.7377 7.62572 20.0664 7.95663 20.3587 8.42254C20.4105 8.50498 20.4379 8.60024 20.4379 8.69746V15.4409C20.4379 15.4473 20.4378 15.4537 20.4375 15.4601C20.3937 16.6377 20.2756 18.4325 20.0621 19.9916C19.9556 20.7689 19.8232 21.5051 19.659 22.0819C19.5773 22.3692 19.4826 22.6354 19.3699 22.8534C19.2669 23.0528 19.1059 23.2982 18.8483 23.4265C18.6632 23.5187 18.441 23.493 18.282 23.361C18.067 23.1825 17.8806 22.9038 17.7185 22.5495C17.5528 22.1872 17.3963 21.71 17.2607 21.0964C16.9895 19.8695 16.7929 18.0569 16.7929 15.4409V8.69746C16.7929 8.60024 16.8203 8.50498 16.8721 8.42254C17.1184 8.0299 17.6017 7.48349 18.2563 7.31364C18.6049 7.22318 18.9891 7.2446 19.369 7.438Z" fill="#F2F2F2"/>
<path fill-rule="evenodd" clip-rule="evenodd" d="M18.6154 22.1845C18.903 22.1845 19.1361 22.4167 19.1361 22.7032V23.4813C19.1361 23.7678 18.903 24 18.6154 24C18.3278 24 18.0947 23.7678 18.0947 23.4813V22.7032C18.0947 22.4167 18.3278 22.1845 18.6154 22.1845Z" fill="#F2F2F2"/>
<path fill-rule="evenodd" clip-rule="evenodd" d="M0 4.14983C0 3.79172 0.291412 3.50142 0.650888 3.50142H3.25444C3.61391 3.50142 3.90533 3.79172 3.90533 4.14983C3.90533 4.50794 3.61391 4.79824 3.25444 4.79824H0.650888C0.291412 4.79824 0 4.50794 0 4.14983Z" fill="#F2F2F2"/>
<path fill-rule="evenodd" clip-rule="evenodd" d="M0 7.26221C0 6.9041 0.291412 6.6138 0.650888 6.6138H3.25444C3.61391 6.6138 3.90533 6.9041 3.90533 7.26221C3.90533 7.62032 3.61391 7.91062 3.25444 7.91062H0.650888C0.291412 7.91062 0 7.62032 0 7.26221Z" fill="#F2F2F2"/>
<path fill-rule="evenodd" clip-rule="evenodd" d="M0 10.3746C0 10.0165 0.291412 9.72618 0.650888 9.72618H3.25444C3.61391 9.72618 3.90533 10.0165 3.90533 10.3746C3.90533 10.7327 3.61391 11.023 3.25444 11.023H0.650888C0.291412 11.023 0 10.7327 0 10.3746Z" fill="#F2F2F2"/>
<path d="M15.5 4H5.5V9.5H6H15.5V4Z" fill="black"/>
<path fill-rule="evenodd" clip-rule="evenodd" d="M0 13.487C0 13.1289 0.291412 12.8386 0.650888 12.8386H3.25444C3.61391 12.8386 3.90533 13.1289 3.90533 13.487C3.90533 13.8451 3.61391 14.1354 3.25444 14.1354H0.650888C0.291412 14.1354 0 13.8451 0 13.487Z" fill="#F2F2F2"/>
<path fill-rule="evenodd" clip-rule="evenodd" d="M0 16.5993C0 16.2412 0.291412 15.9509 0.650888 15.9509H3.25444C3.61391 15.9509 3.90533 16.2412 3.90533 16.5993C3.90533 16.9574 3.61391 17.2478 3.25444 17.2478H0.650888C0.291412 17.2478 0 16.9574 0 16.5993Z" fill="#F2F2F2"/>
<path d="M4 23.5V21H6.5V23.5L5.5 23H5L4 23.5Z" fill="#DD636E"/>
<path fill-rule="evenodd" clip-rule="evenodd" d="M5.0769 3.78672C5.0769 3.50023 5.31003 3.26799 5.59761 3.26799H15.4911C15.7787 3.26799 16.0118 3.50023 16.0118 3.78672V9.389C16.0118 9.67549 15.7787 9.90773 15.4911 9.90773L10.297 9.90773C10.0094 9.90773 9.77631 9.67549 9.77631 9.389C9.77631 9.10251 10.0094 8.87027 10.297 8.87027L14.9704 8.87027V4.30545H6.11832V8.87027H6.66718C6.95476 8.87027 7.18789 9.10251 7.18789 9.389C7.18789 9.67549 6.95476 9.90773 6.66718 9.90773H5.59761C5.31003 9.90773 5.0769 9.67549 5.0769 9.389V3.78672Z" fill="#F2F2F2"/>
<path fill-rule="evenodd" clip-rule="evenodd" d="M7.21182 5.65416C7.21182 5.39632 7.42164 5.1873 7.68046 5.1873H13.4083C13.6671 5.1873 13.8769 5.39632 13.8769 5.65416C13.8769 5.912 13.6671 6.12102 13.4083 6.12102H7.68046C7.42164 6.12102 7.21182 5.912 7.21182 5.65416Z" fill="#F2F2F2"/>
<path fill-rule="evenodd" clip-rule="evenodd" d="M7.21182 7.52159C7.21182 7.26375 7.42164 7.05473 7.68046 7.05473H13.4083C13.6671 7.05473 13.8769 7.26375 13.8769 7.52159C13.8769 7.77943 13.6671 7.98845 13.4083 7.98845H7.68046C7.42164 7.98845 7.21182 7.77943 7.21182 7.52159Z" fill="#F2F2F2"/>
<path d="M9.06036 9.38899C9.06036 9.64683 8.83889 9.85585 8.56569 9.85585C8.29249 9.85585 8.07101 9.64683 8.07101 9.38899C8.07101 9.13115 8.29249 8.92213 8.56569 8.92213C8.83889 8.92213 9.06036 9.13115 9.06036 9.38899Z" fill="#F2F2F2"/>
<path fill-rule="evenodd" clip-rule="evenodd" d="M3.64496 21.2679C3.64496 21.053 3.81981 20.8789 4.03549 20.8789H6.63904C6.85473 20.8789 7.02957 21.053 7.02957 21.2679V23.6022C7.02957 23.7424 6.95389 23.8717 6.83146 23.9407C6.70902 24.0098 6.55876 24.0079 6.43811 23.9358L5.33727 23.2778L4.23642 23.9358C4.11577 24.0079 3.96551 24.0098 3.84308 23.9407C3.72064 23.8717 3.64496 23.7424 3.64496 23.6022V21.2679ZM4.42602 21.657V22.9151L5.13634 22.4905C5.26001 22.4166 5.41452 22.4166 5.53819 22.4905L6.24851 22.9151V21.657H4.42602Z" fill="#F2F2F2"/>
<path fill-rule="evenodd" clip-rule="evenodd" d="M16.7929 9.5965C16.7929 9.31002 17.026 9.07777 17.3136 9.07777H19.6568C19.9444 9.07777 20.1775 9.31002 20.1775 9.5965C20.1775 9.88299 19.9444 10.1152 19.6568 10.1152H17.3136C17.026 10.1152 16.7929 9.88299 16.7929 9.5965Z" fill="#F2F2F2"/>
</svg>
