<svg width="27" height="27" viewBox="0 0 27 27" fill="none" xmlns="http://www.w3.org/2000/svg">
<path fill-rule="evenodd" clip-rule="evenodd" d="M14.5882 8.01176C14.5882 7.68039 14.8569 7.41176 15.1882 7.41176H19.1882C19.5196 7.41176 19.7882 7.68039 19.7882 8.01176C19.7882 8.34313 19.5196 8.61176 19.1882 8.61176H15.1882C14.8569 8.61176 14.5882 8.34313 14.5882 8.01176Z" fill="black"/>
<path fill-rule="evenodd" clip-rule="evenodd" d="M14.5882 13.6588C14.5882 13.3275 14.8569 13.0588 15.1882 13.0588H19.1882C19.5196 13.0588 19.7882 13.3275 19.7882 13.6588C19.7882 13.9902 19.5196 14.2588 19.1882 14.2588H15.1882C14.8569 14.2588 14.5882 13.9902 14.5882 13.6588Z" fill="black"/>
<path fill-rule="evenodd" clip-rule="evenodd" d="M13.0104 6.16228C13.2521 6.38892 13.2644 6.76862 13.0377 7.01037L11.1627 9.01037C11.0493 9.13136 10.8908 9.2 10.725 9.2C10.5591 9.2 10.4007 9.13136 10.2873 9.01037L9.16227 7.81037C8.93563 7.56862 8.94788 7.18892 9.18963 6.96228C9.43138 6.73564 9.81108 6.74789 10.0377 6.98964L10.725 7.72273L12.1623 6.18964C12.3889 5.94789 12.7686 5.93564 13.0104 6.16228Z" fill="black"/>
<path fill-rule="evenodd" clip-rule="evenodd" d="M13.0104 12.1623C13.2521 12.3889 13.2644 12.7686 13.0377 13.0104L11.1627 15.0104C11.0493 15.1314 10.8908 15.2 10.725 15.2C10.5591 15.2 10.4007 15.1314 10.2873 15.0104L9.16227 13.8104C8.93563 13.5686 8.94788 13.1889 9.18963 12.9623C9.43138 12.7356 9.81108 12.7479 10.0377 12.9896L10.725 13.7227L12.1623 12.1896C12.3889 11.9479 12.7686 11.9356 13.0104 12.1623Z" fill="black"/>
<path fill-rule="evenodd" clip-rule="evenodd" d="M1.58692 1.88808C1.30113 2.28501 1.2 2.77935 1.2 3.1V8.1C1.2 9.16878 1.52483 9.56678 1.80199 9.74693C2.13665 9.96446 2.59239 10 3.1 10H4.5V3.1C4.5 2.24519 4.22146 1.79153 3.94862 1.54598C3.65657 1.28313 3.30575 1.2 3.1 1.2C2.29555 1.2 1.85068 1.52175 1.58692 1.88808ZM5.21085 1.2C5.51287 1.67785 5.7 2.30483 5.7 3.1V15.1C5.7 16.7292 5.70009 18.0289 5.73865 19.07C5.77745 20.1177 5.85432 20.8588 5.99274 21.3848C6.12887 21.9021 6.30577 22.1396 6.49507 22.27C6.69808 22.4098 7.02017 22.5 7.6 22.5H22.5V3.1C22.5 2.29555 22.1783 1.85068 21.8119 1.58692C21.415 1.30113 20.9207 1.2 20.6 1.2H5.21085ZM3.1 0H20.6C21.1127 0 21.8683 0.148869 22.5131 0.613079C23.1884 1.09932 23.7 1.90445 23.7 3.1V23.1C23.7 23.4314 23.4314 23.7 23.1 23.7H7.6C6.92982 23.7 6.31442 23.6027 5.8143 23.2582C5.30048 22.9042 5.00863 22.3604 4.83226 21.6902C4.65818 21.0287 4.5788 20.1761 4.53947 19.1144C4.5 18.0486 4.5 16.727 4.5 15.1115V11.2H3.1C2.60761 11.2 1.81335 11.1855 1.14801 10.7531C0.425169 10.2832 0 9.43122 0 8.1V3.1C0 2.58732 0.148869 1.83165 0.613079 1.18692C1.09932 0.511586 1.90445 0 3.1 0Z" fill="black"/>
<rect x="11.6" y="18.6" width="4.8" height="7.3" rx="1.6" fill="white" stroke="black" stroke-width="1.2"/>
<rect x="16.6" y="20.85" width="4.8" height="2.8" fill="white" stroke="black" stroke-width="1.2"/>
<rect x="21.6" y="18.6" width="4.8" height="7.3" rx="1.6" fill="white" stroke="black" stroke-width="1.2"/>
</svg>
