<svg width="16" height="24" viewBox="0 0 16 24" fill="none" xmlns="http://www.w3.org/2000/svg">
<path d="M12.6604 10.3612C9.09058 7.23172 8.6231 2.14978 8.83559 0C4.50083 2.79119 4.47958 9.76212 5.0108 12.8987C4.16085 13.0678 3.24007 11.4185 2.88592 10.5727C-3.40373 17.4238 2.03597 22.3789 5.54202 24C4.01211 22.1392 5.04622 19.8414 5.75451 18.9251C6.85945 17.5718 7.20652 15.0485 7.24193 13.9559C9.02683 16.0705 9.18974 19.0661 9.04808 20.2996C9.72804 20.3841 10.323 19.0661 10.5355 18.3965C11.8104 19.8344 10.9251 22.7313 10.323 24C19.3325 19.4326 15.6352 13.0044 12.6604 10.3612Z" fill="url(#paint0_linear_549_1656)"/>
<defs>
<linearGradient id="paint0_linear_549_1656" x1="8" y1="0" x2="8" y2="24" gradientUnits="userSpaceOnUse">
<stop stop-color="#F0463C"/>
<stop offset="1" stop-color="#FDB82A"/>
</linearGradient>
</defs>
</svg>
