<svg width="24" height="22" viewBox="0 0 24 22" fill="none" xmlns="http://www.w3.org/2000/svg">
<path d="M23 7.49997C23.1667 10.6666 23.4 15 23 6.99999C22.6 -1.00001 15.5 0.666653 12 2.49999L9.5 0.999972C8.7 0.199972 6.5 0.999972 5.5 1.49997C3.9 1.49997 1.83333 4.83331 1 6.49997C1 7.29997 2.33333 9.83331 3 11L12.5 20.5L21 12L23 7.49997Z" fill="#FF8181"/>
<path fill-rule="evenodd" clip-rule="evenodd" d="M4.79091 2.46574C3.26343 3.5784 2.34578 5.66812 2.00079 7.32472L1.83085 8.14078L0.183716 7.804L0.353658 6.98794C0.737469 5.1449 1.78757 2.5851 3.79475 1.12302C4.82283 0.374138 6.09364 -0.0779613 7.60196 0.011143C8.95962 0.0913463 10.4541 0.606283 12.0935 1.6454C13.3632 0.817377 15.2646 0.0466633 17.2504 0.0738039C18.4005 0.089523 19.5916 0.374058 20.6891 1.08423C21.7871 1.79473 22.7417 2.89919 23.4695 4.47681L23.4936 4.52892L23.5102 4.58381C23.5282 4.64316 23.547 4.70434 23.5664 4.76733C23.8097 5.55692 24.141 6.63241 23.9358 7.9882C23.7135 9.45666 22.8887 11.1449 20.9701 13.2188L20.9577 13.2322L12.1092 22L1.83801 11.8225L3.02725 10.6441L12.1092 19.6432L19.7425 12.0795C21.5145 10.1607 22.1168 8.76991 22.2726 7.74099C22.4197 6.76884 22.192 6.02261 21.9474 5.2209C21.9371 5.18702 21.9267 5.15305 21.9164 5.11895C21.303 3.80966 20.55 2.98465 19.7695 2.47954C18.9784 1.96761 18.1093 1.7522 17.2272 1.74014C15.4294 1.71557 13.6339 2.54012 12.6243 3.3154L12.1372 3.68946L11.6305 3.34188C9.96684 2.20062 8.60072 1.7396 7.50187 1.67469C6.41841 1.61068 5.53016 1.92725 4.79091 2.46574Z" fill="#202020"/>
<path d="M13.7911 8.9895H14.7911V9.9894H13.7911V8.9895Z" fill="white"/>
<path d="M16.7911 8.9895H17.7911V9.9894H16.7911V8.9895Z" fill="white"/>
<path fill-rule="evenodd" clip-rule="evenodd" d="M8.82847 6.30954L10.7009 8.98951H12.1184V9.98941H10.1722L9.01733 8.33649L6.77416 13.2948L4.91907 9.82276H3.20465V8.82286H5.52664L6.69886 11.0169L8.82847 6.30954Z" fill="white"/>
</svg>
