<svg width="30" height="20" viewBox="0 0 30 20" fill="none" xmlns="http://www.w3.org/2000/svg">
<rect width="30" height="20" fill="#B6B6B6"/>
<rect width="29.5" height="19.5" fill="white"/>
<rect x="8.51227" y="3.00421" width="0.64375" height="4.41088" transform="rotate(34 8.51227 3.00421)" fill="#333333"/>
<rect x="9.42026" y="3.59607" width="0.64375" height="4.41088" transform="rotate(34 9.42026 3.59607)" fill="#333333"/>
<rect x="10.374" y="4.19214" width="0.64375" height="4.41088" transform="rotate(34 10.374 4.19214)" fill="#333333"/>
<rect x="20.1864" y="3.95605" width="0.64375" height="4.41088" transform="rotate(-34 20.1864 3.95605)" fill="#333333"/>
<rect x="6" y="13.3738" width="0.64375" height="4.41088" transform="rotate(-34 6 13.3738)" fill="#333333"/>
<rect x="7.78821" y="12.1818" width="0.64375" height="4.41088" transform="rotate(-34 7.78821 12.1818)" fill="#333333"/>
<rect x="19.2326" y="4.55206" width="0.64375" height="1.89655" transform="rotate(-34 19.2326 4.55206)" fill="#333333"/>
<rect x="21.0208" y="3.35999" width="0.64375" height="1.89655" transform="rotate(-34 21.0208 3.35999)" fill="#333333"/>
<rect x="20.6632" y="6.57874" width="0.64375" height="1.89655" transform="rotate(-34 20.6632 6.57874)" fill="#333333"/>
<rect x="6.95367" y="12.7778" width="0.64375" height="1.89655" transform="rotate(-34 6.95367 12.7778)" fill="#333333"/>
<rect x="8.38426" y="14.8044" width="0.64375" height="1.89655" transform="rotate(-34 8.38426 14.8044)" fill="#333333"/>
<rect width="0.64375" height="1.89655" transform="matrix(-0.829038 -0.559193 -0.559193 0.829038 22.2574 12.1818)" fill="#333333"/>
<rect width="0.64375" height="1.89655" transform="matrix(-0.829038 -0.559193 -0.559193 0.829038 20.8269 14.2083)" fill="#333333"/>
<rect width="0.64375" height="1.89655" transform="matrix(-0.829038 -0.559193 -0.559193 0.829038 23.2111 12.7778)" fill="#333333"/>
<rect width="0.64375" height="1.89655" transform="matrix(-0.829038 -0.559193 -0.559193 0.829038 21.7806 14.8044)" fill="#333333"/>
<rect width="0.64375" height="1.89655" transform="matrix(-0.829038 -0.559193 -0.559193 0.829038 24.0456 13.3738)" fill="#333333"/>
<rect width="0.64375" height="1.89655" transform="matrix(-0.829038 -0.559193 -0.559193 0.829038 22.6151 15.4005)" fill="#333333"/>
<rect x="22.4514" y="5.3866" width="0.64375" height="1.89655" transform="rotate(-34 22.4514 5.3866)" fill="#333333"/>
<path fill-rule="evenodd" clip-rule="evenodd" d="M17.7959 9.1598C18.9403 9.57678 19.594 10.667 19.2559 11.5949L19.256 11.5949C18.8555 12.6941 18.0348 13.5891 16.9744 14.0831C15.914 14.5772 14.7008 14.6297 13.6016 14.2292C12.5025 13.8287 11.6074 13.008 11.1134 11.9476C10.6194 10.8872 10.5668 9.67398 10.9673 8.57483L10.9675 8.57488C10.9674 8.5749 10.9674 8.57493 10.9674 8.57496C10.6293 9.50287 11.283 10.5931 12.4274 11.0101C13.5718 11.4271 14.7737 11.0129 15.1118 10.085C15.1139 10.0792 15.116 10.0734 15.118 10.0676C15.4647 9.15184 16.6586 8.74541 17.7959 9.1598Z" fill="#335D93"/>
<path fill-rule="evenodd" clip-rule="evenodd" d="M19.2596 11.5852C19.5897 10.6594 18.9366 9.57526 17.7961 9.15973C16.6517 8.74274 15.4499 9.15692 15.1118 10.0848C15.1112 10.0865 15.1106 10.0882 15.11 10.0899C14.7694 11.0143 13.5698 11.4263 12.4274 11.01C11.283 10.5931 10.6293 9.5028 10.9674 8.57488L10.9674 8.57485L10.9674 8.57483C11.3679 7.47569 12.1886 6.58065 13.249 6.08662C14.3094 5.5926 15.5226 5.54005 16.6218 5.94054C17.7209 6.34103 18.616 7.16175 19.11 8.22216C19.6026 9.27942 19.6563 10.4886 19.2596 11.5852Z" fill="#D13D59"/>
</svg>
