<svg width="44" height="32" viewBox="0 0 44 32" fill="none" xmlns="http://www.w3.org/2000/svg">
<path d="M35.4036 15.0238C32.4688 11.8242 32.3663 8.51888 32.6818 7.26615C36.6364 6.65371 39.9063 8.61171 40.0529 8.69522C40.4902 11.1599 37.1356 13.9412 35.4036 15.0238Z" fill="#F2FBFF"/>
<path d="M25.6651 19.775C25.0011 19.5958 20.9733 16.4376 20.8225 16.3523L32.7349 11.6186L34.5586 15.2952C33.7726 16.811 28.3021 18.9133 25.6651 19.775Z" fill="#F2FBFF"/>
<path d="M1.21165 14.9156C2.53506 17.0893 5.19931 21.4844 5.26903 21.675L6.3765 29.3678L6.98136 29.6883L8.99832 27.2043C8.92735 25.5662 8.76799 22.2425 8.69827 22.0519L18.6764 22.0519L25.7033 19.8565C25.324 19.886 22.9737 17.4218 21.7845 16.5035L7.73964 19.4313L4.59731 15.1734L2.18043 14.5648L1.21165 14.9156Z" fill="#DFF6FD"/>
<path d="M33.275 16.4192L30.4233 17.8892C31.1489 19.6082 32.2143 20.6893 32.6562 21.015C33.7404 20.2727 33.5205 17.6419 33.275 16.4192Z" fill="#C8EFFE"/>
<path d="M20.9863 6.50534L21.0682 10.8473L27.0542 8.67959L20.9863 6.50534Z" fill="#C8EFFE"/>
<path d="M20.3225 16.4629C19.6024 16.1731 17.5149 13.4879 17.4704 13.3664C20.1424 10.1964 28.5604 8.4326 32.4354 7.94695L32.9906 12.1506L20.3225 16.4629Z" fill="#8AC9FE"/>
<path d="M21.0955 16.6472L17.6245 12.733C13.0553 14.1764 9.85756 17.5705 8.82987 19.0871L21.0955 16.6472Z" fill="#60B7FF"/>
<path fill-rule="evenodd" clip-rule="evenodd" d="M20.5557 6.07874C20.6891 5.95539 20.8732 5.91538 21.0523 5.9708C22.4948 6.41711 25.7453 7.44701 27.1097 7.96858L27.1016 8.00354C31.168 6.95151 35.3965 6.72634 39.3762 8.01046C39.3871 8.01399 39.398 8.01786 39.4088 8.02208C39.9496 8.23315 40.5607 8.70354 40.6834 9.59026C40.7924 10.3788 40.4717 11.2946 39.7538 12.369C39.7437 12.3841 39.733 12.3985 39.7217 12.4123C38.6191 13.7557 36.6596 15.5107 33.8818 17.2123C33.9772 19.057 33.7961 20.3443 33.4963 21.2158C33.1947 22.0929 32.7361 22.6395 32.2419 22.7737C32.0852 22.8162 31.913 22.7796 31.7693 22.673C31.6256 22.5665 31.5242 22.4003 31.491 22.2168C31.4052 21.7432 31.0357 21.0935 30.5888 20.4515C30.3873 20.1619 30.1891 19.9 30.0248 19.6829L29.9989 19.6487C29.9215 19.5464 29.8479 19.4488 29.7892 19.367C24.6635 21.6723 17.8026 23.423 9.32965 23.1368C9.41721 24.4993 9.44125 26.1648 9.44186 26.9181C9.44191 26.9724 9.43572 27.0259 9.42344 27.0772C8.88962 29.3066 7.69917 30.262 7.00253 30.4465C6.84329 30.4886 6.66876 30.4493 6.5245 30.3387C6.38025 30.2281 6.28059 30.0572 6.25155 29.8707L5.02747 22.0088L0.67704 15.2778C0.581433 15.1299 0.540507 14.9505 0.563683 14.781C0.586859 14.6115 0.672139 14.4665 0.799895 14.3793C1.70021 13.7647 2.72195 13.9537 3.54621 14.3472C4.36765 14.7393 5.08392 15.372 5.50297 15.8422C5.51304 15.8535 5.52277 15.8652 5.53216 15.8771L7.85025 18.8379C10.6128 16.3253 15.0883 13.0071 20.2485 10.5456C20.3737 9.48385 20.4926 7.81414 20.3749 6.59715C20.3552 6.39426 20.4223 6.20208 20.5557 6.07874ZM21.5713 7.43385C22.5882 7.75285 23.9642 8.19214 25.1258 8.58162C23.8839 8.98612 22.6641 9.4595 21.4787 9.98137C21.5454 9.2063 21.5931 8.28767 21.5713 7.43385ZM32.7529 17.8745C32.1506 18.2128 31.5153 18.5465 30.8473 18.8717L30.8511 18.8768L30.8796 18.9143L30.8796 18.9144L30.8796 18.9144C31.0425 19.1296 31.2563 19.4121 31.4749 19.7262C31.732 20.0956 32.0278 20.5521 32.2595 21.0331C32.3113 20.9288 32.3636 20.805 32.4138 20.6591C32.6104 20.0874 32.7673 19.1988 32.7529 17.8745ZM3.17999 15.5216C2.77645 15.329 2.3884 15.2352 2.03387 15.2793L6.02813 21.4592C6.08494 21.5471 6.12302 21.647 6.13913 21.7505L7.23416 28.7836C7.59444 28.4205 8.02033 27.7806 8.28814 26.7137C8.28548 25.7951 8.25065 23.7981 8.13102 22.4751C8.11515 22.2995 8.16408 22.1312 8.26644 22.0093C8.3688 21.8873 8.51569 21.8223 8.67299 21.8293C20.4966 22.3572 29.1294 18.8441 34.2577 15.4317C33.646 14.6006 33.18 13.7514 32.8293 12.9273C25.0298 17.0363 13.0136 19.584 7.95695 20.3722L7.95687 20.3718C7.7635 20.4018 7.55182 20.3175 7.40543 20.1305L4.70924 16.6868C4.37739 16.3186 3.8051 15.82 3.17999 15.5216ZM38.8202 11.5178C38.0608 12.4382 36.849 13.5859 35.1988 14.779C33.3708 12.3549 32.9846 9.75441 33.0161 8.42465C35.0997 8.35972 37.159 8.6012 39.1374 9.23709C39.4272 9.35376 39.5202 9.49778 39.5435 9.66621C39.5805 9.93372 39.4886 10.5109 38.8202 11.5178ZM21.5295 11.3885C24.836 9.8862 28.368 8.78359 31.8615 8.49127C31.8659 9.32743 31.9983 10.4507 32.3784 11.6914C32.1188 11.8296 31.8542 11.966 31.585 12.1006L29.5848 10.9026C29.2937 10.7282 28.9529 10.8375 28.8235 11.1466C28.6941 11.4557 28.8252 11.8477 29.1163 12.0221L30.2846 12.7219C29.8248 12.932 29.3547 13.1375 28.8763 13.3382L26.6091 11.9802C26.318 11.8058 25.9771 11.9151 25.8477 12.2242C25.7184 12.5334 25.8495 12.9253 26.1406 13.0997L27.4799 13.902C26.9001 14.1274 26.3113 14.3463 25.7164 14.5584L25.7327 14.5196L23.4208 13.1348C23.1297 12.9604 22.7888 13.0697 22.6594 13.3788C22.5301 13.688 22.6612 14.08 22.9522 14.2543L24.2851 15.0527C23.7595 15.2285 23.2313 15.3991 22.7024 15.5646L20.445 14.2124C20.1539 14.0381 19.8131 14.1473 19.6837 14.4565C19.5543 14.7656 19.6854 15.1576 19.9765 15.332L21.1508 16.0353C20.6674 16.1775 20.1851 16.3153 19.7057 16.4487L17.7359 15.4386C17.4368 15.2852 17.1054 15.4204 16.9958 15.7404C16.8861 16.0605 17.0396 16.4443 17.3387 16.5977L17.9632 16.918C14.9667 17.6989 12.1615 18.2989 9.95711 18.7088C12.8187 16.3198 16.9254 13.4803 21.5295 11.3885Z" fill="#202020"/>
<path d="M36.5485 9.92531C36.7156 10.3822 36.5161 10.8738 36.1028 11.0235C35.6896 11.1731 35.2191 10.9241 35.052 10.4672C34.8849 10.0104 35.0844 9.51873 35.4976 9.36908C35.9109 9.21942 36.3814 9.46846 36.5485 9.92531Z" fill="#202020"/>
</svg>
