<svg width="80" height="80" viewBox="0 0 80 80" fill="none" xmlns="http://www.w3.org/2000/svg">
<path d="M80 40C80 62.0914 62.0914 80 40 80C17.9086 80 0 62.0914 0 40C0 17.9086 17.9086 0 40 0C62.0914 0 80 17.9086 80 40Z" fill="#9C9CA5"/>
<g clip-path="url(#clip0_452_2406)">
<path d="M35.2499 36.2763L34.624 36.0521C34.5618 36.0298 34.4939 36.0659 34.4776 36.13V36.13C34.4634 36.186 34.494 36.2436 34.5484 36.2631L34.8842 36.3834C35.1642 36.4837 35.4698 36.3212 35.5431 36.033L35.631 35.6873C35.6453 35.6313 35.6146 35.5736 35.5602 35.5542V35.5542C35.498 35.5319 35.4301 35.568 35.4138 35.632L35.2499 36.2763Z" fill="black"/>
</g>
<path d="M22.9015 49.6615C50.7867 45.7144 62.5383 33.1145 64.9284 27.3079C66.0441 25.28 64.3056 24.4181 63.297 24.2406C48.9854 20.5946 29.1238 37.4148 20.9819 46.2806C19.556 44.8159 16.689 41.8811 16.6291 41.8596C14.9971 40.4333 13.0496 40.451 12.2798 40.6381C10.8041 40.7827 11.3694 41.9672 11.8365 42.5413L18.2427 50.1386L20.4353 57.9096C20.7971 59.9582 21.4632 60.5643 21.751 60.6113C22.3946 60.9092 23.4469 59.0868 23.8926 58.1383C24.27 57.2972 24.0659 55.6895 23.9166 54.9908L22.9015 49.6615Z" fill="#F2FBFF"/>
<path d="M54.2076 44.9374C55.9219 43.5949 55.8109 39.6747 55.5411 37.8824L50.7244 40.9437C51.6787 41.2217 52.6351 42.9048 52.994 43.7116C53.5019 45.0289 54.0147 45.0777 54.2076 44.9374Z" fill="#C8EFFE"/>
<path d="M44.7391 43.6259C39.8496 42.2782 35.6772 37.0409 34.1093 34.4734C41.3528 28.7532 49.8577 25.5412 53.2046 24.6503L53.1654 24.8045C54.2351 31.0118 57.3072 34.34 58.7234 35.2541C54.4901 39.0397 44.9755 43.5002 44.7391 43.6259Z" fill="#8AC9FE"/>
<path d="M21.0081 46.444C34.145 31.8267 47.7793 25.8908 52.8933 24.7492L54.341 29.1815C53.9514 30.4558 43.8069 34.9179 36.5391 39.3837C34.5063 40.465 25.534 44.6148 21.0081 46.444Z" fill="#60B7FF"/>
<path d="M35.0587 27.411C37.1103 27.9275 41.7956 28.3678 43.8818 28.5234L34.7281 34.0876C35.3599 32.2155 34.2049 29.4685 33.5484 28.3291L35.0587 27.411Z" fill="#C8EFFE"/>
<path d="M35.4336 40.271L37.4195 39.2147C36.1521 38.7325 33.5983 37.7783 33.5226 37.8186C32.9035 37.6809 32.6159 37.9006 32.4663 38.1136C32.1035 38.9022 32.9663 39.3015 33.3729 39.4896L33.3826 39.4941L35.4336 40.271Z" fill="#528FD8"/>
<path d="M44.5018 42.9518C39.6124 41.6041 35.6772 37.041 34.1094 34.4734C41.3528 28.7532 50.1068 25.0975 53.1493 24.5463L53.1654 24.8046C54.2351 31.0119 54.0827 30.7861 55.4989 31.7003C51.2656 35.4859 44.7382 42.8261 44.5018 42.9518Z" fill="#8AC9FE"/>
<path d="M34.8092 40.2373L37.2679 38.9295L37.5445 39.4495L35.1607 40.7841L34.8092 40.2373Z" fill="#DFF6FD"/>
<path d="M50.3009 31.9629L52.2868 30.9066C51.0194 30.4245 48.4656 29.4703 48.3899 29.5105C47.7708 29.3729 47.4832 29.5925 47.3336 29.8055C46.9708 30.5941 47.8337 30.9934 48.2402 31.1815L48.2499 31.186L50.3009 31.9629Z" fill="#528FD8"/>
<path d="M46.5743 34.0785L48.5602 33.0222C47.2928 32.54 44.739 31.5858 44.6633 31.6261C44.0442 31.4884 43.7566 31.7081 43.607 31.9211C43.2441 32.7097 44.107 33.109 44.5136 33.2971L44.5233 33.3016L46.5743 34.0785Z" fill="#528FD8"/>
<path d="M42.9975 36.2477L44.9834 35.1914C43.716 34.7093 41.1621 33.7551 41.0865 33.7953C40.4673 33.6577 40.1798 33.8773 40.0302 34.0903C39.6673 34.8789 40.5302 35.2782 40.9368 35.4663L40.9464 35.4708L42.9975 36.2477Z" fill="#528FD8"/>
<path d="M39.4992 38.1085L41.4851 37.0522C40.2177 36.5701 37.6639 35.6159 37.5882 35.6561C36.9691 35.5185 36.6815 35.7381 36.5319 35.9511C36.169 36.7397 37.0319 37.139 37.4385 37.3271L37.4482 37.3316L39.4992 38.1085Z" fill="#528FD8"/>
<path d="M54.2777 28.9483C53.7857 29.8477 42.8578 35.908 37.4553 38.8258C41.1862 43.2176 43.0894 43.3751 44.7275 43.8322C50.7189 41.6417 56.5017 37.4625 58.5469 35.3784C57.3594 34.7879 55.206 30.8456 54.2777 28.9483Z" fill="#F2FBFF"/>
<path fill-rule="evenodd" clip-rule="evenodd" d="M52.6685 24.6688L52.6586 25.0613C52.8142 27.3796 53.6048 32.3982 58.0303 35.8897L59.255 34.7715C55.353 31.693 54.3235 27.0886 54.1882 25.0741L54.1055 24.2917L52.6685 24.6688Z" fill="#C8EFFE"/>
<path d="M58.3361 27.3117C58.634 27.8718 59.2885 28.1063 59.7978 27.8354C60.3072 27.5644 60.4785 26.8907 60.1806 26.3306C59.8827 25.7705 59.2283 25.536 58.7189 25.8069C58.2096 26.0779 58.0382 26.7516 58.3361 27.3117Z" fill="black"/>
<defs>
<clipPath id="clip0_452_2406">
<rect width="2.57068" height="2.82699" fill="white" transform="matrix(-0.882882 0.469595 0.469595 0.882882 35.6623 34.3145)"/>
</clipPath>
</defs>
</svg>
