<svg width="38" height="31" viewBox="0 0 38 31" fill="none" xmlns="http://www.w3.org/2000/svg">
<g clip-path="url(#clip0_446_1344)">
<path d="M15.6992 14.3311L15.3139 14.193C15.2756 14.1793 15.2338 14.2015 15.2238 14.241V14.241C15.215 14.2754 15.2339 14.3109 15.2673 14.3229L15.4741 14.397C15.6464 14.4587 15.8345 14.3587 15.8796 14.1813L15.9338 13.9684C15.9425 13.934 15.9237 13.8985 15.8902 13.8865V13.8865C15.8519 13.8728 15.8101 13.895 15.8001 13.9344L15.6992 14.3311Z" fill="black"/>
</g>
<path d="M8.09773 22.5708C25.2633 20.141 32.4974 12.3847 33.9687 8.81027C34.6555 7.56196 33.5853 7.03137 32.9644 6.92211C24.1545 4.67768 11.9281 15.0319 6.91608 20.4895C6.03828 19.5879 4.27343 17.7813 4.23653 17.768C3.23192 16.89 2.03306 16.9009 1.5592 17.0161C0.650797 17.1051 0.998779 17.8342 1.28632 18.1877L5.22988 22.8644L6.57957 27.6481C6.80229 28.9092 7.21231 29.2823 7.38948 29.3112C7.7857 29.4946 8.43346 28.3727 8.70782 27.7889C8.94018 27.2711 8.8145 26.2815 8.72262 25.8514L8.09773 22.5708Z" fill="#F2FBFF"/>
<path d="M27.3692 19.6626C28.4245 18.8362 28.3561 16.423 28.1901 15.3197L25.225 17.2042C25.8124 17.3753 26.4012 18.4114 26.6221 18.908C26.9348 19.719 27.2505 19.749 27.3692 19.6626Z" fill="#C8EFFE"/>
<path d="M21.5405 18.8553C18.5307 18.0257 15.9622 14.8017 14.9971 13.2212C19.456 9.69995 24.6914 7.72274 26.7518 7.17429L26.7276 7.26926C27.3861 11.0903 29.2772 13.1391 30.149 13.7018C27.5431 16.0322 21.6861 18.7779 21.5405 18.8553Z" fill="#8AC9FE"/>
<path d="M6.93222 20.59C15.019 11.5919 23.4121 7.9379 26.5601 7.23515L27.4513 9.96354C27.2115 10.748 20.9667 13.4948 16.4928 16.2439C15.2414 16.9095 9.71826 19.464 6.93222 20.59Z" fill="#60B7FF"/>
<path d="M15.5815 8.8737C16.8444 9.19167 19.7286 9.46272 21.0128 9.55849L15.378 12.9837C15.7669 11.8313 15.0559 10.1403 14.6517 9.43887L15.5815 8.8737Z" fill="#C8EFFE"/>
<path d="M15.8123 16.7901L17.0348 16.1398C16.2545 15.843 14.6825 15.2556 14.6359 15.2804C14.2548 15.1957 14.0777 15.3309 13.9857 15.462C13.7623 15.9475 14.2935 16.1932 14.5437 16.3091L14.5497 16.3118L15.8123 16.7901Z" fill="#528FD8"/>
<path d="M21.3945 18.4404C18.3846 17.6107 15.9622 14.8018 14.9971 13.2212C19.456 9.69997 24.8448 7.44959 26.7177 7.11031L26.7276 7.26928C27.3861 11.0904 27.2923 10.9514 28.1641 11.5141C25.5582 13.8445 21.54 18.363 21.3945 18.4404Z" fill="#8AC9FE"/>
<path d="M15.4279 16.7693L16.9414 15.9643L17.1117 16.2844L15.6442 17.106L15.4279 16.7693Z" fill="#DFF6FD"/>
<path d="M24.9643 11.6758L26.1868 11.0256C25.4066 10.7288 23.8345 10.1414 23.7879 10.1661C23.4068 10.0814 23.2298 10.2166 23.1377 10.3477C22.9143 10.8332 23.4455 11.079 23.6958 11.1948L23.7017 11.1975L24.9643 11.6758Z" fill="#528FD8"/>
<path d="M22.6703 12.9781L23.8928 12.3279C23.1126 12.0311 21.5405 11.4437 21.4939 11.4685C21.1128 11.3837 20.9357 11.5189 20.8437 11.6501C20.6203 12.1355 21.1515 12.3813 21.4017 12.4971L21.4077 12.4999L22.6703 12.9781Z" fill="#528FD8"/>
<path d="M20.4685 14.3134L21.691 13.6632C20.9107 13.3664 19.3387 12.779 19.2921 12.8038C18.911 12.7191 18.7339 12.8543 18.6419 12.9854C18.4185 13.4708 18.9497 13.7166 19.1999 13.8324L19.2059 13.8352L20.4685 14.3134Z" fill="#528FD8"/>
<path d="M18.315 15.4589L19.5375 14.8086C18.7572 14.5119 17.1852 13.9245 17.1386 13.9492C16.7575 13.8645 16.5804 13.9997 16.4884 14.1308C16.265 14.6163 16.7962 14.8621 17.0464 14.9779L17.0524 14.9806L18.315 15.4589Z" fill="#528FD8"/>
<path d="M27.4123 9.82009C27.1095 10.3737 20.3825 14.1044 17.0568 15.9005C19.3535 18.604 20.5251 18.7009 21.5334 18.9823C25.2216 17.6339 28.7814 15.0613 30.0404 13.7783C29.3094 13.4148 27.9838 10.988 27.4123 9.82009Z" fill="#F2FBFF"/>
<path fill-rule="evenodd" clip-rule="evenodd" d="M26.4218 7.18568L26.4156 7.42725C26.5114 8.85439 26.9981 11.9438 29.7224 14.093L30.4762 13.4047C28.0742 11.5096 27.4405 8.67523 27.3573 7.43514L27.3063 6.95352L26.4218 7.18568Z" fill="#C8EFFE"/>
<path d="M29.9106 8.81254C30.094 9.15735 30.4969 9.30167 30.8104 9.1349C31.124 8.96813 31.2295 8.55342 31.0461 8.20861C30.8627 7.86381 30.4598 7.71948 30.1463 7.88625C29.8327 8.05302 29.7272 8.46774 29.9106 8.81254Z" fill="black"/>
<defs>
<clipPath id="clip0_446_1344">
<rect width="1.58246" height="1.74024" fill="white" transform="matrix(-0.882882 0.469595 0.469595 0.882882 15.953 13.1234)"/>
</clipPath>
</defs>
</svg>
