<svg width="171" height="196" viewBox="0 0 171 196" fill="none" xmlns="http://www.w3.org/2000/svg">
<path d="M66.9031 100.537L64.7776 100.884C64.582 100.916 64.4493 101.1 64.4812 101.296V101.296C64.5131 101.491 64.6975 101.624 64.8931 101.592L66.7399 101.291C67.285 101.202 67.6548 100.688 67.5659 100.143L67.2648 98.2961C67.2329 98.1005 67.0485 97.9678 66.8529 97.9997V97.9997C66.6573 98.0316 66.5246 98.216 66.5565 98.4116L66.9031 100.537Z" fill="black"/>
<path d="M48.1463 158.005C123.736 103.1 141.761 48.8048 141.324 28.5204C141.984 20.9965 135.87 21.2629 132.731 22.3365C86.7632 34.3572 50.6396 113.373 38.3237 151.379C32.3507 149.438 20.3545 145.566 20.1541 145.599C13.6344 144.091 8.02881 147.19 6.041 148.929C1.95956 151.651 5.09094 154.14 7.16681 155.045L35.287 166.658L51.4504 185.364C55.0865 190.633 57.7778 191.317 58.669 191.001C60.9057 190.842 61.6418 184.002 61.7302 180.602C61.7574 177.615 59.1343 173.355 57.8193 171.598L48.1463 158.005Z" fill="#F2FBFF"/>
<path d="M132.639 95.5305C135.895 89.022 130.617 78.0276 127.571 73.3439L117.523 89.6069C120.632 88.9047 125.525 92.2021 127.582 93.9385C130.716 96.8962 132.259 96.2322 132.639 95.5305Z" fill="#C8EFFE"/>
<path d="M103.619 106.619C87.7855 110.435 69.105 102.048 61.3274 97.188C75.0252 69.5507 95.5401 47.0843 104.085 39.3057L104.167 39.8067C115.108 55.8155 128.195 60.4869 133.443 60.8739C125.997 78.2867 104.143 105.891 103.619 106.619Z" fill="#8AC9FE"/>
<path d="M38.6066 151.803C58.0832 89.5919 89.9764 51.3341 103.311 40.0748L113.099 50.4349C113.585 54.6754 89.9128 83.2705 74.5585 107.372C70.0516 113.635 49.3718 139.506 38.6066 151.803Z" fill="#60B7FF"/>
<path d="M55.1395 75.5815C61.7211 73.8409 75.8173 67.7595 82.0427 64.9363L62.6276 95.12C62.0859 88.7974 55.2741 82.7801 51.936 80.5618L55.1395 75.5815Z" fill="#C8EFFE"/>
<path d="M72.485 111.628L76.8871 105.511C72.6156 106.122 64.0307 107.401 63.863 107.635C61.9001 108.212 61.347 109.288 61.1841 110.128C61.1328 112.943 64.1307 112.729 65.5433 112.628L65.5768 112.626L72.485 111.628Z" fill="#528FD8"/>
<path d="M102.081 105.07C86.2473 108.886 69.105 102.048 61.3274 97.188C75.0252 69.5507 95.6989 45.43 103.794 39.0961L104.167 39.8067C115.108 55.8155 114.382 55.4111 119.631 55.7981C112.185 73.2109 102.605 104.342 102.081 105.07Z" fill="#8AC9FE"/>
<path d="M70.6397 112.511L76.0899 104.937L77.5464 105.985L72.3467 113.518L70.6397 112.511Z" fill="#DFF6FD"/>
<path d="M104.941 64.6822L109.343 58.5648C105.072 59.1756 96.487 60.4554 96.3193 60.6884C94.3564 61.2656 93.8033 62.3414 93.6404 63.1822C93.5891 65.9965 96.587 65.783 97.9996 65.6824L98.0331 65.68L104.941 64.6822Z" fill="#528FD8"/>
<path d="M96.8476 76.5439L101.25 70.4265C96.9782 71.0373 88.3933 72.3171 88.2256 72.5502C86.2628 73.1274 85.7097 74.2032 85.5468 75.044C85.4955 77.8583 88.4934 77.6447 89.9059 77.5441L89.9395 77.5418L96.8476 76.5439Z" fill="#528FD8"/>
<path d="M89.2549 88.324L93.657 82.2066C89.3855 82.8174 80.8006 84.0972 80.6329 84.3303C78.67 84.9074 78.1169 85.9833 77.9541 86.824C77.9028 89.6383 80.9007 89.4248 82.3132 89.3242L82.3467 89.3218L89.2549 88.324Z" fill="#528FD8"/>
<path d="M81.4988 99.1022L85.9009 92.9848C81.6294 93.5956 73.0445 94.8754 72.8768 95.1085C70.9139 95.6857 70.3608 96.7615 70.198 97.6023C70.1467 100.417 73.1446 100.203 74.5571 100.102L74.5906 100.1L81.4988 99.1022Z" fill="#528FD8"/>
<path d="M112.622 49.87C112.337 53.2025 88.4224 87.5776 76.5006 104.349C92.8358 111.019 98.5349 108.488 103.847 107.225C118.39 91.6039 129.815 70.6438 133.09 61.5042C128.912 61.6811 117.704 53.8218 112.622 49.87Z" fill="#F2FBFF"/>
<path fill-rule="evenodd" clip-rule="evenodd" d="M102.559 40.1973L103.027 41.3309C106.408 47.6919 115.04 60.7514 132.244 63.7692L134.369 58.666C119.2 56.0051 110.402 44.4997 107.463 38.9724L106.235 36.8731L102.559 40.1973Z" fill="#C8EFFE"/>
<path d="M122.28 38.8512C123.849 39.9803 126.036 39.6236 127.165 38.0547C128.294 36.4857 127.937 34.2985 126.368 33.1694C124.799 32.0404 122.612 32.397 121.483 33.966C120.354 35.535 120.711 37.7222 122.28 38.8512Z" fill="black"/>
</svg>
