<svg width="56" height="96" viewBox="0 0 56 96" fill="none" xmlns="http://www.w3.org/2000/svg">
<path fill-rule="evenodd" clip-rule="evenodd" d="M35.639 21.8745L37.2401 18.0611C38.2349 15.6918 37.1206 12.9646 34.7513 11.9698C32.382 10.9751 29.6548 12.0893 28.66 14.4587L27.059 18.272C26.0642 20.6414 27.1785 23.3685 29.5478 24.3633C31.9171 25.3581 34.6443 24.2438 35.639 21.8745ZM35.9521 9.10981C32.0032 7.45183 27.458 9.30898 25.8 13.2579L24.1989 17.0712C22.541 21.0201 24.3981 25.5654 28.347 27.2233C32.2959 28.8813 36.8411 27.0241 38.4991 23.0753L40.1002 19.2619C41.7581 15.313 39.901 10.7678 35.9521 9.10981Z" fill="#8A848D"/>
<path fill-rule="evenodd" clip-rule="evenodd" d="M23.4607 0.186242C24.0752 -0.139909 24.834 -0.0301359 25.3274 0.456311C25.5106 0.636835 25.6654 0.865848 25.7549 1.00125C25.8685 1.17318 25.9943 1.37861 26.1245 1.59941C26.386 2.04303 26.696 2.60079 27.0134 3.18717C27.6497 4.36271 28.3411 5.6998 28.7841 6.57313C29.1625 7.31911 28.8777 8.22652 28.1381 8.63157L15.2785 15.6739L21.5727 27.1965L37.2007 30.6751C37.3406 30.7063 37.4756 30.7561 37.6019 30.8231C39.8955 32.0405 42.8438 33.7684 45.6562 35.6955C48.5089 37.6502 51.323 39.8778 53.147 42.0397C54.0536 43.1143 54.8108 44.2824 55.1397 45.4842C55.4725 46.7006 55.3668 47.9902 54.5346 49.1133C54.1708 49.8113 53.5398 50.5565 52.6981 51.3041C51.7632 52.1344 50.4911 53.036 48.8295 53.9495C45.7477 55.6438 41.2753 57.4069 35.0035 58.8333L40.4046 86.9059C41.7132 87.9531 43.4346 89.3524 44.4216 90.604C44.7095 90.969 44.9899 91.3875 45.1765 91.8389C45.3599 92.2823 45.5112 92.902 45.322 93.5726C45.1185 94.294 44.6067 94.7804 44.0459 95.0714C43.5202 95.3442 42.9047 95.4759 42.2776 95.5377C42.2254 95.5429 42.1729 95.5454 42.1204 95.5454H33.1652C32.4722 95.5454 31.86 95.1004 31.6553 94.4477L23.0443 66.9857H21.7296L14.1455 94.3975C13.958 95.0753 13.3335 95.5454 12.6209 95.5454H4.19246C4.15201 95.5454 4.11158 95.5439 4.07125 95.5409C3.38116 95.4885 2.55762 95.3337 1.83106 94.9816C1.11241 94.6334 0.237627 93.9554 0.0390684 92.7757C-0.150845 91.6474 0.373879 90.5793 1.13046 89.6552C1.83074 88.7998 2.89002 87.8663 4.36187 86.8289L11.0478 56.9174C11.071 56.5467 11.1464 55.9893 11.2295 55.4197C11.3385 54.6717 11.4885 53.7293 11.6537 52.7283C11.9745 50.7843 12.3571 48.5937 12.6209 47.1172V36.2094L5.42637 22.5321C4.52998 20.8604 3.65859 18.1349 3.97816 15.2898C4.30951 12.3397 5.9214 9.35768 9.78498 7.44515L23.4607 0.186242ZM13.8687 58.7766L11.6856 68.5435H18.0225L18.9979 65.018C19.1854 64.3402 19.8099 63.8701 20.5225 63.8701H24.21C24.903 63.8701 25.5152 64.3152 25.7198 64.9678L26.841 68.5435H33.6547L32.0407 60.1545L13.8687 58.7766ZM35.0607 55.6189C35.264 54.242 35.4865 52.733 35.7171 51.1661C38.6182 50.5741 40.6853 49.894 42.121 49.238C42.9269 48.8698 43.5615 48.4966 44.0401 48.1306C44.312 47.9227 44.5936 47.6722 44.8226 47.3784C45.0057 47.2513 45.1842 47.089 45.3365 46.881C45.6627 46.4353 45.76 45.9282 45.7089 45.4681C45.6234 44.6965 45.128 44.083 44.8011 43.7249C44.3439 43.2242 43.7127 42.701 43.0282 42.1959L45.1452 39.1628C47.4102 40.7981 49.4135 42.487 50.7169 44.0319C51.4957 44.9551 51.9299 45.7175 52.0881 46.2956C52.2272 46.8039 52.1412 47.0816 51.9487 47.3189C51.8669 47.4196 51.7982 47.5299 51.744 47.6474C51.6501 47.8511 51.3319 48.3238 50.5824 48.9894C49.8546 49.6358 48.7848 50.4067 47.29 51.2284C44.6374 52.6868 40.6931 54.2798 35.0607 55.6189ZM42.5511 37.3829C41.0333 36.3898 39.51 35.4691 38.1161 34.675C37.9655 35.7427 37.7667 37.1285 37.5379 38.71C37.7308 38.8261 37.9517 38.9577 38.1977 39.1041C38.2684 39.1462 38.3412 39.1895 38.4159 39.2341C39.0032 39.584 39.6975 39.9995 40.4131 40.4459L42.5511 37.3829ZM36.8562 38.282C36.8566 38.2822 36.8597 38.2845 36.8652 38.2887C36.8586 38.2839 36.8558 38.2818 36.8562 38.282ZM37.0511 42.0616C37.9428 42.5943 38.9882 43.2276 39.959 43.8721C40.927 44.5148 41.7236 45.1062 42.2193 45.5744C42.1894 45.6004 42.1511 45.6319 42.1029 45.6688C41.8599 45.8546 41.4443 46.1132 40.7918 46.4113C39.7983 46.8653 38.3197 47.382 36.2013 47.871C36.4906 45.8995 36.7806 43.9177 37.0511 42.0616ZM35.1037 33.4024C35.0723 33.6289 35.0371 33.8802 34.9985 34.1542C34.8176 35.438 34.5629 37.2096 34.2679 39.244C33.8156 42.3625 33.2691 46.0948 32.7498 49.6264C32.3534 52.3228 31.9729 54.9019 31.6625 57.001L14.3833 55.6908C14.4859 54.9988 14.6221 54.1448 14.7733 53.2286C15.1011 51.2427 15.4949 48.9911 15.7575 47.5242C15.7735 47.4348 15.7815 47.3442 15.7815 47.2535V35.8296C15.7815 35.58 15.7207 35.3341 15.6041 35.1125L11.8612 27.9968L16.5825 24.6328L19.1311 29.2984C19.3479 29.6952 19.7284 29.9801 20.1745 30.0794L35.1037 33.4024ZM15.0709 21.8655L11.7562 15.7974C11.3463 15.0469 11.6243 14.111 12.3802 13.6971L25.2738 6.63605C24.9414 5.99628 24.5738 5.2985 24.2248 4.65387C24.0228 4.28061 23.8297 3.93008 23.6551 3.62165L11.263 10.1992C11.2489 10.2067 11.2348 10.2139 11.2205 10.2209C8.35725 11.6322 7.34075 13.664 7.11962 15.6327C6.88646 17.7085 7.54021 19.8091 8.223 21.0804L8.22932 21.0922L10.3903 25.2005L15.0709 21.8655ZM34.2541 71.6591H27.8179L32.3769 86.1986H37.0515L34.2541 71.6591ZM38.3985 89.3142H33.3539L34.3308 92.4298H41.8568C41.0939 91.4993 39.7119 90.3679 38.3985 89.3142ZM17.1605 71.6591H10.9892L7.73924 86.1986H13.1378L17.1605 71.6591ZM12.2758 89.3142H6.27014C4.88353 90.2856 4.05297 91.0464 3.59007 91.6118C3.37173 91.8785 3.26459 92.0643 3.21209 92.1791C3.21637 92.1812 3.22076 92.1833 3.22529 92.1855C3.4598 92.2992 3.83002 92.3922 4.25767 92.4298H11.4138L12.2758 89.3142ZM3.08102 92.0979C3.08144 92.0978 3.08493 92.1006 3.09029 92.1067C3.08329 92.101 3.08061 92.098 3.08102 92.0979Z" fill="#8A848D"/>
</svg>
