<svg width="60" height="35" viewBox="0 0 60 35" fill="none" xmlns="http://www.w3.org/2000/svg">
<path d="M44.6825 18.591C44.6825 18.2853 44.2266 13.3938 44.3786 13.0881L46.6583 12.3238L45.8984 25.4696C46.3847 25.5919 46.6908 26.2088 47.4001 26.3617C48.1501 28.4468 46.652 30.2301 46.5001 30.383C42.4501 31.4255 43.0501 27.8511 44.0746 27.2882C43.9501 26.2128 44.3786 20.8838 44.6825 18.591Z" fill="#3E3E3E"/>
<path d="M28.7783 17.6738C27.4409 16.5733 26.1408 12.9862 25.5328 11.5595C22.3716 13.5161 18.4436 15.7376 17.0758 16.2981C13.4282 16.2981 10.5912 18.2343 9.62869 19.2024C5.85956 22.871 4.51199 23.4824 4.30935 23.3296C1.99924 22.9627 1.42171 23.8901 1.42171 24.3996L0.0538731 30.2082C-0.40207 31.4311 2.18161 30.9725 2.33359 30.9725C3.42785 30.361 2.48557 29.3929 1.87765 28.9853L6.43708 24.7053L16.1639 20.731C17.6229 20.8533 19.3048 20.4762 19.9634 20.2724C21.0577 20.6393 26.3466 18.6419 28.7783 17.6738Z" fill="white"/>
<path d="M35.4116 14.6166C35.5332 11.9263 34.1451 9.11367 33.4359 8.04366C28.8156 7.79909 25.8368 10.5403 25.0769 11.865C25.1985 13.577 27.3566 16.5527 28.4205 17.8265C29.15 17.8265 30.6495 17.1132 31.3081 16.7565C31.7945 16.1451 34.3478 15.0242 35.4116 14.6166Z" fill="white"/>
<path d="M55.929 0.095164C52.0383 -0.638555 51.1669 3.05042 51.2176 4.98662L50.0017 5.59805C50.7312 5.96491 50.8123 8.40045 50.9136 9.57236L52.5854 8.96093L53.6493 10.1838C54.6219 10.4284 57.7527 8.80807 59.4245 6.36234C61.4003 1.92946 57.8034 0.349927 55.929 0.095164Z" fill="white"/>
<path d="M50.3058 5.59799C47.1446 2.54083 37.6407 6.05656 33.2839 8.19657C34.0438 9.62326 35.4725 12.9046 35.1077 14.6166C36.1209 14.3109 38.4817 13.6995 39.8191 13.6995L46.2115 12.9352C46.3743 15.1592 46.222 18.0961 46.0504 19.9667C45.1993 29.3828 45.9997 32.3482 46.5063 32.6539C47.2501 33.1027 47.3981 33.0106 47.5501 32.6539C47.7932 31.431 45.9312 31.7492 47.5501 30.0851C47.1001 27.1063 48.8367 24.1448 49.6979 21.4953V13.5466C52.1296 9.87804 51.1164 6.71896 50.3058 5.59799Z" fill="white"/>
<path d="M49.6979 13.5467V21.4953C49.2001 24.7234 47.5501 30.234 47.5501 31.5744C48.3278 33.1188 48.0344 34.1002 47.4866 34.5997C47.1892 34.8709 46.8168 35 46.5001 35C45.5946 35 44.9621 34.8665 44.55 34.5997C44.2081 34.3782 44.0181 34.0648 43.95 33.6595C43.8949 33.331 43.95 32.1702 44.7946 31.5744C44.8967 29.5456 45.4962 26.0985 46.0504 19.9667C46.2221 18.0961 46.3744 15.1592 46.2115 12.9352C46.4474 12.9352 48.6341 13.3429 49.6979 13.5467Z" fill="white"/>
</svg>
