<svg width="50" height="66" viewBox="0 0 50 66" fill="none" xmlns="http://www.w3.org/2000/svg">
<rect x="2.10522" width="3.15789" height="65.5526" rx="1.57895" fill="white"/>
<rect x="44.4736" width="3.15789" height="65.5526" rx="1.57895" fill="white"/>
<rect y="3.25055" width="50" height="2.16703" rx="1.08351" fill="white"/>
<path d="M25.2909 0C22.8974 0 22.5112 2.75208 22.6173 4.12812C22.0571 4.65232 22.5536 5.22021 22.8719 5.43863C23.0756 5.70073 23.0841 6.94572 23.0629 7.53545H27.2006V6.35599C27.2006 6.09389 27.4128 5.72257 27.5189 5.56968C28.4865 5.51726 28.2616 4.36838 28.0282 3.80049C28.0282 0.917359 26.2033 0.0655257 25.2909 0Z" fill="white"/>
<path d="M29.0468 7.53545C28.4102 8.25623 27.3281 7.6665 27.1371 7.53545L23.063 7.46993C23.012 8.04655 21.9808 8.14703 21.4715 8.12518C19.6382 6.44773 17.1852 8.43097 16.1879 9.63227C14.8638 9.16049 13.7265 10.2657 13.3233 10.8773C13.527 10.5627 12.7716 9.4357 12.3684 8.91149L12.2411 5.43863C13.6161 2.5555 12.7291 2.31524 12.1138 2.5555C12.0119 2.0313 11.5196 2.20604 11.2862 2.35893C11.0316 1.88715 10.5011 2.16236 10.2677 2.35893C9.80937 1.78231 9.31284 2.20604 9.12186 2.48998C8.56167 3.69566 9.48259 5.17654 10.0131 5.76627C9.40196 11.1656 10.2677 14.088 10.777 14.8743C11.8464 15.5558 13.2172 14.9835 13.7689 14.6122C15.1439 14.9792 17.355 13.6293 18.2886 12.9086C18.1358 13.59 18.8191 14.5904 19.1798 15.0054C18.9252 16.3683 19.7527 18.5001 20.1984 19.3956C19.9437 19.6053 19.9649 22.2787 20.0074 23.5892H29.7471V22.8685V19.2645C30.3072 18.5831 30.8717 15.5733 31.0839 14.1535C31.4658 13.8914 31.9539 13.1051 32.1661 12.5154C32.7772 14.0356 35.1368 14.6341 36.2402 14.7433C36.8513 15.4247 38.5743 15.0272 39.3594 14.7433C40.0215 13.2755 40.1445 8.32177 40.1233 6.02837C40.8872 5.39932 41.0357 3.84418 41.0145 3.14524C41.1673 2.41135 40.6114 2.48998 40.3143 2.62103C40.1615 2.20167 39.7838 2.40261 39.614 2.5555C39.4103 2.03128 38.8926 2.33707 38.6592 2.5555C38.3536 1.97887 37.8104 2.48997 37.577 2.8176C36.6094 3.44665 37.386 5.08916 37.8953 5.83178L37.9589 5.89731V8.25623C37.908 8.83286 37.0465 10.0691 36.6221 10.6152C35.9092 9.4619 34.3729 9.34833 33.6939 9.43569C32.93 7.6665 29.6834 6.81467 29.0468 7.53545Z" fill="white"/>
<path d="M13.7689 14.6122C15.1439 14.9792 17.355 13.6293 18.2886 12.9086L16.1879 9.63227C14.8638 9.16049 13.7265 10.2657 13.3233 10.8773C13.527 10.5627 12.7716 9.4357 12.3684 8.91149L12.2411 5.43863C13.6161 2.5555 12.7291 2.31524 12.1138 2.5555C12.0119 2.0313 11.5196 2.20604 11.2862 2.35893C11.0316 1.88715 10.5011 2.16236 10.2677 2.35893C9.80937 1.78231 9.31284 2.20604 9.12186 2.48998C8.56167 3.69566 9.48259 5.17654 10.0131 5.76627C9.40196 11.1656 10.2677 14.088 10.777 14.8743C11.8464 15.5558 13.2172 14.9835 13.7689 14.6122Z" fill="white"/>
<path d="M25.2909 0C22.8974 0 22.5112 2.75208 22.6173 4.12812C22.0571 4.65232 22.5536 5.22021 22.8719 5.43863C23.0756 5.70073 23.0841 6.94572 23.0629 7.53545H27.2006V6.35599C27.2006 6.09389 27.4128 5.72257 27.5189 5.56968C28.4865 5.51726 28.2616 4.36838 28.0282 3.80049C28.0282 0.917359 26.2033 0.0655257 25.2909 0Z" fill="white"/>
<path d="M36.6221 10.6151C35.9091 9.46184 34.3728 9.34827 33.6938 9.43563L32.166 12.5153C32.7771 14.0356 35.1367 14.634 36.2401 14.7432C36.8512 15.4247 38.5743 15.0272 39.3594 14.7432C40.0214 13.2754 40.1445 8.32171 40.1233 6.02831C40.8872 5.39926 41.0357 3.84412 41.0145 3.14518C41.1673 2.41129 40.6113 2.48992 40.3142 2.62098C40.1615 2.20161 39.7838 2.40255 39.614 2.55544C39.4103 2.03122 38.8925 2.33701 38.6591 2.55544C38.3536 1.97881 37.8104 2.48991 37.5769 2.81754C36.6093 3.44659 37.386 5.0891 37.8952 5.83172L37.9589 5.89725V8.25617C37.908 8.8328 37.0465 10.069 36.6221 10.6151Z" fill="white"/>
<path d="M19.9436 23.5237H29.8106C29.8106 24.1528 30.1926 25.2711 30.3835 25.7516C30.7018 26.3413 31.0413 28.875 31.0838 30.2729C30.931 30.6398 31.4021 33.9642 31.6567 35.5805C31.7083 35.9081 31.7203 36.1265 31.6567 36.2357C30.9946 36.8648 27.3067 36.7599 25.5455 36.6289C25.5964 35.895 25.3121 34.5321 25.1636 33.9423C25.0108 33.9423 24.718 35.9081 24.5907 36.891C21.7897 38.3063 19.1797 37.306 18.2249 36.6289C18.6832 35.8426 18.628 34.6413 18.5431 34.1389C18.645 33.5623 18.5007 31.3213 18.4158 30.2729C18.2249 29.4866 19.6253 25.1619 19.6253 24.9653C19.3707 23.9693 19.7314 23.5893 19.9436 23.5237Z" fill="white"/>
<path d="M23.6357 47.5061C22.1588 46.3529 21.2379 42.8757 20.9621 41.2812C20.6013 40.8225 19.9435 39.7217 20.1982 38.9878C20.2406 38.6165 20.2364 37.7428 20.1345 37.4807C20.9621 37.6118 22.7445 37.7428 23.954 37.2186L23.8267 40.1673C24.1662 40.8444 24.8834 42.2248 25.0362 42.3296C25.503 41.6962 26.4621 40.4294 26.564 40.4294C26.6913 40.4294 26.4367 36.7599 26.564 36.6944H28.6647L30.8291 36.5634C30.5744 37.2186 30.3198 38.4636 30.3198 39.381C30.3707 39.6431 29.9591 40.1891 29.7469 40.4294C30.4598 41.6875 27.7947 45.4967 26.373 47.244C26.4749 47.2965 26.9671 49.1006 27.2006 49.9961C27.608 50.101 27.9645 51.2193 28.0918 51.7653C28.652 51.7653 28.9193 52.4206 28.983 52.7482C30.1543 53.5345 30.3622 54.3863 30.3198 54.714C29.9124 54.8188 28.5374 55.7624 27.9008 56.2211C25.4054 57.6888 23.8903 57.2695 23.4447 56.8763C23.1901 56.719 23.9328 55.7187 24.3359 55.2382C22.6045 54.1373 21.9594 53.2942 21.8533 53.0103C22.0061 52.7482 21.6199 52.2021 21.4077 51.9619C20.7456 51.3328 21.5562 50.5203 22.0443 50.1927C22.248 49.983 23.1901 48.3143 23.6357 47.5061Z" fill="white"/>
</svg>
