<svg width="190" height="235" viewBox="0 0 190 235" fill="none" xmlns="http://www.w3.org/2000/svg">
<rect x="8" width="12" height="235" rx="2" fill="#D9D9D9"/>
<rect x="169" width="12" height="235" rx="2" fill="#D9D9D9"/>
<rect y="11.653" width="190" height="7.7686" rx="3" fill="#CACACA"/>
<path d="M96.1062 0C87.0107 0 85.5432 9.86594 85.9464 14.7989C83.8176 16.6781 85.7045 18.714 86.914 19.497C87.688 20.4366 87.7203 24.8997 87.6397 27.0139H103.363V22.7856C103.363 21.846 104.17 20.5149 104.573 19.9668C108.25 19.7789 107.395 15.6602 106.508 13.6244C106.508 3.28865 99.5734 0.234903 96.1062 0Z" fill="#E4CBBE"/>
<path d="M110.378 27.0139C107.959 29.5978 103.847 27.4837 103.121 27.0139L87.6397 26.779C87.4461 28.8461 83.5274 29.2063 81.5922 29.128C74.6254 23.1145 65.3042 30.2242 61.5144 34.5308C56.4829 32.8395 52.1609 36.8015 50.6289 38.994C51.403 37.8664 48.5324 33.8261 47.0004 31.9469L46.5166 19.497C51.7416 9.16124 48.3712 8.29993 46.0328 9.16124C45.6457 7.28201 43.7751 7.90844 42.8881 8.45655C41.9205 6.76527 39.9046 7.75185 39.0177 8.45655C37.276 6.3894 35.3892 7.90844 34.6635 8.92636C32.5347 13.2486 36.0342 18.5574 38.0501 20.6715C35.7278 40.0276 39.0177 50.5042 40.9529 53.3231C45.0168 55.7661 50.2257 53.7146 52.3222 52.3835C57.5472 53.6989 65.9492 48.8599 69.4971 46.276C68.9166 48.719 71.513 52.3052 72.8837 53.7929C71.9161 58.6789 75.0608 66.3211 76.7541 69.5314C75.7865 70.2831 75.8672 79.8671 76.0284 84.5652H113.039V81.9813V69.0616C115.168 66.6186 117.313 55.8287 118.119 50.7391C119.571 49.7995 121.425 46.9807 122.231 44.8666C124.554 50.3163 133.52 52.4618 137.713 52.8533C140.035 55.2963 146.583 53.8712 149.566 52.8533C152.082 47.5914 152.55 29.8328 152.469 21.6111C155.372 19.3561 155.936 13.781 155.856 11.2754C156.436 8.64448 154.324 8.92636 153.195 9.39617C152.614 7.89278 151.179 8.61313 150.534 9.16122C149.76 7.28195 147.792 8.37819 146.905 9.16122C145.744 7.09407 143.68 8.92632 142.793 10.1008C139.116 12.3559 142.067 18.2442 144.002 20.9064L144.244 21.1413V29.5978C144.051 31.665 140.777 36.0968 139.164 38.0543C136.455 33.92 130.617 33.5129 128.037 33.8261C125.134 27.4837 112.797 24.4299 110.378 27.0139Z" fill="#C76B42"/>
<path d="M52.3222 52.3835C57.5472 53.6989 65.9492 48.8599 69.4971 46.276L61.5144 34.5308C56.4829 32.8395 52.1609 36.8015 50.6289 38.994C51.403 37.8664 48.5324 33.8261 47.0004 31.9469L46.5166 19.497C51.7416 9.16124 48.3712 8.29993 46.0328 9.16124C45.6457 7.28201 43.7751 7.90844 42.8881 8.45655C41.9205 6.76527 39.9046 7.75185 39.0177 8.45655C37.276 6.3894 35.3892 7.90844 34.6635 8.92636C32.5347 13.2486 36.0342 18.5574 38.0501 20.6715C35.7278 40.0276 39.0177 50.5042 40.9529 53.3231C45.0168 55.7661 50.2257 53.7146 52.3222 52.3835Z" fill="#E4CBBE"/>
<path d="M96.1062 0C87.0108 0 85.5432 9.86594 85.9464 14.7989C83.8177 16.6781 85.7045 18.714 86.914 19.497C87.6881 20.4366 87.7204 24.8997 87.6397 27.0139H103.363V22.7856C103.363 21.846 104.17 20.5149 104.573 19.9668C108.25 19.7789 107.395 15.6602 106.508 13.6244C106.508 3.28865 99.5735 0.234903 96.1062 0Z" fill="#E4CBBE"/>
<path d="M139.164 38.0543C136.455 33.92 130.617 33.5128 128.037 33.826L122.231 44.8665C124.554 50.3163 133.52 52.4617 137.713 52.8532C140.035 55.2962 146.583 53.8711 149.566 52.8532C152.082 47.5914 152.55 29.8327 152.469 21.6111C155.372 19.356 155.936 13.781 155.856 11.2753C156.436 8.64441 154.324 8.9263 153.195 9.3961C152.614 7.89272 151.179 8.61307 150.534 9.16116C149.76 7.28189 147.792 8.37813 146.905 9.16116C145.744 7.09401 143.68 8.92626 142.793 10.1008C139.116 12.3558 142.067 18.2441 144.002 20.9063L144.244 21.1412V29.5977C144.051 31.6649 140.777 36.0967 139.164 38.0543Z" fill="#E4CBBE"/>
<path d="M75.7866 84.3304H113.281C113.281 86.5855 114.733 90.5945 115.458 92.3171C116.668 94.4312 117.958 103.514 118.119 108.525C117.539 109.841 119.329 121.758 120.296 127.553C120.492 128.727 120.538 129.51 120.296 129.902C117.78 132.157 103.766 131.781 97.0738 131.311C97.2673 128.68 96.1868 123.794 95.6224 121.68C95.0418 121.68 93.9291 128.727 93.4453 132.251C82.8017 137.325 72.8838 133.738 69.2552 131.311C70.9969 128.492 70.7873 124.186 70.4648 122.385C70.8518 120.318 70.3035 112.284 69.9809 108.525C69.2552 105.707 74.5771 90.203 74.5771 89.4983C73.6095 85.9277 74.9802 84.5653 75.7866 84.3304Z" fill="#639A60"/>
<path d="M89.8168 170.305C84.2047 166.171 80.7052 153.705 79.657 147.989C78.2862 146.345 75.7866 142.399 76.7542 139.768C76.9154 138.437 76.8993 135.304 76.5123 134.365C79.657 134.835 86.4302 135.304 91.0263 133.425L90.5425 143.996C91.8326 146.423 94.558 151.372 95.1386 151.748C96.9125 149.477 100.557 144.935 100.944 144.935C101.428 144.935 100.46 131.781 100.944 131.546H108.927L117.152 131.076C116.184 133.425 115.216 137.888 115.216 141.177C115.41 142.117 113.846 144.074 113.039 144.935C115.749 149.446 105.621 163.101 100.219 169.365C100.606 169.553 102.476 176.021 103.363 179.231C104.911 179.607 106.266 183.616 106.75 185.574C108.879 185.574 109.895 187.923 110.136 189.097C114.587 191.916 115.378 194.97 115.216 196.144C113.668 196.52 108.443 199.903 106.024 201.547C96.5416 206.809 90.7844 205.306 89.0911 203.896C88.1235 203.332 90.9457 199.746 92.4777 198.024C85.898 194.077 83.4467 191.055 83.0436 190.037C83.6241 189.097 82.1566 187.14 81.3503 186.278C78.8345 184.023 81.9147 181.111 83.7693 179.936C84.5434 179.184 88.1235 173.202 89.8168 170.305Z" fill="#E4CBBE"/>
</svg>
