<svg width="200" height="110" viewBox="0 0 200 110" fill="none" xmlns="http://www.w3.org/2000/svg">
<path d="M148.942 62.4126C148.942 61.3863 147.422 44.9649 147.928 43.9386L155.527 41.3728L152.994 85.5051C154.616 85.9156 159.749 87.0446 162.113 87.5577C166.977 90.842 167.179 92.6894 166.673 93.2026C151.272 96.0763 147.084 92.0052 146.915 89.6104C146.105 86.3261 147.928 70.1101 148.942 62.4126Z" fill="#DAC1B4"/>
<path d="M95.9277 59.3336C91.4696 55.6388 87.1359 43.5965 85.1095 38.8069C74.5721 45.3754 61.4787 52.8335 56.9192 54.7151C44.7607 54.7151 35.3041 61.2152 32.0956 64.4652C19.5319 76.7812 15.04 78.8339 14.3645 78.3207C6.66412 77.0891 4.73902 80.2023 4.73902 81.9129L0.179577 101.413C-1.34023 105.519 7.27203 103.979 7.77864 103.979C11.4262 101.926 8.28524 98.6763 6.25882 97.3079L21.4569 82.9392L53.8796 69.5969C58.743 70.0074 64.3494 68.7416 66.5447 68.0574C70.1922 69.289 87.8221 62.5836 95.9277 59.3336Z" fill="#E4CBBE"/>
<path d="M118.039 49.0702C118.444 40.0384 113.817 30.5961 111.453 27.0039C96.0521 26.1828 86.1226 35.3854 83.5896 39.8328C83.9949 45.5803 91.1887 55.5699 94.7349 59.8463C97.1666 59.8463 102.165 57.4515 104.36 56.2541C105.982 54.2015 114.492 50.4386 118.039 49.0702Z" fill="#669E62"/>
<path d="M186.43 0.319479C173.461 -2.14372 170.557 10.2407 170.725 16.7408L166.673 18.7935C169.104 20.0251 169.375 28.2015 169.712 32.1358L175.285 30.0831L178.831 34.1884C182.073 35.0095 192.509 29.5699 198.082 21.3593C204.668 6.47747 192.678 1.17476 186.43 0.319479Z" fill="#E4CBBE"/>
<path d="M167.686 18.7934C157.149 8.53009 125.469 20.3329 110.946 27.5172C113.479 32.3068 118.241 43.3229 117.026 49.0703C120.403 48.044 128.272 45.9913 132.73 45.9913L154.038 43.4255C154.581 50.8917 154.073 60.7513 153.501 67.0312C150.664 98.6423 153.332 108.598 155.021 109.624C170.422 110.856 175.285 108.769 175.792 107.571C176.602 103.466 164.984 101.755 159.074 101.413C157.452 99.3606 162.789 81.0577 165.659 72.1628V45.4782C173.765 33.1622 170.388 22.5567 167.686 18.7934Z" fill="#C76B42"/>
<path d="M165.659 72.1629V45.4782C162.113 44.794 154.824 43.4256 154.038 43.4256C154.581 50.8918 154.073 60.7513 153.501 67.0312C150.664 98.6423 153.332 108.598 155.021 109.624C170.422 110.856 175.285 108.769 175.792 107.571C176.602 103.466 164.984 101.755 159.074 101.413C157.452 99.3607 162.789 81.0577 165.659 72.1629Z" fill="#E4CBBE"/>
</svg>
