<svg width="60" height="35" viewBox="0 0 60 35" fill="none" xmlns="http://www.w3.org/2000/svg">
<path d="M44.6685 19.6945C44.6685 19.3679 44.2126 14.143 44.3646 13.8164L46.6443 13L45.8844 27.0421C46.3707 27.1727 47.9108 27.5319 48.62 27.6952C50.0791 28.7402 50.1398 29.328 49.9879 29.4913C45.3676 30.4057 44.1113 29.1103 44.0606 28.3483C43.8174 27.3034 44.3646 22.1437 44.6685 19.6945Z" fill="#3E3E3E"/>
<path d="M28.7783 18.8789C27.4409 17.7033 26.1407 13.8716 25.5328 12.3477C22.3716 14.4376 18.4436 16.8107 17.0758 17.4093C13.4282 17.4093 10.5912 19.4776 9.62868 20.5117C5.85955 24.4304 4.51199 25.0835 4.30935 24.9202C1.99923 24.5284 1.42171 25.5189 1.42171 26.0632L0.0538731 32.2679C-0.40207 33.5741 2.18161 33.0843 2.33359 33.0843C3.42785 32.4311 2.48557 31.397 1.87765 30.9616L6.43708 26.3898L16.1639 22.1445C17.6229 22.2751 19.3048 21.8723 19.9634 21.6546C21.0577 22.0465 26.3466 19.913 28.7783 18.8789Z" fill="white"/>
<path d="M35.4116 15.6133C35.5332 12.7395 34.1451 9.73516 33.4359 8.59219C28.8156 8.33095 25.8368 11.259 25.0769 12.6741C25.1985 14.5029 27.3566 17.6814 28.4205 19.0421C29.15 19.0421 30.6495 18.2801 31.3081 17.8991C31.7945 17.246 34.3478 16.0487 35.4116 15.6133Z" fill="white"/>
<path d="M55.929 0.101653C52.0383 -0.682093 51.1669 3.25841 51.2176 5.32662L50.0017 5.97974C50.7312 6.37161 50.8123 8.97321 50.9136 10.225L52.5854 9.57191L53.6493 10.8782C54.6219 11.1394 57.7527 9.40863 59.4245 6.79614C61.4003 2.06102 57.8034 0.373786 55.929 0.101653Z" fill="white"/>
<path d="M50.3058 5.9798C47.1446 2.7142 37.6407 6.46964 33.2839 8.75557C34.0438 10.2795 35.4725 13.7846 35.1077 15.6134C36.1209 15.2868 38.4817 14.6337 39.8191 14.6337L46.2115 13.8173C46.3743 16.1929 46.222 19.33 46.0503 21.3282C45.1993 31.3863 45.9997 34.5539 46.5063 34.8805C51.1265 35.2723 52.5855 34.6083 52.7375 34.2273C52.9807 32.9211 49.4953 32.3768 47.7221 32.268C47.2358 31.6148 48.8367 25.7912 49.6979 22.961V14.4704C52.1296 10.5517 51.1164 7.1772 50.3058 5.9798Z" fill="white"/>
<path d="M49.6978 22.9608V14.4703C48.6339 14.2526 46.4472 13.8171 46.2114 13.8171C46.3742 16.1927 46.2219 19.3299 46.0502 21.328C45.1991 31.3861 45.9996 34.5537 46.5062 34.8803C51.1264 35.2722 52.5854 34.6082 52.7374 34.2272C52.9806 32.9209 49.4951 32.3767 47.722 32.2678C47.2357 31.6147 48.8366 25.791 49.6978 22.9608Z" fill="white"/>
</svg>
