<svg width="19" height="31" viewBox="0 0 19 31" fill="none" xmlns="http://www.w3.org/2000/svg">
<path d="M12.049 26.49C12.049 28.4671 10.4756 30.0698 8.53473 30.0698C6.59383 30.0698 5.02042 28.4671 5.02042 26.49C5.02042 24.513 6.59383 22.9103 8.53473 22.9103C10.4756 22.9103 12.049 24.513 12.049 26.49Z" fill="#EFEFEF"/>
<path d="M5.6229 8.21378H0C0.56229 0.686072 6.72739 -0.200342 10.1413 0.0314886C16.1658 0.440603 18.1405 4.22491 18.3748 6.06593C19.4191 10.1571 16.6607 13.3254 15.0613 14.2482C11.7478 16.16 10.978 19.1235 11.1454 20.5895H5.92412C5.76347 15.4347 7.02862 13.8391 9.0368 12.5095C11.0629 11.168 12.3168 9.74796 12.5511 8.92973C12.9527 5.65682 10.5764 4.70221 9.33802 4.63403C6.28559 4.63403 5.58943 7.02053 5.6229 8.21378Z" fill="#EFEFEF"/>
</svg>
