<svg width="26" height="40" viewBox="0 0 26 40" fill="none" xmlns="http://www.w3.org/2000/svg">
<path d="M16.5686 35.3488C16.5686 37.9176 14.5242 40 12.0024 40C9.4806 40 7.43626 37.9176 7.43626 35.3488C7.43626 32.78 9.4806 30.6976 12.0024 30.6976C14.5242 30.6976 16.5686 32.78 16.5686 35.3488Z" fill="white"/>
<path fill-rule="evenodd" clip-rule="evenodd" d="M12.0024 38.1395C13.5155 38.1395 14.7421 36.8901 14.7421 35.3488C14.7421 33.8075 13.5155 32.5581 12.0024 32.5581C10.4893 32.5581 9.26273 33.8075 9.26273 35.3488C9.26273 36.8901 10.4893 38.1395 12.0024 38.1395ZM12.0024 40C14.5242 40 16.5686 37.9176 16.5686 35.3488C16.5686 32.78 14.5242 30.6976 12.0024 30.6976C9.4806 30.6976 7.43626 32.78 7.43626 35.3488C7.43626 37.9176 9.4806 40 12.0024 40Z" fill="#3E3E3E"/>
<path d="M8.21909 11.6024H0.913239C1.64382 1.82164 9.65417 0.669916 14.0899 0.971135C21.9176 1.5027 24.4833 6.41967 24.7877 8.81171C26.1445 14.1274 22.5605 18.244 20.4825 19.443C16.1772 21.927 15.177 25.7775 15.3945 27.6822H8.61047C8.40174 20.9845 10.0456 18.9114 12.6548 17.1838C15.2873 15.4408 16.9165 13.5958 17.2209 12.5327C17.7428 8.28014 14.6552 7.03983 13.0462 6.95123C9.08014 6.95123 8.1756 10.052 8.21909 11.6024Z" fill="white"/>
<path fill-rule="evenodd" clip-rule="evenodd" d="M5.6745 1.68955C8.53778 0.0971571 11.848 -0.113409 14.1506 0.0429532C22.3598 0.600425 25.2926 5.79081 25.6855 8.63281C26.4111 11.5383 25.7936 14.1187 24.7251 16.1162C23.6617 18.104 22.1277 19.5628 20.9326 20.2524C16.9415 22.5552 16.1272 26.0475 16.3016 27.5748C16.3317 27.8384 16.2498 28.1026 16.0765 28.3009C15.9032 28.4991 15.655 28.6125 15.3945 28.6125H8.61047C8.11739 28.6125 7.71334 28.2138 7.6977 27.7118C7.59132 24.2985 7.95027 21.9397 8.7465 20.1799C9.55762 18.3872 10.7766 17.3179 12.1571 16.4039C13.4249 15.5645 14.4356 14.7104 15.1559 13.9551C15.8565 13.2205 16.2107 12.6538 16.3246 12.3331C16.5256 10.5284 15.9746 9.48528 15.3135 8.86433C14.6053 8.19906 13.6649 7.92238 13.0206 7.88151C11.3216 7.88798 10.3887 8.53803 9.85854 9.25506C9.29179 10.0216 9.1148 10.9648 9.13194 11.5758C9.13899 11.8271 9.04595 12.0705 8.87399 12.2507C8.70204 12.431 8.46581 12.5327 8.21908 12.5327H0.913234C0.658991 12.5327 0.416257 12.4247 0.243434 12.2347C0.070611 12.0448 -0.0166542 11.7901 0.00263458 11.5318C0.39064 6.33738 2.74601 3.31822 5.6745 1.68955ZM1.92921 10.6722H7.36848C7.48954 9.87196 7.79564 8.95261 8.39957 8.13579C9.29967 6.91841 10.7953 6.02099 13.0462 6.02099C13.0626 6.02099 13.079 6.02144 13.0955 6.02235C14.0597 6.07544 15.4531 6.46465 16.5517 7.49662C17.696 8.5715 18.4211 10.2521 18.1271 12.648C18.1211 12.6971 18.1112 12.7456 18.0976 12.7931C17.8811 13.5495 17.2674 14.4111 16.4659 15.2515C15.6374 16.1203 14.5172 17.0602 13.1525 17.9638C11.9238 18.7773 11.0162 19.6084 10.4053 20.9586C9.8388 22.2106 9.49127 23.9898 9.50639 26.752H14.4669C14.6163 24.3831 16.0459 20.9337 20.0324 18.6336C20.9153 18.1242 22.2123 16.9251 23.1212 15.226C24.0183 13.5491 24.5133 11.4334 23.9039 9.04578C23.8942 9.00812 23.887 8.96988 23.8821 8.93129C23.6332 6.97566 21.4179 2.40106 14.0291 1.89931C11.896 1.75445 8.98322 1.96914 6.54975 3.32249C4.35997 4.54033 2.47212 6.72428 1.92921 10.6722Z" fill="#3E3E3E"/>
</svg>
