<svg width="36" height="42" viewBox="0 0 36 42" fill="none" xmlns="http://www.w3.org/2000/svg">
<path d="M11.1474 3.58034C12.2759 2.47871 15.05 5.27871 16.3665 6.88526V3.02953C16.2254 0.688542 17.2128 0.413132 17.777 0.413132C19.0465 0.413132 19.2346 2.01969 19.1876 2.89182V15.6984L24.6887 10.1902L26.8045 12.2558L19.1876 19.6918V31.5344L28.2151 22.5836L30.3309 24.6492L19.1876 35.5279V41.0361H16.3665V28.0918L5.78735 17.3508L7.62107 15.6984L16.3665 24.0984V10.741C10.3857 5.78362 10.4422 4.26887 11.1474 3.58034Z" fill="#85573C"/>
<path d="M19.1875 35.5279V41.0361H17.7769V0.413132C19.0464 0.413132 19.2345 2.01969 19.1875 2.89182V15.6984L24.6886 10.1902L26.8045 12.2558L19.1875 19.6918V31.5344L28.215 22.5836L30.3308 24.6492L19.1875 35.5279Z" fill="#6D3D20"/>
<path fill-rule="evenodd" clip-rule="evenodd" d="M16.2991 0.701577C16.7597 0.111394 17.3617 0 17.777 0C18.2004 0 18.5918 0.09295 18.9241 0.309285C19.2566 0.525645 19.4707 0.826758 19.6078 1.1432C19.8651 1.73682 19.8928 2.49191 19.8928 3.16721V14.2813L24.1837 9.98491C24.3153 9.85309 24.4956 9.77823 24.6842 9.77706C24.8728 9.7759 25.054 9.84852 25.1874 9.97871L27.3032 12.0443C27.5786 12.3132 27.5786 12.7491 27.3032 13.018L19.8928 20.2524V30.1292L27.7125 22.3759C27.8444 22.2452 28.0243 22.1712 28.2123 22.1705C28.4003 22.1698 28.5808 22.2424 28.7137 22.3722L30.8296 24.4377C31.105 24.7066 31.105 25.1426 30.8296 25.4115L19.8928 36.0885V41.3115C19.8928 41.6917 19.577 42 19.1875 42H16.3664C15.9769 42 15.6611 41.6917 15.6611 41.3115V28.6445L5.27892 18.1035C5.14755 17.9701 5.0767 17.7907 5.08234 17.6057C5.08799 17.4208 5.16966 17.2458 5.30893 17.1203L7.14265 15.4678C7.41917 15.2186 7.84739 15.2253 8.11565 15.483L15.6611 22.7305V11.3341C12.8245 8.96187 11.3298 7.34064 10.6398 6.18112C10.282 5.57978 10.1022 5.04002 10.1194 4.54452C10.1377 4.01932 10.3734 3.63761 10.6487 3.36888C11.1883 2.84206 11.8891 2.8506 12.4622 3.02369C13.0233 3.19314 13.5971 3.55021 14.121 3.95034C14.65 4.3544 15.1795 4.84267 15.6611 5.33286V3.30492C15.6611 2.07957 15.8776 1.2417 16.2991 0.701577ZM17.4211 1.53613C17.2784 1.71895 17.0717 2.18929 17.0717 3.30492V7.16066C17.0717 7.45306 16.8825 7.71358 16.5999 7.81037C16.3172 7.90716 16.0028 7.81911 15.8157 7.59077C15.1742 6.80794 14.1904 5.75182 13.2518 5.03491C12.7765 4.67192 12.3629 4.43514 12.0453 4.33922C11.7429 4.24789 11.6721 4.31715 11.6469 4.34185L11.6461 4.3426C11.5687 4.41813 11.5329 4.48396 11.5292 4.59134C11.5244 4.72843 11.572 5.00628 11.8595 5.48938C12.4402 6.46526 13.8407 8.01964 16.8229 10.4915C16.9807 10.6224 17.0717 10.8143 17.0717 11.0164V24.3738C17.0717 24.6512 16.9011 24.9016 16.639 25.0088C16.3768 25.116 16.0744 25.0592 15.8718 24.8646L7.6055 16.9248L6.79458 17.6555L16.8748 27.89C17.0011 28.0183 17.0717 28.1893 17.0717 28.3672V40.623H18.4822V35.8033C18.4822 35.6207 18.5565 35.4455 18.6888 35.3164L29.3334 24.9246L28.2189 23.8365L19.6901 32.2929C19.4892 32.492 19.185 32.5529 18.9201 32.447C18.6553 32.341 18.4822 32.0893 18.4822 31.8098V19.9672C18.4822 19.7846 18.5565 19.6095 18.6888 19.4804L25.8071 12.5311L24.695 11.4455L19.6925 16.4544C19.4922 16.655 19.1875 16.7171 18.9217 16.6115C18.656 16.506 18.4822 16.2538 18.4822 15.9738V3.16721C18.4822 2.46547 18.4394 1.98121 18.3088 1.67975C18.252 1.54865 18.1928 1.48829 18.1417 1.45506C18.0906 1.4218 17.9882 1.37705 17.777 1.37705C17.628 1.37705 17.5247 1.40336 17.4211 1.53613Z" fill="#202020"/>
<path d="M23.7013 13.2197C22.6857 10.9062 23.137 8.95085 24.2655 7.8492C26.6634 5.50822 29.3435 6.19674 30.4719 6.74756C31.6003 7.95936 31.3182 10.0525 30.3308 11.7049C28.074 14.7344 25.1118 13.9082 23.7013 13.2197Z" fill="#7DBB63"/>
<path fill-rule="evenodd" clip-rule="evenodd" d="M23.7668 7.36232C26.4647 4.72844 29.5138 5.51007 30.7873 6.13171L30.9051 6.18923L30.9938 6.28439C31.722 7.0664 31.9592 8.09537 31.8989 9.10126C31.8385 10.1073 31.4803 11.1476 30.94 12.0518L30.9221 12.0818L30.9012 12.1099C29.6528 13.7857 28.1597 14.4421 26.7504 14.5432C25.3775 14.6418 24.1531 14.21 23.3859 13.8355L23.1548 13.7227L23.053 13.4909C21.9498 10.9778 22.3915 8.70493 23.7668 7.36232L24.2655 7.84918L23.7668 7.36232ZM30.0323 7.30542C28.9887 6.83999 26.7782 6.36986 24.7642 8.33605C23.9157 9.16436 23.4569 10.7125 24.2506 12.7119C24.8818 12.9874 25.7397 13.235 26.647 13.1699C27.6287 13.0994 28.7365 12.6598 29.7394 11.328C30.176 10.5876 30.4459 9.76727 30.4907 9.02071C30.5329 8.31786 30.3756 7.72995 30.0323 7.30542Z" fill="#202020"/>
<path d="M27.7934 25.3262C26.7778 23.0128 27.2292 21.0574 28.3576 19.9557C30.7556 17.6147 33.4356 18.3033 34.564 18.8541C35.6925 20.0659 35.4104 22.159 34.423 23.8115C32.1661 26.841 29.204 26.0147 27.7934 25.3262Z" fill="#7DBB63"/>
<path fill-rule="evenodd" clip-rule="evenodd" d="M27.8589 19.4689C30.5569 16.835 33.6059 17.6166 34.8794 18.2382L34.9973 18.2958L35.0859 18.3909C35.8141 19.1729 36.0514 20.2019 35.991 21.2078C35.9306 22.2138 35.5725 23.2541 35.0322 24.1584L35.0143 24.1884L34.9934 24.2164C33.7449 25.8923 32.2518 26.5486 30.8425 26.6498C29.4696 26.7483 28.2453 26.3166 27.478 25.942L27.2469 25.8293L27.1451 25.5974C26.0419 23.0843 26.4837 20.8115 27.8589 19.4689L28.3576 19.9557L27.8589 19.4689ZM34.1244 19.412C33.0808 18.9465 30.8703 18.4764 28.8563 20.4426C28.0079 21.2709 27.549 22.8191 28.3428 24.8184C28.974 25.0939 29.8318 25.3416 30.7391 25.2764C31.7208 25.206 32.8286 24.7663 33.8315 23.4346C34.2682 22.6941 34.5381 21.8738 34.5829 21.1272C34.625 20.4244 34.4677 19.8365 34.1244 19.412Z" fill="#202020"/>
<path d="M5.50678 26.9786C4.49119 24.6652 4.94255 22.7098 6.071 21.6082C8.46893 19.2672 11.149 19.9557 12.2774 20.5065C13.4059 21.7183 13.1237 23.8114 12.1364 25.4639C9.87947 28.4934 6.91733 27.6672 5.50678 26.9786Z" fill="#B4DC70"/>
<path fill-rule="evenodd" clip-rule="evenodd" d="M5.57223 21.1213C8.27019 18.4874 11.3192 19.269 12.5928 19.8907L12.7106 19.9482L12.7992 20.0434C13.5274 20.8254 13.7647 21.8543 13.7043 22.8602C13.6439 23.8662 13.2858 24.9066 12.7455 25.8108L12.7276 25.8408L12.7067 25.8689C11.4582 27.5447 9.96515 28.201 8.55584 28.3022C7.18293 28.4007 5.95858 27.969 5.19131 27.5945L4.96023 27.4817L4.85846 27.2499C3.75521 24.7367 4.19697 22.4639 5.57223 21.1213L6.07093 21.6081L5.57223 21.1213ZM11.8377 21.0644C10.7941 20.599 8.58365 20.1288 6.56964 22.095C5.72117 22.9233 5.26231 24.4715 6.05607 26.4709C6.68727 26.7463 7.54516 26.994 8.4524 26.9288C9.43415 26.8584 10.5419 26.4188 11.5449 25.087C11.9815 24.3466 12.2514 23.5262 12.2962 22.7797C12.3384 22.0768 12.181 21.4889 11.8377 21.0644Z" fill="#202020"/>
<path d="M7.89488 17.9721C5.51858 18.9485 3.5186 18.4951 2.39754 17.3862C0.0153075 15.03 0.738057 12.4182 1.30963 11.3202C2.55825 10.2265 4.7004 10.5155 6.38657 11.4902C9.47499 13.7132 8.60934 16.5996 7.89488 17.9721Z" fill="#B4DC70"/>
<path fill-rule="evenodd" clip-rule="evenodd" d="M1.89583 17.8696C-0.783973 15.2191 0.0371168 12.2475 0.682415 11.0081L0.742121 10.8935L0.840195 10.8076C1.64609 10.1016 2.70167 9.87653 3.73161 9.94186C4.76164 10.0072 5.82489 10.3634 6.74747 10.8966L6.77806 10.9143L6.80667 10.9349C8.51485 12.1643 9.17713 13.626 9.2713 15.0025C9.36303 16.3434 8.91258 17.5359 8.5238 18.2825L8.40671 18.5074L8.16858 18.6053C5.58697 19.6664 3.26184 19.2207 1.89583 17.8696L2.39787 17.3858L1.89583 17.8696ZM1.87959 11.7527C1.39584 12.7685 0.899452 14.9235 2.89991 16.9021C3.74267 17.7356 5.32539 18.1934 7.37868 17.4312C7.6651 16.8168 7.9245 15.9808 7.86388 15.0947C7.79829 14.1359 7.35543 13.0516 5.99802 12.0641C5.24251 11.6332 4.40405 11.3645 3.63965 11.316C2.91999 11.2704 2.31674 11.4202 1.87959 11.7527Z" fill="#202020"/>
<path d="M23.3895 28.6386C25.7397 27.6037 27.7508 28.0074 28.9003 29.088C31.3431 31.3844 30.6885 34.0134 30.1457 35.1252C28.9259 36.2495 26.7769 36.0136 25.0659 35.081C21.9207 32.9353 22.711 30.0284 23.3895 28.6386Z" fill="#7DBB63"/>
<path fill-rule="evenodd" clip-rule="evenodd" d="M29.3895 28.592C32.1379 31.1757 31.3949 34.1666 30.7823 35.4214L30.7256 35.5375L30.6298 35.6258C29.8427 36.3513 28.7934 36.6023 27.762 36.5624C26.7306 36.5224 25.6584 36.1925 24.7221 35.6822L24.6911 35.6652L24.6619 35.6454C22.9221 34.4584 22.2217 33.0134 22.0915 31.6398C21.9647 30.3015 22.3838 29.0983 22.7529 28.3424L22.864 28.1147L23.0995 28.011C25.6525 26.8867 27.9886 27.275 29.3895 28.592L28.9003 29.088L29.3895 28.592ZM29.566 34.7065C30.023 33.6791 30.4628 31.5127 28.4111 29.5839C27.5468 28.7714 25.9526 28.3527 23.9199 29.1652C23.6497 29.7865 23.4123 30.6286 23.4961 31.5129C23.5868 32.4698 24.0579 33.5428 25.4407 34.4966C26.2073 34.9088 27.0525 35.1568 27.818 35.1864C28.5386 35.2143 29.1377 35.0496 29.566 34.7065Z" fill="#202020"/>
</svg>
