<svg width="23" height="30" viewBox="0 0 23 30" fill="none" xmlns="http://www.w3.org/2000/svg">
<path d="M3.61143 25.8834C-3.24439 14.1982 4.85109 4.48081 9.7558 1.08276C22.853 7.92958 23.0147 20.5581 19.7808 24.6662C14.7141 31.8173 5.33589 28.8227 3.61143 25.8834Z" fill="#C69C6D"/>
<path fill-rule="evenodd" clip-rule="evenodd" d="M9.68226 0L10.2269 0.28472C17.0133 3.83241 20.4915 8.90882 21.8303 13.6679C23.1473 18.3498 22.4132 22.8371 20.5749 25.191C17.8197 29.0657 13.854 30.2114 10.3712 29.9691C8.64167 29.8488 7.02283 29.3877 5.70842 28.7503C4.41666 28.1239 3.3218 27.2787 2.76205 26.3247C-0.818795 20.2214 -0.504116 14.5854 1.36895 10.045C3.22661 5.54196 6.60641 2.13099 9.18054 0.3476L9.68226 0ZM9.8348 2.17621C7.57389 3.87426 4.76187 6.86582 3.17777 10.7058C1.49087 14.7949 1.18572 19.8602 4.4607 25.4422C4.76318 25.9578 5.48727 26.5891 6.59727 27.1274C7.68463 27.6546 9.05035 28.0464 10.5143 28.1483C13.4129 28.3499 16.6626 27.4215 18.9736 24.1598L18.9869 24.141L19.0012 24.1228C20.3861 22.3636 21.1807 18.4938 19.9546 14.1351C18.7823 9.96782 15.7797 5.45454 9.8348 2.17621Z" fill="#202020"/>
<path d="M8.08474 20.1021C8.08474 21.0264 7.36081 21.7757 6.4678 21.7757C5.57479 21.7757 4.85086 21.0264 4.85086 20.1021C4.85086 19.1777 5.57479 18.4284 6.4678 18.4284C7.36081 18.4284 8.08474 19.1777 8.08474 20.1021Z" fill="#202020"/>
<path d="M7.29864 24.4486C7.40029 23.7574 8.07818 23.2746 8.81275 23.3703L12.5594 23.8581C13.2939 23.9538 13.807 24.5916 13.7054 25.2829V25.2829C13.6037 25.9741 12.9258 26.4569 12.1912 26.3612L8.44464 25.8734C7.71007 25.7777 7.19699 25.1398 7.29864 24.4486V24.4486Z" fill="#202020"/>
</svg>
