<svg width="21" height="20" viewBox="0 0 21 20" fill="none" xmlns="http://www.w3.org/2000/svg">
<path d="M9.06556 20C8.05692 20 7.20612 19.2489 7.08101 18.2481L6.98471 17.4777C6.93256 17.0604 6.64667 16.7186 6.2875 16.5V16.5V16.5C5.92893 16.2817 5.48856 16.2243 5.10157 16.3869L4.37335 16.6929C3.44532 17.0828 2.37211 16.7223 1.86777 15.8511L0.885508 14.1545C0.379755 13.2809 0.604235 12.1674 1.40894 11.558L2.30498 10.8795C2.47162 10.7533 2.55 10.5465 2.55 10.3375V10.3375V9.6625V9.6625C2.55 9.45347 2.47162 9.24671 2.30498 9.12052L1.40894 8.44197C0.604235 7.83258 0.379756 6.71906 0.885509 5.84548L1.86777 4.14886C2.37212 3.27771 3.44532 2.91715 4.37335 3.30708L5.09185 3.60897C5.48488 3.77411 5.93176 3.71481 6.3 3.5V3.5V3.5C6.65858 3.29083 6.93178 2.94579 6.98327 2.53387L7.08101 1.75193C7.20612 0.751071 8.05692 0 9.06556 0H11.0344C12.0431 0 12.8939 0.751073 13.019 1.75193L13.1153 2.52233C13.1674 2.93955 13.4533 3.28138 13.8125 3.5V3.5V3.5C14.1711 3.71826 14.6114 3.77566 14.9984 3.61305L15.7267 3.30708C16.6547 2.91715 17.7279 3.27771 18.2322 4.14886L19.2145 5.84549C19.7202 6.71906 19.4958 7.83258 18.6911 8.44197L17.795 9.12052C17.6284 9.24671 17.55 9.45347 17.55 9.6625V9.6625V10.3375V10.3375C17.55 10.5438 17.6084 10.7571 17.7729 10.8816L18.6661 11.558C19.4708 12.1674 19.6952 13.2809 19.1895 14.1545L18.2099 15.8465C17.7044 16.7196 16.6277 17.0795 15.6988 16.6859L15.0073 16.3929C14.615 16.2267 14.1681 16.2853 13.8 16.5V16.5V16.5C13.4414 16.7092 13.1682 17.0542 13.1167 17.4661L13.019 18.2481C12.8939 19.2489 12.0431 20 11.0344 20H9.06556ZM8.92923 17.0153C8.99818 17.5775 9.47567 18 10.0421 18V18C10.6046 18 11.08 17.5832 11.1537 17.0256L11.2228 16.5024C11.3148 15.806 11.8334 15.2589 12.4641 14.9495C12.5827 14.8913 12.6989 14.829 12.8125 14.7625C12.9221 14.6984 13.0295 14.6309 13.1345 14.5601C13.7149 14.1688 14.4467 13.9996 15.0935 14.2675L15.5954 14.4754C16.1127 14.6896 16.7086 14.4863 16.9871 14.0007V14.0007C17.266 13.5144 17.1398 12.8967 16.6927 12.5587L15.9309 11.9829C15.5703 11.7104 15.4422 11.2357 15.5 10.7875V10.7875C15.5333 10.5292 15.55 10.2667 15.55 10C15.55 9.73333 15.5333 9.47083 15.5 9.2125V9.2125C15.4422 8.76428 15.5703 8.28958 15.9309 8.01708L16.696 7.43875C17.1413 7.10222 17.2669 6.48714 16.9892 6.00299V6.00299C16.7101 5.51629 16.1113 5.31491 15.5948 5.53404L15.1084 5.74037C14.4563 6.01701 13.7154 5.838 13.1304 5.43864C13.0267 5.36784 12.9207 5.30079 12.8125 5.2375C12.6986 5.17087 12.5822 5.1084 12.4633 5.05008C11.8341 4.74154 11.3189 4.19267 11.2336 3.49715L11.1708 2.98474C11.1018 2.4225 10.6243 2 10.0579 2V2C9.49539 2 9.01995 2.41677 8.9463 2.97442L8.87721 3.49757C8.78522 4.19403 8.26656 4.74106 7.63587 5.05051C7.51726 5.1087 7.40114 5.17103 7.2875 5.2375C7.17787 5.30163 7.07054 5.36909 6.96553 5.43989C6.38506 5.83125 5.65329 6.00035 5.00648 5.73248L4.50118 5.52322C3.98586 5.3098 3.39222 5.51229 3.11472 5.99612V5.99612C2.83533 6.48328 2.96415 7.10239 3.41467 7.43766L4.15624 7.98953C4.52548 8.26431 4.66083 8.74377 4.6 9.2V9.2C4.56667 9.45 4.55 9.71667 4.55 10C4.55 10.2667 4.56667 10.525 4.6 10.775V10.775C4.66092 11.2319 4.52742 11.7121 4.15968 11.9901L3.40396 12.5612C2.95871 12.8978 2.83311 13.5129 3.11078 13.997V13.997C3.38992 14.4837 3.98872 14.6851 4.50523 14.466L4.99159 14.2596C5.64366 13.983 6.3846 14.162 6.96961 14.5614C7.07333 14.6322 7.17929 14.6992 7.2875 14.7625C7.40142 14.8291 7.51783 14.8916 7.63673 14.9499C8.26587 15.2585 8.78109 15.8073 8.86639 16.5028L8.92923 17.0153Z" fill="black"/>
<circle cx="10" cy="10" r="3" stroke="black" stroke-width="2"/>
</svg>
