<svg width="24" height="24" viewBox="0 0 24 24" fill="none" xmlns="http://www.w3.org/2000/svg">
<circle cx="12" cy="12" r="12" fill="#D9D9D9"/>
<path d="M10.4444 20L9.94444 17.6C9.62963 17.4857 9.33796 17.3476 9.06944 17.1857C8.80093 17.0238 8.53704 16.8381 8.27778 16.6286L6.05556 17.3714L4.5 14.6286L6.27778 13.0286C6.24074 12.6857 6.22222 12.3429 6.22222 12C6.22222 11.6571 6.24074 11.3143 6.27778 10.9714L4.5 9.37143L6.05556 6.62857L8.27778 7.37143C8.53704 7.1619 8.80093 6.97619 9.06944 6.81429C9.33796 6.65238 9.62963 6.51429 9.94444 6.4L10.4444 4H13.5556L14.0556 6.4C14.3704 6.51429 14.662 6.65238 14.9306 6.81429C15.1991 6.97619 15.463 7.1619 15.7222 7.37143L17.9444 6.62857L19.5 9.37143L17.7222 10.9714C17.7593 11.3143 17.7778 11.6571 17.7778 12C17.7778 12.3429 17.7593 12.6857 17.7222 13.0286L19.5 14.6286L17.9444 17.3714L15.7222 16.6286C15.463 16.8381 15.1991 17.0238 14.9306 17.1857C14.662 17.3476 14.3704 17.4857 14.0556 17.6L13.5556 20H10.4444ZM12 15.4286C12.9259 15.4286 13.713 15.0952 14.3611 14.4286C15.0093 13.7619 15.3333 12.9524 15.3333 12C15.3333 11.0476 15.0093 10.2381 14.3611 9.57143C13.713 8.90476 12.9259 8.57143 12 8.57143C11.0741 8.57143 10.287 8.90476 9.63889 9.57143C8.99074 10.2381 8.66667 11.0476 8.66667 12C8.66667 12.9524 8.99074 13.7619 9.63889 14.4286C10.287 15.0952 11.0741 15.4286 12 15.4286Z" fill="#8A848D"/>
</svg>
