<svg width="204" height="204" viewBox="0 0 204 204" fill="none" xmlns="http://www.w3.org/2000/svg">
<path d="M65.2751 130.504L74.8782 138.506C76.2651 134.238 79.1669 125.548 79.6791 124.934C72.7138 123.295 67.1742 127.965 65.2751 130.504Z" fill="#4D5E78"/>
<path d="M119.681 143.297C116.394 140.992 109.668 136.255 109.053 135.743C112.34 132.841 119.104 126.806 119.872 125.884C123.97 133.463 121.452 140.651 119.681 143.297Z" fill="#CFCFCD"/>
<path d="M97.915 157.702L89.0801 150.34L100.667 145.026C102.358 151.12 99.5367 156.016 97.915 157.702Z" fill="#CFCFCD"/>
<path d="M26.7804 162.209L61.4786 168.994L77.6761 190.951C86.1262 180.811 82.0924 165.344 79.0193 158.878C102.782 145.357 121.398 127.806 127.736 120.721C158.515 84.4089 170.946 59.7528 173.314 51.9638L167.424 34.0389C151.342 32.0933 119.368 57.3434 105.391 70.2116C86.493 62.2741 75.2389 71.7706 71.9742 77.511L92.3966 91.2742C84.395 111.291 68.3535 151.683 68.2 153.117C45.1018 145.845 30.9627 156.149 26.7804 162.209Z" fill="#4D5E78"/>
<path d="M173.314 51.9638L167.424 34.0388C165.888 35.8826 96.1536 124.777 61.4787 168.994L77.6762 190.951C86.1262 180.811 82.0925 165.344 79.0193 158.878C102.782 145.357 121.398 127.806 127.736 120.721C158.515 84.4089 170.946 59.7528 173.314 51.9638Z" fill="#CFCFCD"/>
<circle cx="152.647" cy="52.9654" r="4.5" transform="rotate(-50.1966 152.647 52.9654)" fill="black"/>
<path d="M153.225 117.88L138.82 92.2093L152.904 75.3079C164.07 104.397 157.771 115.81 153.225 117.88Z" fill="#CFCFCD"/>
<path fill-rule="evenodd" clip-rule="evenodd" d="M129.377 91.8692L118.546 88.8781L119.345 85.9863L130.175 88.9775L129.377 91.8692Z" fill="#828282"/>
<path fill-rule="evenodd" clip-rule="evenodd" d="M136.863 82.0559L126.033 79.0647L126.831 76.173L137.662 79.1642L136.863 82.0559Z" fill="#828282"/>
<path fill-rule="evenodd" clip-rule="evenodd" d="M143.85 72.4906L133.019 69.4994L133.818 66.6077L144.648 69.5988L143.85 72.4906Z" fill="#828282"/>
</svg>
