<svg width="48" height="48" viewBox="0 0 48 48" fill="none" xmlns="http://www.w3.org/2000/svg">
<path d="M14.6743 26.6839L15.9526 28.9134C16.5253 28.19 17.7064 26.7228 17.8491 26.641C16.6239 25.8268 15.2221 26.3304 14.6743 26.6839Z" fill="#4D5E78"/>
<path d="M24.245 33.0425C23.7765 32.3632 22.819 30.9689 22.7372 30.8262C23.5782 30.5019 25.3138 29.8228 25.5278 29.7C25.7752 31.4541 24.7757 32.6592 24.245 33.0425Z" fill="#CFCFCD"/>
<path d="M19.0192 34.2615L17.8431 32.2104L20.4567 32.0153C20.3464 33.3109 19.4524 34.0526 19.0192 34.2615Z" fill="#CFCFCD"/>
<path d="M4.98624 30.0403L11.1885 33.8308L12.7392 39.2218C15.0935 37.8719 15.4227 34.6023 15.293 33.1362C20.8406 32.2304 25.6844 30.1798 27.4129 29.2677C35.9434 24.4712 40.1037 20.6086 41.1175 19.2768L41.2648 15.4005C38.3045 13.8748 30.3351 16.4536 26.7204 17.9337C23.6459 15.0516 20.7973 16.0767 19.7573 16.9495L22.7087 21.0635C19.7342 24.3489 13.7522 30.9862 13.62 31.2516C9.68838 28.1973 6.22599 29.1715 4.98624 30.0403Z" fill="#4D5E78"/>
<path d="M41.1175 19.2768L41.2648 15.4005C40.8367 15.646 21.0355 27.7896 11.1884 33.8308L12.7392 39.2219C15.0934 37.872 15.4227 34.6023 15.293 33.1362C20.8406 32.2304 25.6844 30.1799 27.4129 29.2678C35.9434 24.4713 40.1037 20.6086 41.1175 19.2768Z" fill="#CFCFCD"/>
<circle cx="37.0623" cy="17.991" r="0.925165" transform="rotate(-29.8293 37.0623 17.991)" fill="black"/>
<path d="M32.529 30.5439L31.5894 24.5654L35.5132 22.3156C35.5838 28.7212 33.5531 30.4702 32.529 30.5439Z" fill="#CFCFCD"/>
<path fill-rule="evenodd" clip-rule="evenodd" d="M29.7936 23.8243L27.9202 22.4728L28.281 21.9726L30.1545 23.3241L29.7936 23.8243Z" fill="#828282"/>
<path fill-rule="evenodd" clip-rule="evenodd" d="M31.9388 22.4685L30.0653 21.117L30.4262 20.6168L32.2996 21.9683L31.9388 22.4685Z" fill="#828282"/>
<path fill-rule="evenodd" clip-rule="evenodd" d="M33.9697 21.1248L32.0963 19.7733L32.4571 19.2731L34.3306 20.6246L33.9697 21.1248Z" fill="#828282"/>
</svg>
