<svg width="80" height="80" viewBox="0 0 80 80" fill="none" xmlns="http://www.w3.org/2000/svg">
<path d="M79.6644 39.8322C79.6644 61.8309 61.8309 79.6644 39.8322 79.6644C17.8335 79.6644 9.33211e-07 61.8309 6.01185e-07 39.8322C2.6916e-07 17.8335 17.8335 -2.6916e-07 39.8322 -6.01185e-07C61.8309 -9.33211e-07 79.6644 17.8335 79.6644 39.8322Z" fill="#00D8FF"/>
<path d="M23.9735 43.1657L26.0414 46.7721C26.9678 45.602 28.8784 43.2286 29.1092 43.0962C27.1272 41.7791 24.8596 42.5937 23.9735 43.1657Z" fill="#4D5E78"/>
<path d="M39.4556 53.4517C38.6977 52.3528 37.1488 50.0973 37.0165 49.8665C38.377 49.3419 41.1846 48.2433 41.5308 48.0447C41.931 50.8822 40.3141 52.8317 39.4556 53.4517Z" fill="#CFCFCD"/>
<path d="M31.002 55.4236L29.0995 52.1057L33.3274 51.79C33.1489 53.8859 31.7028 55.0857 31.002 55.4236Z" fill="#CFCFCD"/>
<path d="M8.30143 48.5952L18.3346 54.7268L20.8431 63.4478C24.6516 61.2641 25.1842 55.9749 24.9744 53.6033C33.9486 52.138 41.7842 48.8208 44.5803 47.3454C58.3798 39.5863 65.1097 33.3378 66.7497 31.1834L66.988 24.9128C62.1992 22.4448 49.3074 26.6164 43.4601 29.0108C38.4865 24.3484 33.8784 26.0067 32.1961 27.4186L36.9704 34.0736C32.1587 39.3884 22.4818 50.1253 22.2679 50.5546C15.9079 45.6138 10.3069 47.1897 8.30143 48.5952Z" fill="#4D5E78"/>
<path d="M66.7497 31.1835L66.988 24.9129C66.2955 25.31 34.2638 44.9544 18.3345 54.727L20.8431 63.4479C24.6515 61.2643 25.1841 55.975 24.9744 53.6034C33.9485 52.1381 41.7842 48.8209 44.5802 47.3455C58.3798 39.5864 65.1097 33.3379 66.7497 31.1835Z" fill="#CFCFCD"/>
<circle cx="60.1898" cy="29.1034" r="1.49661" transform="rotate(-29.8293 60.1898 29.1034)" fill="black"/>
<path d="M52.8564 49.4099L51.3364 39.7387L57.6838 36.0992C57.7981 46.4614 54.5131 49.2906 52.8564 49.4099Z" fill="#CFCFCD"/>
<path fill-rule="evenodd" clip-rule="evenodd" d="M48.4315 38.5397L45.4008 36.3535L45.9846 35.5443L49.0152 37.7306L48.4315 38.5397Z" fill="#828282"/>
<path fill-rule="evenodd" clip-rule="evenodd" d="M51.9016 36.3465L48.871 34.1603L49.4547 33.3511L52.4853 35.5374L51.9016 36.3465Z" fill="#828282"/>
<path fill-rule="evenodd" clip-rule="evenodd" d="M55.187 34.1729L52.1564 31.9866L52.7401 31.1775L55.7707 33.3637L55.187 34.1729Z" fill="#828282"/>
</svg>
