<svg width="52" height="43" viewBox="0 0 52 43" fill="none" xmlns="http://www.w3.org/2000/svg">
<path d="M45.9618 12.4894L9.73779 30.5694L2.94422 25.0288C5.65944 23.3048 10.6794 25.9699 12.8499 27.518C15.8826 24.6022 22.0628 18.7132 22.5223 18.4839C24.8834 15.8073 22.9097 14.9485 22.7485 14.6256L21.0448 11.212C25.9308 9.06134 28.9053 13.9152 29.1261 13.8049C39.3098 10.1511 44.5931 11.4055 45.9618 12.4894Z" fill="#4D5E78"/>
<path d="M46.0239 12.2912L9.85844 30.3419L10.1944 36.6511C11.2805 37.9432 12.502 34.7543 12.7669 34.622C14.2825 28.707 14.3677 29.9828 14.5443 29.8946C20.8694 30.5435 29.1572 26.9763 32.5105 25.1116L33.0082 30.3083C34.8675 29.7013 36.6893 24.9746 37.3679 22.6872C37.9724 22.6606 42.8019 19.1343 45.1412 17.3745C45.7221 16.947 45.9717 13.8075 46.0239 12.2912Z" fill="#CFCFCD"/>
<path fill-rule="evenodd" clip-rule="evenodd" d="M30.9405 19.8196C31.125 20.1893 30.986 20.633 30.63 20.8107L18.8985 26.6661C18.5425 26.8438 18.1043 26.6881 17.9198 26.3184C17.7352 25.9487 17.8742 25.5049 18.2302 25.3272L29.9617 19.4718C30.3177 19.2942 30.7559 19.4498 30.9405 19.8196Z" fill="#202020"/>
<path fill-rule="evenodd" clip-rule="evenodd" d="M33.5999 19.6629C33.3863 19.7695 33.1234 19.6761 33.0126 19.4543L32.1439 17.7137C32.0332 17.4919 32.1166 17.2256 32.3302 17.119L32.7169 16.926C32.9305 16.8194 33.1934 16.9128 33.3042 17.1346L34.1729 18.8752C34.2836 19.097 34.2002 19.3633 33.9866 19.4699L33.5999 19.6629Z" fill="#202020"/>
<path fill-rule="evenodd" clip-rule="evenodd" d="M36.1783 18.376C35.9647 18.4826 35.7018 18.3892 35.5911 18.1674L34.7223 16.4268C34.6116 16.205 34.695 15.9387 34.9086 15.8321L35.2954 15.6391C35.509 15.5325 35.7719 15.6259 35.8826 15.8477L36.7513 17.5883C36.8621 17.8101 36.7787 18.0764 36.5651 18.183L36.1783 18.376Z" fill="#202020"/>
<path fill-rule="evenodd" clip-rule="evenodd" d="M38.7566 17.0891C38.543 17.1957 38.28 17.1023 38.1693 16.8805L37.3006 15.1399C37.1899 14.9181 37.2733 14.6518 37.4869 14.5452L37.8736 14.3522C38.0872 14.2456 38.3501 14.339 38.4608 14.5608L39.3296 16.3014C39.4403 16.5232 39.3569 16.7895 39.1433 16.8961L38.7566 17.0891Z" fill="#202020"/>
<path d="M13.969 23.1083L14.9216 25.4735C15.7327 24.7773 17.3915 23.3667 17.5374 23.2938C16.29 22.2558 14.6387 22.7376 13.969 23.1083Z" fill="#3B495E"/>
<path d="M26.1761 31.5632L24.5082 28.549C25.5353 28.2061 27.607 27.5115 27.6768 27.4767C28.2935 29.1487 26.2181 31.4291 26.1761 31.5632Z" fill="#C7C7C5"/>
<path d="M18.659 32.6391L17.3225 29.9614L20.4078 29.6902C20.4819 30.6682 19.2728 32.0637 18.659 32.6391Z" fill="#C7C7C5"/>
<path fill-rule="evenodd" clip-rule="evenodd" d="M17.2097 29.8965L20.4744 29.6096L20.4802 29.6867C20.5 29.9472 20.4341 30.23 20.3193 30.5129C20.2043 30.7965 20.038 31.0852 19.8514 31.3593C19.4782 31.9075 19.0188 32.4041 18.709 32.6946L18.639 32.7602L17.2097 29.8965ZM17.4354 30.0262L18.6788 32.5173C18.9793 32.2263 19.3922 31.7702 19.7314 31.2719C19.9145 31.003 20.075 30.7235 20.185 30.4524C20.283 30.2108 20.3393 29.9798 20.3385 29.771L17.4354 30.0262Z" fill="black"/>
<path fill-rule="evenodd" clip-rule="evenodd" d="M20.2977 11.1505C20.3485 10.9462 20.4831 10.7765 20.6675 10.6845C22.6717 9.68418 24.6021 9.90082 26.1678 10.5643C27.4827 11.1215 28.5556 11.9976 29.2523 12.7572C31.626 12.0879 35.1006 11.275 38.3466 10.8656C40.0726 10.6479 41.7606 10.5407 43.1955 10.6387C44.5888 10.7339 45.9099 11.0309 46.7449 11.774C46.9075 11.9187 47.0022 12.1271 47.0039 12.3443C47.009 12.976 46.9667 13.9936 46.8238 15.0273C46.6842 16.0361 46.4356 17.1661 45.9757 17.9472C45.9268 18.0304 45.8619 18.1022 45.7848 18.1586C44.547 19.0641 42.6533 20.4181 40.9945 21.5373C40.1665 22.096 39.3882 22.6022 38.7761 22.9656C38.4717 23.1463 38.1953 23.2996 37.9681 23.4071C37.9185 23.4306 37.8683 23.4533 37.8183 23.4743C37.4298 25.7563 36.8151 27.4199 36.1267 28.6047C35.1959 30.2068 34.0818 31.0044 33.1696 31.1354C32.9687 31.1642 32.7626 31.1049 32.6017 30.972C32.4408 30.8391 32.3399 30.6447 32.3237 30.4365L32.0084 26.3906C30.9208 27.011 29.8025 27.5479 28.6824 28.0108C28.3318 30.5607 27.0966 31.9433 26.3163 32.359C26.1449 32.4504 25.9425 32.4659 25.7551 32.402C25.5678 32.3381 25.4113 32.2003 25.3212 32.0198L24.0826 29.5382C23.0326 29.8097 22.019 30.0232 21.0689 30.1879C21.0001 30.8949 20.6377 31.5233 20.2796 31.9913C19.8502 32.5525 19.332 33.0064 18.9726 33.2628C18.8015 33.3848 18.5846 33.4228 18.3786 33.3668C18.1726 33.3107 17.9981 33.1662 17.9007 32.9711L16.7453 30.6561C16.373 30.6679 16.0387 30.6686 15.7478 30.6602C15.7323 30.6598 15.7168 30.6588 15.7013 30.6573C15.0763 30.5982 14.759 30.7825 14.59 30.9513C14.397 31.1441 14.3215 31.3944 14.311 31.5339L14.3105 31.5391C13.9317 36.1138 11.84 37.8204 10.4155 37.9482C10.0181 37.9838 9.65772 37.6828 9.60968 37.2751L8.86159 30.9268L2.44092 25.7352C2.25537 25.5852 2.14886 25.3552 2.1546 25.1171C2.16035 24.879 2.27765 24.6616 2.46993 24.5328C3.93074 23.5541 5.8112 23.6742 7.42067 24.0981C9.05524 24.5285 10.5873 25.3172 11.512 25.9192C12.1624 26.3427 12.5573 26.5601 12.8036 26.6576C12.8343 26.6698 12.8602 26.6791 12.8818 26.6862L14.1342 25.5007C13.89 24.9436 13.4138 23.839 13.1591 23.247C13.0025 22.8831 13.1467 22.466 13.488 22.2957C14.1855 21.9476 15.8874 21.4906 17.5772 22.2419L21.3028 18.7156C21.3143 18.7046 21.3262 18.6941 21.3384 18.684C22.5273 17.7032 22.9195 16.9013 23.0147 16.3783C23.1088 15.861 22.9286 15.5542 22.8324 15.453C22.8002 15.4191 22.771 15.3823 22.7453 15.343L20.4016 11.7534C20.2847 11.5743 20.2468 11.3549 20.2977 11.1505ZM31.879 24.7304L31.7516 23.0956L33.1991 23.0222L33.6862 29.2726C34.0366 28.9941 34.4535 28.5387 34.8726 27.8175C35.6745 26.4372 36.4397 24.1464 36.7018 20.5112L38.1499 20.6649C38.1256 21.0026 38.097 21.3302 38.0645 21.6481C38.6358 21.3068 39.3702 20.8293 40.1698 20.2898C41.7544 19.2206 43.5624 17.9301 44.7917 17.0329C45.0627 16.5047 45.2606 15.6815 45.3859 14.7758C45.4913 14.0132 45.5373 13.2563 45.549 12.6935C45.0599 12.4035 44.2603 12.1973 43.1424 12.1209C41.837 12.0317 40.2501 12.1277 38.567 12.34C35.2048 12.7641 31.5644 13.6383 29.2424 14.3148C28.9615 14.3966 28.655 14.2952 28.4665 14.0581C27.9396 13.3957 26.9246 12.4756 25.647 11.9342C24.596 11.4888 23.3829 11.3036 22.0969 11.713L23.9116 14.4924C24.3292 14.9688 24.6136 15.7526 24.4425 16.6927C24.2661 17.662 23.6218 18.7316 22.2891 19.836L13.7193 27.9476C13.6782 27.9865 13.6326 28.0202 13.5835 28.048C13.1618 28.2865 12.7078 28.1962 12.3157 28.041C11.9199 27.8844 11.4172 27.5941 10.759 27.1655C9.93882 26.6315 8.5515 25.9185 7.09885 25.536C6.07915 25.2675 5.10855 25.1823 4.29086 25.3656L9.98502 29.9697C10.1413 30.0961 10.2427 30.2802 10.2663 30.4802L10.9348 36.1527C11.6456 35.6315 12.6173 34.3382 12.8634 31.3716C12.8972 30.9353 13.0903 30.3422 13.5594 29.8735C14.0494 29.3838 14.7818 29.0887 15.7668 29.1759C18.579 29.2519 25.8548 28.3965 31.879 24.7304ZM16.3638 23.3905L15.247 24.4475C15.2145 24.3724 15.1806 24.2941 15.1458 24.2138C15.0348 23.9576 14.9152 23.6806 14.8016 23.4175C15.2324 23.3208 15.7869 23.2747 16.3638 23.3905ZM25.4956 29.1429L26.1791 30.5123C26.4896 30.1238 26.8427 29.5129 27.0742 28.6265C26.5444 28.8139 26.0171 28.9856 25.4956 29.1429ZM18.3062 30.5571C18.6857 30.5223 19.0867 30.4784 19.506 30.4244C19.4219 30.6211 19.2948 30.8332 19.1259 31.0539C19.0115 31.2035 18.8874 31.3444 18.7631 31.4725L18.3062 30.5571ZM12.972 26.7088C12.9721 26.7089 12.9707 26.7088 12.9677 26.7085C12.9705 26.7085 12.9719 26.7087 12.972 26.7088Z" fill="#202020"/>
<path d="M42.2852 14.1572C42.5067 14.6009 42.3687 15.119 41.9772 15.3144C41.5856 15.5099 41.0886 15.3087 40.8671 14.865C40.6457 14.4213 40.7836 13.9032 41.1752 13.7078C41.5668 13.5123 42.0638 13.7135 42.2852 14.1572Z" fill="#202020"/>
<path d="M42.7098 16.6212C42.5991 16.3993 42.6825 16.1331 42.8961 16.0264L45.8612 14.5465C46.0748 14.4399 46.3377 14.5333 46.4484 14.7551L46.5821 15.0229C46.6928 15.2448 46.6094 15.511 46.3958 15.6176L43.4307 17.0976C43.2171 17.2042 42.9542 17.1108 42.8435 16.8889L42.7098 16.6212Z" fill="#202020"/>
</svg>
