<svg width="38" height="30" viewBox="0 0 38 30" fill="none" xmlns="http://www.w3.org/2000/svg">
<path d="M3.26589 16.0409C-0.868943 9.83616 0.755457 5.99796 2.08451 4.85446C5.62866 2.16971 10.9449 5.40135 13.16 7.2409C19.6576 13.0877 17.344 18.2285 15.3751 20.068C10.0588 23.0511 5.08719 18.6262 3.26589 16.0409Z" fill="#A5D261"/>
<path fill-rule="evenodd" clip-rule="evenodd" d="M8.36618 3.74569C10.4975 4.47701 12.433 5.78508 13.5708 6.73105L13.582 6.74032L13.5928 6.75004C16.9162 9.74394 18.079 12.6485 18.0654 15.13C18.052 17.5848 16.8866 19.496 15.7901 20.5217L15.7257 20.5819L15.6491 20.6249C12.7666 22.2442 9.96807 21.8389 7.70178 20.7162C5.46019 19.6058 3.69615 17.7797 2.74424 16.427L2.73874 16.4191L2.73345 16.4112C-1.47431 10.0899 0.00512765 5.83925 1.69899 4.38022L1.71622 4.36538L1.73432 4.35165C3.76593 2.81093 6.2466 3.0184 8.36618 3.74569ZM2.62831 5.51678C1.69437 6.34269 0.00972494 9.67347 3.93775 15.5799C4.78556 16.782 6.37266 18.416 8.34329 19.3922C10.2719 20.3476 12.5238 20.6588 14.8626 19.3794C15.6937 18.5705 16.5967 17.0587 16.6073 15.1219C16.618 13.1653 15.7173 10.6427 12.6337 7.86071C11.5828 6.98903 9.80589 5.79669 7.89762 5.14191C5.97921 4.48365 4.09354 4.4185 2.62831 5.51678Z" fill="#202020"/>
<path d="M34.8319 12.8494C38.8136 6.64469 37.2494 2.80649 35.9696 1.66299C32.5567 -1.02176 27.4374 2.20988 25.3043 4.04943C19.0474 9.89622 21.2752 15.037 23.1713 16.8766C28.2906 19.8596 33.0781 15.4348 34.8319 12.8494Z" fill="#A5D261"/>
<path fill-rule="evenodd" clip-rule="evenodd" d="M29.9223 0.554193C27.8645 1.28551 25.9957 2.59358 24.8971 3.53955L24.8864 3.54883L24.8759 3.55854C21.6672 6.55244 20.5444 9.45696 20.5575 11.9385C20.5705 14.3933 21.6957 16.3045 22.7544 17.3302L22.8166 17.3904L22.8906 17.4334C25.6736 19.0527 28.3757 18.6474 30.5638 17.5247C32.7281 16.4143 34.4313 14.5882 35.3504 13.2355L35.3557 13.2276L35.3608 13.2197C39.4235 6.89836 37.995 2.64775 36.3596 1.18872L36.343 1.17388L36.3255 1.16015C34.3639 -0.380563 31.9688 -0.173094 29.9223 0.554193ZM35.4623 2.32529C36.3641 3.15119 37.9906 6.48197 34.198 12.3884C33.3795 13.5905 31.8471 15.2245 29.9444 16.2007C28.0823 17.1561 25.908 17.4673 23.6499 16.1879C22.8475 15.379 21.9756 13.8672 21.9653 11.9304C21.955 9.9738 22.8246 7.45116 25.802 4.66921C26.8166 3.79753 28.5322 2.6052 30.3747 1.95041C32.227 1.29215 34.0476 1.22701 35.4623 2.32529Z" fill="#202020"/>
<path fill-rule="evenodd" clip-rule="evenodd" d="M30.3031 9.01046C30.7273 9.72238 30.524 10.6622 29.849 11.1096C21.1834 16.8533 18.9307 24.9675 18.7812 28.6622C18.7851 28.895 18.7833 29.1282 18.7754 29.3617L15.8901 29.3497C15.8842 29.128 15.8851 28.892 15.8933 28.6429C15.8242 25.7013 14.5736 22.6341 12.8632 19.8689C11.0479 16.9342 8.82606 14.5198 7.3654 13.2206C6.75599 12.6785 6.67857 11.7181 7.19248 11.0753C7.7064 10.4325 8.61703 10.3509 9.22644 10.8929C10.8785 12.3624 13.2956 14.9955 15.2809 18.2051C16.0242 19.4068 16.7231 20.7153 17.2981 22.0953C18.9421 17.694 22.2432 12.5547 28.313 8.53148C28.988 8.0841 29.879 8.29855 30.3031 9.01046Z" fill="#78A635"/>
<path fill-rule="evenodd" clip-rule="evenodd" d="M27.8562 8.00615C28.8607 7.34239 30.1867 7.66056 30.8179 8.71681L30.2117 9.11743L30.8179 8.71681C31.4491 9.77306 31.1466 11.1674 30.1421 11.8312C21.7844 17.354 19.6443 25.1177 19.4967 28.5653C19.5003 28.8008 19.4982 29.0371 19.4902 29.2738C19.4765 29.6801 19.1585 30.0016 18.7718 30L15.9092 29.9881C15.5225 29.9865 15.2069 29.6624 15.1962 29.256C15.1902 29.027 15.191 28.7856 15.1989 28.533C15.1293 25.8278 13.967 22.9409 12.3093 20.269C10.5505 17.4342 8.39452 15.1003 6.99282 13.8573C6.0859 13.0531 5.97069 11.628 6.73549 10.6744C7.50029 9.72071 8.85549 9.59956 9.76241 10.4038C11.449 11.8993 13.8955 14.5579 15.9074 17.8005C16.3868 18.5732 16.8495 19.392 17.2743 20.2477C19.116 16.1382 22.3853 11.6214 27.8562 8.00615ZM16.6303 28.4853L18.0664 28.4912C18.235 24.6055 20.5849 16.3681 29.3801 10.5562C29.715 10.3349 29.8158 9.87012 29.6054 9.51804C29.395 9.16596 28.953 9.0599 28.6182 9.28116C22.7365 13.1678 19.5552 18.1185 17.9752 22.3358C17.8692 22.6186 17.6119 22.8067 17.3229 22.8126C17.0338 22.8185 16.7698 22.6411 16.6535 22.3628C16.1015 21.0421 15.4282 19.7842 14.708 18.6234C12.7805 15.5167 10.4308 12.9663 8.83921 11.555C8.53691 11.2869 8.08517 11.3273 7.83024 11.6452C7.57531 11.963 7.61371 12.4381 7.91602 12.7061C9.41267 14.0333 11.6655 16.4755 13.5086 19.4462C15.2344 22.2278 16.5487 25.3881 16.6303 28.4853Z" fill="#202020"/>
</svg>
