<svg width="26" height="28" viewBox="0 0 26 28" fill="none" xmlns="http://www.w3.org/2000/svg">
<path d="M6.59546 1C6.14611 1.55556 5.51702 2.5 6.59546 3.5C7.04481 3.91667 7.33689 5 6.25845 6" stroke="black" stroke-width="1.5" stroke-linecap="round" stroke-linejoin="round"/>
<path d="M11.5955 1C11.1461 1.55556 10.517 2.5 11.5955 3.5C12.0448 3.91667 12.3369 5 11.2584 6" stroke="black" stroke-width="1.5" stroke-linecap="round" stroke-linejoin="round"/>
<path d="M16.5955 1C16.1461 1.55556 15.517 2.5 16.5955 3.5C17.0448 3.91667 17.3369 5 16.2584 6" stroke="black" stroke-width="1.5" stroke-linecap="round" stroke-linejoin="round"/>
<path d="M23 24.0002H1C1 26.4002 2.91304 27.0002 3.86957 27.0002H19.6522C22.713 27.0002 23 25.0002 23 24.0002Z" stroke="black" stroke-width="1.4" stroke-linejoin="round"/>
<path d="M20.3191 9H3V12.5M20.3191 9V12.5M20.3191 9H23.5957C24.5319 9 25 9.60021 25 12.0002C25 13.1667 25 15.5002 23.5957 15.5H20.3191M20.3191 15.5C20.4752 18.1667 20.0383 23.6 17.0426 24H5.80851C4.87234 24 3 22.6 3 17V12.5M20.3191 15.5V12.5M3 12.5H20.3191" stroke="black" stroke-width="1.4" stroke-linejoin="round"/>
</svg>
