<svg width="26" height="26" viewBox="0 0 26 26" fill="none" xmlns="http://www.w3.org/2000/svg">
<path d="M19 13C19 16.3137 16.3137 19 13 19C9.68629 19 7 16.3137 7 13C7 9.68629 9.68629 7 13 7C16.3137 7 19 9.68629 19 13Z" fill="#F1F1F1"/>
<path fill-rule="evenodd" clip-rule="evenodd" d="M26 13C26 20.1797 20.1797 26 13 26C5.8203 26 0 20.1797 0 13C0 5.8203 5.8203 0 13 0C20.1797 0 26 5.8203 26 13ZM13 19C16.3137 19 19 16.3137 19 13C19 9.68629 16.3137 7 13 7C9.68629 7 7 9.68629 7 13C7 16.3137 9.68629 19 13 19Z" fill="#FF7058"/>
</svg>
