<svg width="190" height="220" viewBox="0 0 190 220" fill="none" xmlns="http://www.w3.org/2000/svg">
<path d="M170 125C170 166.421 136.421 200 95 200C53.5786 200 20 166.421 20 125C20 83.5786 53.5786 50 95 50C136.421 50 170 83.5786 170 125Z" fill="#E4EAEF"/>
<path d="M147.691 36.6323L158.528 45.4953L152.197 53.2362L141.36 44.3733L147.691 36.6323Z" fill="#334A5E"/>
<path d="M150.16 27.5493C150.859 26.6942 152.119 26.568 152.974 27.2672L166.133 38.0294C166.989 38.7286 167.115 39.9887 166.416 40.8437L161.351 47.0365C160.652 47.8915 159.392 48.0178 158.537 47.3185L145.377 36.5564C144.522 35.8571 144.396 34.5971 145.095 33.7421L150.16 27.5493Z" fill="#40596B"/>
<path d="M40.6265 36.6323L29.7891 45.4953L36.1198 53.2362L46.9571 44.3733L40.6265 36.6323Z" fill="#334A5E"/>
<path d="M38.1575 27.5493C37.4582 26.6942 36.1982 26.568 35.3432 27.2672L22.1835 38.0294C21.3285 38.7286 21.2022 39.9887 21.9015 40.8437L26.966 47.0365C27.6653 47.8915 28.9253 48.0178 29.7803 47.3185L42.94 36.5564C43.795 35.8571 43.9213 34.5971 43.222 33.7421L38.1575 27.5493Z" fill="#40596B"/>
<path fill-rule="evenodd" clip-rule="evenodd" d="M80 0H111C118.18 0 124 5.8203 124 13C124 20.1797 118.18 26 111 26H80C72.8203 26 67 20.1797 67 13C67 5.8203 72.8203 0 80 0ZM80 6C76.134 6 73 9.13401 73 13C73 16.866 76.134 20 80 20H111C114.866 20 118 16.866 118 13C118 9.13401 114.866 6 111 6H80Z" fill="#40596B"/>
<path d="M89.0477 19V31.5H102.048V18.4999C102.048 13.6999 98.5477 13 95.5477 13C90.0477 13 88.7144 16.8333 89.0477 19Z" fill="#334A5E"/>
<path d="M169 132.5C169 172.541 133.407 205 89.5 205C45.5934 205 10 172.541 10 132.5C10 92.4594 45.5934 60 89.5 60C133.407 60 169 92.4594 169 132.5Z" fill="#F2F2F2"/>
<path d="M93 68V55H98V68H93Z" fill="#4CDBC4"/>
<path d="M135 83.1924L144.192 74L147.728 77.5355L138.536 86.7279L135 83.1924Z" fill="#4CDBC4"/>
<path d="M45.0852 173.113L54.2776 163.92L57.8131 167.456L48.6207 176.648L45.0852 173.113Z" fill="#4CDBC4"/>
<path d="M54.1924 86.728L45 77.5356L48.5355 74.0001L57.7279 83.1925L54.1924 86.728Z" fill="#4CDBC4"/>
<path d="M144.278 176.648L135.085 167.456L138.621 163.921L147.813 173.113L144.278 176.648Z" fill="#4CDBC4"/>
<path d="M93 195V182H98V195H93Z" fill="#4CDBC4"/>
<path fill-rule="evenodd" clip-rule="evenodd" d="M190 125C190 177.467 147.467 220 95 220C42.533 220 0 177.467 0 125C0 72.533 42.533 30 95 30C147.467 30 190 72.533 190 125ZM95 200C136.421 200 170 166.421 170 125C170 83.5786 136.421 50 95 50C53.5786 50 20 83.5786 20 125C20 166.421 53.5786 200 95 200Z" fill="#40596B"/>
<path fill-rule="evenodd" clip-rule="evenodd" d="M190 125C190 177.467 147.467 220 95 220C42.533 220 0 177.467 0 125C0 72.533 42.533 30 95 30C147.467 30 190 72.533 190 125ZM95 200C136.421 200 170 166.421 170 125C170 83.5786 136.421 50 95 50C53.5786 50 20 83.5786 20 125C20 166.421 53.5786 200 95 200Z" fill="#40596B"/>
<path d="M152 123H165V128H152V123Z" fill="#4CDBC4"/>
<path d="M25 123H38V128H25V123Z" fill="#4CDBC4"/>
</svg>
