<svg width="36" height="44" viewBox="0 0 36 44" fill="none" xmlns="http://www.w3.org/2000/svg">
<path d="M15.4857 36.9864C15.8776 32.3949 12.7918 27.5022 11.2 25.6298L13.0367 23.7981L17.3225 29.4153L20.3837 20.501C21.5592 20.1102 22.751 21.3965 23.2 22.0885C22.0245 23.8469 20.8327 29.741 20.3837 32.4682V43.2143H15.2408L15.4857 36.9864Z" fill="#E9A761"/>
<path d="M8.09545 31.1743C10.0609 33.1811 13.6643 32.9661 15.2203 32.6077L11.4122 25.9184L13.3776 24.1267L17.4314 29.502L20.6253 20.6626L23.6963 22.3349C20.9938 25.2017 20.871 32.6077 20.871 32.9661C22.4434 33.2527 24.4743 31.6521 25.2933 30.8159C33.9413 34.4473 34.3836 27.4713 33.5237 23.5294C37.946 16.5534 32.5819 13.5353 29.3471 12.8982C32.0987 4.96664 26.1532 4.09863 22.8364 4.65607C22.5416 1.59811 18.7827 0.833619 16.94 0.833618C12.616 0.260251 11.1255 4.9746 10.9208 7.40345C4.13995 7.40345 4.16452 12.9778 5.02441 15.7651C-0.675443 17.1985 0.602107 22.5738 1.95336 25.0823C-0.601743 32.4405 4.98346 32.2095 8.09545 31.1743Z" fill="#B7E546"/>
<path fill-rule="evenodd" clip-rule="evenodd" d="M23.3095 3.74054C22.4883 2.03435 20.2402 -0.419244 16.134 0.0611979C16.1245 0.062316 16.1149 0.0636184 16.1054 0.0651044C15.0783 0.225709 13.6007 0.783949 12.4078 1.9485C11.3115 3.01882 10.4835 4.57611 10.4475 6.71756C8.96776 6.85348 7.1311 7.35245 5.78662 8.52413C4.98028 9.22684 4.35629 10.169 4.11082 11.39C3.89849 12.4462 3.97741 13.6697 4.4118 15.077C3.123 15.7049 1.61618 16.7826 0.736625 18.292C0.213611 19.1896 -0.0888252 20.2444 0.0232194 21.4297C0.122971 22.485 0.546797 23.5982 1.36318 24.7582C0.943847 25.4516 0.545755 26.4168 0.45227 27.4863C0.333574 28.8442 0.710651 30.3694 2.12626 31.6494C2.13333 31.6558 2.14054 31.6621 2.14787 31.6682C3.0929 32.4577 5.46428 33.4425 8.13197 32.0319C8.67887 32.5387 9.45978 33.0861 10.4061 33.4564C11.6138 33.929 13.1137 34.1199 14.7241 33.5408C14.7598 33.7815 14.7696 33.998 14.7535 34.1881C14.7518 34.208 14.751 34.2281 14.751 34.2481V37.9803V43.2776C14.751 43.6766 15.08 44 15.4859 44H20.5083C20.9142 44 21.2432 43.6766 21.2432 43.2776V34.9704L21.2432 34.9265L21.2432 34.8244L21.243 34.7115C21.2427 34.4248 21.2424 34.1282 21.2455 33.8204C22.179 33.8623 23.0834 33.4822 23.7982 33.0523C24.3985 32.6911 24.9368 32.252 25.3536 31.8547C26.7564 32.838 28.2376 33.0062 29.5374 32.7769C30.9774 32.523 32.1887 31.7865 32.882 31.1732C32.8886 31.1674 32.895 31.1615 32.9014 31.1555C32.9079 31.1493 32.9143 31.143 32.9206 31.1365C35.3641 28.6349 34.7917 25.4466 34.094 23.8423C35.2543 22.1544 35.8434 20.6272 35.9725 19.2505C36.1119 17.7656 35.7108 16.5068 35.0013 15.4793C33.8028 13.7434 31.7575 12.7055 30.036 12.1962C30.5568 10.5789 30.6857 9.21524 30.4899 8.07253C30.2611 6.73748 29.5964 5.75318 28.7023 5.06703C27.1492 3.87516 24.9748 3.62876 23.3095 3.74054ZM13.4734 30.3385C13.8096 30.9502 14.1059 31.5628 14.3297 32.1427C13.0772 32.6271 11.9167 32.4925 10.9499 32.1142C9.96041 31.727 9.19922 31.092 8.81975 30.6512C8.58011 30.3729 8.16698 30.3137 7.85647 30.5132C5.65195 31.9299 3.74718 31.0998 3.11035 30.5761C2.08534 29.6433 1.83167 28.5842 1.91683 27.61C2.00515 26.5995 2.46287 25.6817 2.84907 25.1641C3.04202 24.9055 3.03841 24.5529 2.84022 24.2981C1.94919 23.1529 1.56762 22.1504 1.48687 21.2961C1.40649 20.4457 1.61854 19.6856 2.0122 19.01C2.81743 17.6281 4.37437 16.6234 5.5954 16.1358C5.96164 15.9896 6.14459 15.5848 6.0095 15.2197C5.45447 13.7196 5.37401 12.5599 5.55289 11.6701C5.73003 10.789 6.17175 10.1194 6.76186 9.60511C7.97456 8.54826 9.83029 8.14128 11.2088 8.12247C11.4099 8.11972 11.601 8.0361 11.7377 7.8911C11.8744 7.74611 11.9447 7.55239 11.9321 7.35511C11.7984 5.25276 12.5251 3.87033 13.4437 2.9735C14.3807 2.05876 15.5527 1.61752 16.3225 1.49409C19.9765 1.07361 21.7218 3.51067 22.1384 4.73915C22.2492 5.06582 22.5792 5.27021 22.9268 5.2275C24.4835 5.03626 26.5161 5.22234 27.7977 6.20577C28.4123 6.67742 28.8746 7.34552 29.0403 8.31251C29.2094 9.29864 29.0766 10.6414 28.3941 12.4458C28.32 12.6417 28.3358 12.8595 28.4375 13.043C28.5392 13.2265 28.7168 13.3578 28.9244 13.4029C30.5941 13.7654 32.6962 14.7136 33.785 16.2906C34.3148 17.0579 34.615 17.9859 34.5088 19.1178C34.4013 20.2632 33.8724 21.6669 32.6492 23.3547C32.4877 23.5776 32.4681 23.871 32.5988 24.1127C33.224 25.2694 33.8874 28.0391 31.8789 30.1167C31.3433 30.5839 30.3841 31.1598 29.2778 31.3549C28.1911 31.5466 26.9577 31.376 25.7751 30.3382C25.6281 30.2092 25.4346 30.1437 25.238 30.1562C25.0414 30.1687 24.8581 30.2583 24.7294 30.4049C24.3812 30.8011 23.7516 31.3865 23.0308 31.82C22.3963 32.2017 21.7959 32.4038 21.2931 32.3757C21.434 30.0513 21.9654 27.1255 23.9534 23.1905C24.0327 23.2128 24.1132 23.233 24.1948 23.2508C25.6043 23.5595 27.1844 23.1412 28.6572 21.4792C28.9238 21.1783 28.8918 20.722 28.5857 20.46C28.2796 20.198 27.8154 20.2294 27.5488 20.5303C26.3758 21.854 25.3221 22.0176 24.5145 21.8407C23.6307 21.6471 22.8671 21.0057 22.4437 20.4509C22.2859 20.2441 22.0278 20.136 21.7668 20.1673C19.9608 20.3837 18.9851 19.8506 18.4427 19.2263C17.8632 18.5593 17.6737 17.6668 17.6906 17.0512C17.7016 16.6524 17.3815 16.3204 16.9758 16.3096C16.57 16.2988 16.2322 16.6134 16.2212 17.0122C16.1973 17.8815 16.4487 19.1561 17.3249 20.1645C17.8794 20.8028 18.6483 21.2935 19.662 21.5211C19.5566 21.7356 19.4476 21.977 19.3369 22.2371C19.0421 22.9293 18.7202 23.7874 18.402 24.6901C17.9691 25.9185 17.5373 27.2463 17.1826 28.3828L14.0227 23.8655C14.1579 23.5206 14.2734 23.141 14.3664 22.7247C14.4534 22.335 14.2026 21.9498 13.8061 21.8643C13.4096 21.7787 13.0176 22.0253 12.9306 22.415C12.53 24.2086 11.7159 24.9037 10.9969 25.1636C10.2219 25.4438 9.36213 25.2901 8.80781 25.0425C8.43828 24.8774 8.00255 25.038 7.83458 25.4012C7.66661 25.7644 7.83001 26.1926 8.19954 26.3577C8.8884 26.6655 9.93827 26.8988 11.0148 26.6612C11.6876 27.5014 12.6766 28.8885 13.4734 30.3385ZM12.3968 26.0561C13.093 26.9561 14.0083 28.2717 14.7668 29.6518C15.1945 30.43 15.5805 31.2435 15.848 32.0248C16.1082 32.785 16.2744 33.566 16.2209 34.2763V37.9803V42.5553H19.7733V34.9704C19.7733 34.8907 19.7732 34.8101 19.7731 34.7286V34.7259C19.7705 31.9875 19.7669 28.241 22.6235 22.5744C22.1912 22.2902 21.8244 21.9596 21.5365 21.6406C21.4441 21.6472 21.353 21.6522 21.2633 21.6555C21.221 21.715 21.1562 21.8189 21.0709 21.9813C20.959 22.1943 20.8318 22.4686 20.6928 22.7949C20.4152 23.4469 20.1047 24.2728 19.791 25.163C19.1642 26.9415 18.537 28.9403 18.1513 30.2369C18.0717 30.5047 17.8424 30.7034 17.5622 30.7475C17.282 30.7917 17.001 30.6733 16.8402 30.4435L13.2247 25.2749C12.9728 25.5881 12.6947 25.847 12.3968 26.0561Z" fill="#202020"/>
</svg>
