<svg width="30" height="20" viewBox="0 0 30 20" fill="none" xmlns="http://www.w3.org/2000/svg">
<rect width="30" height="20" fill="white"/>
<rect width="15" height="11" fill="#3C3E6E"/>
<rect x="15" y="9.5" width="15" height="1.5" fill="#B31D38"/>
<rect y="18.5" width="30" height="1.5" fill="#B31D38"/>
<rect y="15.5" width="30" height="1.5" fill="#B31D38"/>
<rect y="12.5" width="30" height="1.5" fill="#B31D38"/>
<rect x="15" y="6" width="15" height="1.5" fill="#B31D38"/>
<rect x="15" y="3" width="15" height="1.5" fill="#B31D38"/>
<rect x="15" width="15" height="1.5" fill="#B31D38"/>
<path d="M1.11314 0.5L1.2508 0.941629H1.69627L1.33587 1.21457L1.47353 1.6562L1.11314 1.38326L0.752745 1.6562L0.890403 1.21457L0.530009 0.941629H0.97548L1.11314 0.5Z" fill="white"/>
<path d="M3.66789 0.5L3.80555 0.941629H4.25102L3.89062 1.21457L4.02828 1.6562L3.66789 1.38326L3.30749 1.6562L3.44515 1.21457L3.08476 0.941629H3.53023L3.66789 0.5Z" fill="white"/>
<path d="M2.44157 1.56525L2.57923 2.00688H3.0247L2.6643 2.27982L2.80196 2.72145L2.44157 2.4485L2.08117 2.72145L2.21883 2.27982L1.85844 2.00688H2.30391L2.44157 1.56525Z" fill="white"/>
<path d="M4.99632 1.56525L5.13398 2.00688H5.57945L5.21905 2.27982L5.35671 2.72145L4.99632 2.4485L4.63592 2.72145L4.77358 2.27982L4.41319 2.00688H4.85866L4.99632 1.56525Z" fill="white"/>
<path d="M7.55107 1.56525L7.68872 2.00688H8.1342L7.7738 2.27982L7.91146 2.72145L7.55107 2.4485L7.19067 2.72145L7.32833 2.27982L6.96794 2.00688H7.41341L7.55107 1.56525Z" fill="white"/>
<path d="M10.1058 1.56525L10.2435 2.00688H10.6889L10.3286 2.27982L10.4662 2.72145L10.1058 2.4485L9.74542 2.72145L9.88308 2.27982L9.52268 2.00688H9.96816L10.1058 1.56525Z" fill="white"/>
<path d="M12.6606 1.56525L12.7982 2.00688H13.2437L12.8833 2.27982L13.021 2.72145L12.6606 2.4485L12.3002 2.72145L12.4378 2.27982L12.0774 2.00688H12.5229L12.6606 1.56525Z" fill="white"/>
<path d="M6.22264 0.5L6.36029 0.941629H6.80577L6.44537 1.21457L6.58303 1.6562L6.22264 1.38326L5.86224 1.6562L5.9999 1.21457L5.63951 0.941629H6.08498L6.22264 0.5Z" fill="white"/>
<path d="M8.77738 0.5L8.91504 0.941629H9.36051L9.00012 1.21457L9.13778 1.6562L8.77738 1.38326L8.41699 1.6562L8.55465 1.21457L8.19425 0.941629H8.63973L8.77738 0.5Z" fill="white"/>
<path d="M11.3321 0.5L11.4698 0.941629H11.9153L11.5549 1.21457L11.6925 1.6562L11.3321 1.38326L10.9717 1.6562L11.1094 1.21457L10.749 0.941629H11.1945L11.3321 0.5Z" fill="white"/>
<path d="M13.8869 0.5L14.0245 0.941629H14.47L14.1096 1.21457L14.2473 1.6562L13.8869 1.38326L13.5265 1.6562L13.6641 1.21457L13.3038 0.941629H13.7492L13.8869 0.5Z" fill="white"/>
<path d="M1.11314 2.63049L1.2508 3.07212H1.69627L1.33587 3.34506L1.47353 3.78669L1.11314 3.51375L0.752745 3.78669L0.890403 3.34506L0.530009 3.07212H0.97548L1.11314 2.63049Z" fill="white"/>
<path d="M3.66789 2.63049L3.80555 3.07212H4.25102L3.89062 3.34506L4.02828 3.78669L3.66789 3.51375L3.30749 3.78669L3.44515 3.34506L3.08476 3.07212H3.53023L3.66789 2.63049Z" fill="white"/>
<path d="M2.44157 3.69556L2.57923 4.13719H3.0247L2.6643 4.41013L2.80196 4.85176L2.44157 4.57881L2.08117 4.85176L2.21883 4.41013L1.85844 4.13719H2.30391L2.44157 3.69556Z" fill="white"/>
<path d="M4.99632 3.69556L5.13398 4.13719H5.57945L5.21905 4.41013L5.35671 4.85176L4.99632 4.57881L4.63592 4.85176L4.77358 4.41013L4.41319 4.13719H4.85866L4.99632 3.69556Z" fill="white"/>
<path d="M7.55107 3.69556L7.68872 4.13719H8.1342L7.7738 4.41013L7.91146 4.85176L7.55107 4.57881L7.19067 4.85176L7.32833 4.41013L6.96794 4.13719H7.41341L7.55107 3.69556Z" fill="white"/>
<path d="M10.1058 3.69556L10.2435 4.13719H10.6889L10.3286 4.41013L10.4662 4.85176L10.1058 4.57881L9.74542 4.85176L9.88308 4.41013L9.52268 4.13719H9.96816L10.1058 3.69556Z" fill="white"/>
<path d="M12.6606 3.69556L12.7982 4.13719H13.2437L12.8833 4.41013L13.021 4.85176L12.6606 4.57881L12.3002 4.85176L12.4378 4.41013L12.0774 4.13719H12.5229L12.6606 3.69556Z" fill="white"/>
<path d="M6.22264 2.63049L6.36029 3.07212H6.80577L6.44537 3.34506L6.58303 3.78669L6.22264 3.51375L5.86224 3.78669L5.9999 3.34506L5.63951 3.07212H6.08498L6.22264 2.63049Z" fill="white"/>
<path d="M8.77738 2.63049L8.91504 3.07212H9.36051L9.00012 3.34506L9.13778 3.78669L8.77738 3.51375L8.41699 3.78669L8.55465 3.34506L8.19425 3.07212H8.63973L8.77738 2.63049Z" fill="white"/>
<path d="M11.3321 2.63049L11.4698 3.07212H11.9153L11.5549 3.34506L11.6925 3.78669L11.3321 3.51375L10.9717 3.78669L11.1094 3.34506L10.749 3.07212H11.1945L11.3321 2.63049Z" fill="white"/>
<path d="M13.8869 2.63049L14.0245 3.07212H14.47L14.1096 3.34506L14.2473 3.78669L13.8869 3.51375L13.5265 3.78669L13.6641 3.34506L13.3038 3.07212H13.7492L13.8869 2.63049Z" fill="white"/>
<path d="M1.11314 4.7608L1.2508 5.20243H1.69627L1.33587 5.47537L1.47353 5.917L1.11314 5.64406L0.752745 5.917L0.890403 5.47537L0.530009 5.20243H0.97548L1.11314 4.7608Z" fill="white"/>
<path d="M3.66789 4.7608L3.80555 5.20243H4.25102L3.89062 5.47537L4.02828 5.917L3.66789 5.64406L3.30749 5.917L3.44515 5.47537L3.08476 5.20243H3.53023L3.66789 4.7608Z" fill="white"/>
<path d="M2.44157 5.82611L2.57923 6.26774H3.0247L2.6643 6.54068L2.80196 6.98231L2.44157 6.70937L2.08117 6.98231L2.21883 6.54068L1.85844 6.26774H2.30391L2.44157 5.82611Z" fill="white"/>
<path d="M4.99632 5.82611L5.13398 6.26774H5.57945L5.21905 6.54068L5.35671 6.98231L4.99632 6.70937L4.63592 6.98231L4.77358 6.54068L4.41319 6.26774H4.85866L4.99632 5.82611Z" fill="white"/>
<path d="M7.55107 5.82611L7.68872 6.26774H8.1342L7.7738 6.54068L7.91146 6.98231L7.55107 6.70937L7.19067 6.98231L7.32833 6.54068L6.96794 6.26774H7.41341L7.55107 5.82611Z" fill="white"/>
<path d="M10.1058 5.82611L10.2435 6.26774H10.6889L10.3286 6.54068L10.4662 6.98231L10.1058 6.70937L9.74542 6.98231L9.88308 6.54068L9.52268 6.26774H9.96816L10.1058 5.82611Z" fill="white"/>
<path d="M12.6606 5.82611L12.7982 6.26774H13.2437L12.8833 6.54068L13.021 6.98231L12.6606 6.70937L12.3002 6.98231L12.4378 6.54068L12.0774 6.26774H12.5229L12.6606 5.82611Z" fill="white"/>
<path d="M6.22264 4.7608L6.36029 5.20243H6.80577L6.44537 5.47537L6.58303 5.917L6.22264 5.64406L5.86224 5.917L5.9999 5.47537L5.63951 5.20243H6.08498L6.22264 4.7608Z" fill="white"/>
<path d="M8.77738 4.7608L8.91504 5.20243H9.36051L9.00012 5.47537L9.13778 5.917L8.77738 5.64406L8.41699 5.917L8.55465 5.47537L8.19425 5.20243H8.63973L8.77738 4.7608Z" fill="white"/>
<path d="M11.3321 4.7608L11.4698 5.20243H11.9153L11.5549 5.47537L11.6925 5.917L11.3321 5.64406L10.9717 5.917L11.1094 5.47537L10.749 5.20243H11.1945L11.3321 4.7608Z" fill="white"/>
<path d="M13.8869 4.7608L14.0245 5.20243H14.47L14.1096 5.47537L14.2473 5.917L13.8869 5.64406L13.5265 5.917L13.6641 5.47537L13.3038 5.20243H13.7492L13.8869 4.7608Z" fill="white"/>
<path d="M1.11314 6.89136L1.2508 7.33299H1.69627L1.33587 7.60593L1.47353 8.04756L1.11314 7.77462L0.752745 8.04756L0.890403 7.60593L0.530009 7.33299H0.97548L1.11314 6.89136Z" fill="white"/>
<path d="M3.66789 6.89136L3.80555 7.33299H4.25102L3.89062 7.60593L4.02828 8.04756L3.66789 7.77462L3.30749 8.04756L3.44515 7.60593L3.08476 7.33299H3.53023L3.66789 6.89136Z" fill="white"/>
<path d="M2.44157 7.95654L2.57923 8.39817H3.0247L2.6643 8.67111L2.80196 9.11274L2.44157 8.8398L2.08117 9.11274L2.21883 8.67111L1.85844 8.39817H2.30391L2.44157 7.95654Z" fill="white"/>
<path d="M4.99632 7.95654L5.13398 8.39817H5.57945L5.21905 8.67111L5.35671 9.11274L4.99632 8.8398L4.63592 9.11274L4.77358 8.67111L4.41319 8.39817H4.85866L4.99632 7.95654Z" fill="white"/>
<path d="M7.55107 7.95654L7.68872 8.39817H8.1342L7.7738 8.67111L7.91146 9.11274L7.55107 8.8398L7.19067 9.11274L7.32833 8.67111L6.96794 8.39817H7.41341L7.55107 7.95654Z" fill="white"/>
<path d="M10.1058 7.95654L10.2435 8.39817H10.6889L10.3286 8.67111L10.4662 9.11274L10.1058 8.8398L9.74542 9.11274L9.88308 8.67111L9.52268 8.39817H9.96816L10.1058 7.95654Z" fill="white"/>
<path d="M12.6606 7.95654L12.7982 8.39817H13.2437L12.8833 8.67111L13.021 9.11274L12.6606 8.8398L12.3002 9.11274L12.4378 8.67111L12.0774 8.39817H12.5229L12.6606 7.95654Z" fill="white"/>
<path d="M6.22264 6.89136L6.36029 7.33299H6.80577L6.44537 7.60593L6.58303 8.04756L6.22264 7.77462L5.86224 8.04756L5.9999 7.60593L5.63951 7.33299H6.08498L6.22264 6.89136Z" fill="white"/>
<path d="M8.77738 6.89136L8.91504 7.33299H9.36051L9.00012 7.60593L9.13778 8.04756L8.77738 7.77462L8.41699 8.04756L8.55465 7.60593L8.19425 7.33299H8.63973L8.77738 6.89136Z" fill="white"/>
<path d="M11.3321 6.89136L11.4698 7.33299H11.9153L11.5549 7.60593L11.6925 8.04756L11.3321 7.77462L10.9717 8.04756L11.1094 7.60593L10.749 7.33299H11.1945L11.3321 6.89136Z" fill="white"/>
<path d="M13.8869 6.89136L14.0245 7.33299H14.47L14.1096 7.60593L14.2473 8.04756L13.8869 7.77462L13.5265 8.04756L13.6641 7.60593L13.3038 7.33299H13.7492L13.8869 6.89136Z" fill="white"/>
<path d="M1.11314 9.02179L1.2508 9.46342H1.69627L1.33587 9.73636L1.47353 10.178L1.11314 9.90505L0.752745 10.178L0.890403 9.73636L0.530009 9.46342H0.97548L1.11314 9.02179Z" fill="white"/>
<path d="M3.66789 9.02179L3.80555 9.46342H4.25102L3.89062 9.73636L4.02828 10.178L3.66789 9.90505L3.30749 10.178L3.44515 9.73636L3.08476 9.46342H3.53023L3.66789 9.02179Z" fill="white"/>
<path d="M6.22264 9.02179L6.36029 9.46342H6.80577L6.44537 9.73636L6.58303 10.178L6.22264 9.90505L5.86224 10.178L5.9999 9.73636L5.63951 9.46342H6.08498L6.22264 9.02179Z" fill="white"/>
<path d="M8.77738 9.02179L8.91504 9.46342H9.36051L9.00012 9.73636L9.13778 10.178L8.77738 9.90505L8.41699 10.178L8.55465 9.73636L8.19425 9.46342H8.63973L8.77738 9.02179Z" fill="white"/>
<path d="M11.3321 9.02179L11.4698 9.46342H11.9153L11.5549 9.73636L11.6925 10.178L11.3321 9.90505L10.9717 10.178L11.1094 9.73636L10.749 9.46342H11.1945L11.3321 9.02179Z" fill="white"/>
<path d="M13.8869 9.02179L14.0245 9.46342H14.47L14.1096 9.73636L14.2473 10.178L13.8869 9.90505L13.5265 10.178L13.6641 9.73636L13.3038 9.46342H13.7492L13.8869 9.02179Z" fill="white"/>
</svg>
