<svg width="20" height="21" viewBox="0 0 20 21" fill="none" xmlns="http://www.w3.org/2000/svg">
<path d="M3.85 15.6832C4.7 15.0373 5.65 14.5279 6.7 14.1553C7.75 13.7826 8.85 13.5963 10 13.5963C11.15 13.5963 12.25 13.7826 13.3 14.1553C14.35 14.5279 15.3 15.0373 16.15 15.6832C16.7333 15.0041 17.1875 14.2339 17.5125 13.3727C17.8375 12.5114 18 11.5921 18 10.6149C18 8.41199 17.2208 6.53622 15.6625 4.98756C14.1042 3.43891 12.2167 2.66458 10 2.66458C7.78333 2.66458 5.89583 3.43891 4.3375 4.98756C2.77917 6.53622 2 8.41199 2 10.6149C2 11.5921 2.1625 12.5114 2.4875 13.3727C2.8125 14.2339 3.26667 15.0041 3.85 15.6832ZM10 11.6087C9.01667 11.6087 8.1875 11.2733 7.5125 10.6025C6.8375 9.93166 6.5 9.10764 6.5 8.13042C6.5 7.15319 6.8375 6.32918 7.5125 5.65837C8.1875 4.98756 9.01667 4.65216 10 4.65216C10.9833 4.65216 11.8125 4.98756 12.4875 5.65837C13.1625 6.32918 13.5 7.15319 13.5 8.13042C13.5 9.10764 13.1625 9.93166 12.4875 10.6025C11.8125 11.2733 10.9833 11.6087 10 11.6087ZM10 20.5528C8.61667 20.5528 7.31667 20.2919 6.1 19.7702C4.88333 19.2484 3.825 18.5404 2.925 17.6459C2.025 16.7515 1.3125 15.6998 0.7875 14.4907C0.2625 13.2816 0 11.9896 0 10.6149C0 9.24015 0.2625 7.94822 0.7875 6.73911C1.3125 5.53 2.025 4.47824 2.925 3.58383C3.825 2.68942 4.88333 1.98135 6.1 1.45961C7.31667 0.937872 8.61667 0.677002 10 0.677002C11.3833 0.677002 12.6833 0.937872 13.9 1.45961C15.1167 1.98135 16.175 2.68942 17.075 3.58383C17.975 4.47824 18.6875 5.53 19.2125 6.73911C19.7375 7.94822 20 9.24015 20 10.6149C20 11.9896 19.7375 13.2816 19.2125 14.4907C18.6875 15.6998 17.975 16.7515 17.075 17.6459C16.175 18.5404 15.1167 19.2484 13.9 19.7702C12.6833 20.2919 11.3833 20.5528 10 20.5528ZM10 18.5652C10.8833 18.5652 11.7167 18.4368 12.5 18.1801C13.2833 17.9234 14 17.5548 14.65 17.0745C14 16.5942 13.2833 16.2257 12.5 15.9689C11.7167 15.7122 10.8833 15.5838 10 15.5838C9.11667 15.5838 8.28333 15.7122 7.5 15.9689C6.71667 16.2257 6 16.5942 5.35 17.0745C6 17.5548 6.71667 17.9234 7.5 18.1801C8.28333 18.4368 9.11667 18.5652 10 18.5652ZM10 9.6211C10.4333 9.6211 10.7917 9.48031 11.075 9.19874C11.3583 8.91717 11.5 8.56106 11.5 8.13042C11.5 7.69978 11.3583 7.34367 11.075 7.0621C10.7917 6.78052 10.4333 6.63973 10 6.63973C9.56667 6.63973 9.20833 6.78052 8.925 7.0621C8.64167 7.34367 8.5 7.69978 8.5 8.13042C8.5 8.56106 8.64167 8.91717 8.925 9.19874C9.20833 9.48031 9.56667 9.6211 10 9.6211Z" fill="black"/>
</svg>
