<svg width="25" height="28" viewBox="0 0 25 28" fill="none" xmlns="http://www.w3.org/2000/svg">
<circle cx="12.5" cy="6" r="1.9" stroke="#202020" stroke-width="1.2"/>
<path d="M16.5146 9.38709L15.9427 8.90177C15.7536 9.12457 15.7112 9.43693 15.8339 9.70214C15.9567 9.96734 16.2223 10.1371 16.5146 10.1371V9.38709ZM8.38746 9.38709V10.1371C8.6797 10.1371 8.94532 9.96735 9.06808 9.70214C9.19084 9.43693 9.14837 9.12457 8.95926 8.90177L8.38746 9.38709ZM3.06508 12.0896L2.32651 11.9587L2.32477 11.9695L3.06508 12.0896ZM1.05382 24.4839L1.78846 24.6349C1.79057 24.6246 1.79246 24.6143 1.79414 24.604L1.05382 24.4839ZM3.3524 27L3.30219 27.7483C3.3189 27.7494 3.33565 27.75 3.3524 27.75L3.3524 27ZM21.6453 27V27.75C21.6534 27.75 21.6615 27.7499 21.6696 27.7496L21.6453 27ZM23.9439 24.4839L23.2038 24.6056C23.2066 24.6228 23.2101 24.6399 23.2141 24.6569L23.9439 24.4839ZM23.5608 22.1541L24.3008 22.0324L24.2998 22.0264L23.5608 22.1541ZM21.741 11.6237L20.9938 11.6877C20.9956 11.709 20.9984 11.7303 21.002 11.7514L21.741 11.6237ZM16.9686 6.12545C16.9686 7.1781 16.5856 8.14439 15.9427 8.90177L17.0864 9.87242C17.9478 8.85744 18.4686 7.55096 18.4686 6.12545H16.9686ZM12.451 1.75C14.9655 1.75 16.9686 3.72816 16.9686 6.12545H18.4686C18.4686 2.86132 15.755 0.25 12.451 0.25V1.75ZM7.93343 6.12545C7.93343 3.72816 9.93655 1.75 12.451 1.75V0.25C9.14706 0.25 6.43343 2.86132 6.43343 6.12545H7.93343ZM8.95926 8.90177C8.31643 8.14439 7.93343 7.1781 7.93343 6.12545H6.43343C6.43343 7.55096 6.95418 8.85744 7.81565 9.87242L8.95926 8.90177ZM8.38746 8.63709H5.36366V10.1371H8.38746V8.63709ZM5.36366 8.63709C4.28098 8.63709 3.54585 9.31748 3.10294 9.98653C2.65975 10.656 2.41939 11.435 2.32659 11.9587L3.80358 12.2205C3.87041 11.8433 4.05144 11.2711 4.3537 10.8145C4.65623 10.3575 4.99058 10.1371 5.36366 10.1371V8.63709ZM2.32477 11.9695L0.313505 24.3637L1.79414 24.604L3.8054 12.2097L2.32477 11.9695ZM0.319179 24.3329C0.19814 24.9217 0.237956 25.458 0.423187 25.929C0.607242 26.3971 0.915578 26.752 1.25614 27.0129C1.91704 27.5193 2.74617 27.711 3.30219 27.7483L3.40262 26.2517C3.03282 26.2269 2.52111 26.0924 2.1684 25.8222C2.00215 25.6948 1.88549 25.5488 1.81914 25.3801C1.75396 25.2144 1.71795 24.9779 1.78846 24.6349L0.319179 24.3329ZM3.3524 27.75H21.6453V26.25H3.3524V27.75ZM21.6696 27.7496C23.0129 27.706 23.9007 27.1873 24.3715 26.4027C24.8113 25.6698 24.8003 24.8451 24.6736 24.3108L23.2141 24.6569C23.2789 24.9303 23.268 25.3264 23.0852 25.631C22.9335 25.8839 22.5762 26.2194 21.621 26.2504L21.6696 27.7496ZM24.6839 24.3622L24.3008 22.0324L22.8207 22.2758L23.2038 24.6056L24.6839 24.3622ZM24.2998 22.0264L22.4801 11.4959L21.002 11.7514L22.8217 22.2818L24.2998 22.0264ZM22.4883 11.5597C22.3875 10.383 21.7384 9.62545 20.9998 9.18879C20.2918 8.77023 19.4966 8.63709 18.9636 8.63709V10.1371C19.2926 10.1371 19.8095 10.2276 20.2364 10.48C20.6327 10.7143 20.9413 11.075 20.9938 11.6877L22.4883 11.5597ZM18.9636 8.63709H16.5146V10.1371H18.9636V8.63709Z" fill="#202020"/>
<path fill-rule="evenodd" clip-rule="evenodd" d="M17.7409 14.3495C18.5944 14.7657 19.2069 15.4633 19.5 15.9486L18.2756 16.6783C18.0928 16.3756 17.6688 15.8944 17.1116 15.6227C16.5953 15.3709 15.9624 15.2909 15.2096 15.7396C14.8177 15.9732 14.2922 16.5024 14.0548 17.2098C13.8317 17.8745 13.8415 18.755 14.5913 19.8031C15.1381 20.5674 16.6508 21.0358 17.9359 19.9117V19.1501H16.746V17.7318H19.3638V20.5003L19.1635 20.7064C17.2151 22.7118 14.5177 22.1488 13.4274 20.6247C12.4225 19.22 12.3284 17.8695 12.7002 16.7613C13.0578 15.6958 13.8261 14.9101 14.4749 14.5234C15.6946 13.7964 16.8465 13.9134 17.7409 14.3495Z" fill="#202020"/>
<path fill-rule="evenodd" clip-rule="evenodd" d="M11.6289 14.936L9.45555 17.7055L12 21.0881L10.8555 22L8.17799 18.4405H7.4474V21.7923H6V14.0956H7.4474V16.9508H8.1872L10.5029 14L11.6289 14.936Z" fill="#202020"/>
</svg>
